<?xml version="1.0" encoding="UTF-8"?>
<svg id="_レイヤー_2" data-name="レイヤー 2" xmlns="http://www.w3.org/2000/svg" viewBox="0 0 576 88">
  <defs>
    <style>
      .cls-1 {
        fill: none;
        stroke: #fff;
        stroke-miterlimit: 10;
      }

      .cls-2 {
        fill: #092237;
      }

      .cls-2, .cls-3, .cls-4 {
        stroke-width: 0px;
      }

      .cls-3 {
        fill: #fff;
      }

      .cls-4 {
        fill: #4977bc;
      }
    </style>
  </defs>
  <g id="plan">
    <g>
      <g>
        <rect class="cls-4" width="576" height="88"/>
        <rect class="cls-1" x="5" y="5" width="566" height="78"/>
      </g>
      <g>
        <g>
          <path class="cls-2" d="m97.0585938,46.59375c.1328125.0878906.2421875.1972656.2421875.3300781,0,.1757812-.1972656.3515625-.59375.6376953-.0429688.7480469-.0429688,1.2978516-.0429688,2.7285156,0,3.1240234.0644531,6.953125.1308594,8.5810547.0214844.484375.0449219,1.0996094.0449219,1.4082031,0,.8359375-.1992188,1.3867188-1.1230469,1.3867188-.5507812,0-.7695312-.2207031-.7695312-.7480469,0-.1542969.2421875-4.2470703.2421875-5.0390625.0214844-.8359375.0429688-2.9492188.0878906-7.0849609-.96875,1.3417969-2.1132812,2.6181641-3.4765625,3.6083984l-.1328125-.0878906c3.1464844-4.5771484,4.7089844-8.7353516,4.9726562-9.7255859.1113281-.4179688.1992188-.9677734.2207031-1.2978516l1.9804688,1.1435547c.1757812.1103516.3085938.2197266.3085938.3964844,0,.3955078-.4414062.5283203-.9257812.6591797-.3300781.7050781-.6816406,1.4306641-1.4726562,2.9052734l.3066406.1982422Zm7.9003906.2636719v5.5449219h2.4863281l.7480469-1.0117188c.0664062-.0878906.21875-.2646484.3515625-.2646484.0878906,0,.2421875.1103516.3964844.2197266l1.4082031,1.0126953c.109375.0878906.21875.2197266.21875.3300781,0,.2412109-.1972656.2412109-.3300781.2412109h-5.2792969v6.6894531h3.7617188l.9472656-1.1220703c.109375-.1318359.2402344-.2861328.3515625-.2861328.109375,0,.2636719.1328125.3964844.2421875l1.2753906,1.1220703c.0878906.0878906.2207031.1982422.2207031.3300781,0,.2421875-.1992188.2421875-.3300781.2421875h-11.2441406c-.1757812,0-1.5625,0-2.5957031.1982422l-.4179688-.8583984c1.078125.0878906,2.2871094.1318359,3.3652344.1318359h2.7070312v-6.6894531h-1.5195312c-.5488281,0-1.6054688.0224609-2.5957031.1992188l-.4394531-.8808594c1.078125.1103516,2.3105469.1542969,3.3886719.1542969h1.1660156v-5.5449219h-2.4648438c-.5058594,0-1.6054688.0214844-2.5742188.1982422l-.4394531-.8798828c1.8027344.1533203,3.1230469.1533203,3.3652344.1533203h6.7109375l.7929688-1.0556641c.1308594-.1982422.2207031-.3300781.3730469-.3300781.0878906,0,.2421875.1318359.3964844.2421875l1.4296875,1.0996094c.0898438.0664062.2207031.1982422.2207031.3300781,0,.2207031-.2207031.2421875-.3300781.2421875h-5.9179688Zm-2.8398438-5.3691406c.96875.4404297,3.2578125,1.5410156,3.2578125,3.2792969,0,.5058594-.2207031,1.0556641-.9023438,1.0556641-.7480469,0-.9238281-.6162109-1.0996094-1.3203125-.265625-.9902344-.96875-2.3544922-1.3652344-2.8818359l.109375-.1328125Z"/>
          <path class="cls-2" d="m120.8203125,47.2314453h-3.1035156c-.0429688,4.8193359-.0429688,5.875-.0429688,7.2177734,0,.9667969.0644531,5.2578125.0644531,6.1386719,0,.3955078,0,1.078125-1.078125,1.078125-.2421875,0-.6367188-.0878906-.6367188-.6171875,0-.3300781.1308594-1.8476562.1542969-2.1777344.0644531-1.5839844.0644531-2.265625.0878906-6.46875.0214844-3.1025391.0214844-3.2792969.0429688-5.1708984-.7910156,0-1.7167969.0654297-2.5078125.1982422l-.4394531-.8583984c.6152344.0439453,1.3847656.1103516,2.9472656.1318359,0-3.2558594-.0429688-4.3789062-.5058594-5.3027344l2.4199219.6816406c.1328125.0449219.2871094.1328125.2871094.3085938,0,.2207031-.0664062.2636719-.7714844.6601562,0,.59375-.0214844,3.1464844-.0214844,3.6523438h1.0351562l.6601562-.703125c.109375-.1328125.2402344-.2871094.3515625-.2871094.0878906,0,.2636719.1103516.3964844.2421875l.7910156.7265625c.109375.109375.1992188.1972656.1992188.3300781,0,.1972656-.1777344.2197266-.3300781.2197266Zm5.0820312,6.7548828c-.5722656,6.1611328-1.2324219,7.0410156-3.5644531,7.2832031-.2207031-1.2324219-.2871094-1.4746094-1.1660156-2.1777344l.0664062-.1767578c1.0117188.3525391,1.5839844.3740234,1.7597656.3740234.5722656,0,.703125-.1318359,1.0566406-1.8476562.1523438-.7265625.4394531-2.15625.4824219-4.0712891h-1.6054688c-.4179688,2.640625-1.5410156,6.0947266-4.7519531,7.6787109l-.0878906-.109375c1.6503906-1.4521484,3.0800781-3.9824219,3.4316406-7.546875-.703125,0-1.5175781.0664062-2.1992188.1972656l-.4414062-.8789062c.8144531.0654297,1.453125.109375,2.6855469.1308594.109375-1.671875-.0664062-2.3320312-.1328125-2.6621094l2.0019531.7041016c.1992188.0664062.2871094.1982422.2871094.3076172,0,.1767578-.484375.484375-.5957031.5507812-.0429688.4179688-.0429688.59375-.109375,1.0996094h1.3203125l.5273438-.5498047c.1542969-.1533203.2207031-.2197266.3085938-.2197266s.1992188.109375.2871094.1972656l.9023438.7929688c.0878906.0878906.1757812.1757812.1757812.3076172,0,.1542969-.0664062.1982422-.6386719.6162109Zm5.0820312-8.9335938c-.9667969,4.4453125-2.4863281,4.5996094-3.8066406,4.7529297-.109375-.7480469-.1972656-1.3417969-1.3847656-2.3320312l.0878906-.1318359c.8359375.3955078,1.8261719.5273438,1.9804688.5273438,1.1210938,0,1.6269531-2.5292969,1.8691406-3.7402344h-3.234375c-.9453125,2.75-2.3320312,5.0166016-6.09375,6.1611328l-.0234375-.1318359c2.2011719-1.4746094,4.0058594-3.4101562,4.6425781-6.0292969h-1.1445312c-.5488281,0-1.6054688,0-2.5957031.1982422l-.4394531-.8798828c1.5175781.1318359,3.0800781.1542969,3.3886719.1542969h.9238281c.0878906-.5507812.1542969-1.0126953.1542969-1.5410156,0-.4619141-.0664062-.6376953-.1542969-.8574219l2.2441406.6816406c.0878906.0214844.1972656.0878906.1972656.2197266s-.3515625.3525391-.703125.5722656c-.1328125.5283203-.1757812.6826172-.2421875.9248047h2.8378906l.3515625-.4404297c.1113281-.1318359.265625-.1982422.375-.1982422.1328125,0,.1972656.0439453.3085938.1318359l1.1660156.9677734c.0878906.0664062.1757812.1542969.1757812.2871094,0,.2421875-.5507812.5273438-.8808594.703125Zm2.3554688,8.5595703c-.1992188.1103516-.3085938.1982422-.4628906.3076172-.0429688,2.3105469-.3300781,5.28125-1.0117188,6.3808594-.1328125.2207031-.7050781,1.1230469-2.640625,1.2988281-.4628906-1.3642578-.484375-1.4082031-1.2539062-2.15625l.0664062-.1757812c1.1210938.3730469,1.7597656.3730469,1.8691406.3730469.8808594,0,.9472656-.3955078,1.2109375-1.8476562.1542969-.9462891.4179688-3.6083984.3300781-4.3564453h-1.6289062c-.5722656,3.1904297-1.4082031,6.0507812-5.1269531,7.8994141l-.0644531-.1103516c1.2539062-1.1884766,3.1894531-3.3232422,3.828125-7.7236328-.484375.0224609-.7480469.0878906-1.0117188.1328125l-.4414062-.8808594c.7480469.0664062,1.078125.0878906,1.5410156.1103516.0214844-.2197266.0664062-.7705078.0664062-1.6064453,0-1.0556641-.0878906-1.3417969-.1777344-1.6503906l2.0917969.7480469c.1757812.0664062.2851562.2207031.2851562.3300781,0,.2421875-.5722656.5283203-.6816406.5947266-.0878906.8134766-.1328125,1.1884766-.2207031,1.6064453.1757812.0214844.2636719.0214844.484375.0214844h.8574219l.5507812-.6386719c.0878906-.109375.1992188-.21875.2636719-.21875.0878906,0,.2207031.0654297.3300781.1533203l1.0566406.7919922c.0878906.0664062.1972656.1982422.1972656.2861328,0,.1542969-.1523438.2421875-.3066406.3300781Z"/>
          <path class="cls-2" d="m146.1640625,59.3994141l-.0214844-.1767578c4.7089844-1.671875,6.9082031-4.7734375,6.9082031-8.1191406,0-3.7177734-2.9921875-5.9179688-6.8203125-5.9179688-.5507812,0-.6601562.0214844-.9023438.1318359,1.1875.6376953,1.5175781,1.4521484,1.5175781,1.7607422,0,.2412109-.0664062.3955078-.7480469,1.8261719-1.4082031,3.0136719-3.4765625,7.4365234-4.9726562,8.6679688-.1542969.1113281-.4179688.2421875-.703125.2421875-.5058594,0-.7050781-.2851562-1.3652344-1.2089844-.1542969-.2207031-1.0332031-1.0351562-1.1875-1.2324219-.2421875-.3525391-.6171875-1.1445312-.6171875-2.2441406,0-4.7314453,4.0058594-8.6259766,9.375-8.6259766,4.2675781,0,8.140625,2.4863281,8.140625,6.9091797,0,4.2685547-3.5644531,7.546875-8.6035156,7.9873047Zm-1.7382812-13.9501953c-2.4199219.3964844-5.7871094,3.5205078-5.7871094,7.5693359,0,1.4960938.8574219,3.1455078,1.7167969,3.1455078.59375,0,1.4511719-1.5615234,1.8261719-2.3095703,2.1992188-4.4228516,2.9257812-5.8525391,2.9257812-6.9970703,0-.5507812-.2636719-1.0117188-.6816406-1.4082031Z"/>
          <path class="cls-2" d="m175.4257812,49.453125c-.3300781.0449219-.5078125.1767578-.7480469.3964844-1.3652344,1.2988281-2.15625,1.9589844-3.9179688,3.125l-.1308594-.1103516c.7910156-.9248047,2.15625-2.7939453,2.7929688-4.2685547-.7695312.2421875-4.4003906,1.3867188-4.9492188,1.5625-.2421875.0664062-1.3203125.4179688-1.5410156.484375-.0664062,1.7597656-.0878906,3.0576172-.0878906,3.7402344,0,2.5302734,0,3.234375,2.6835938,3.234375,1.4960938,0,2.9277344-.3085938,3.6972656-.4628906.2851562-.0654297.4394531-.0878906.6152344-.0878906.3964844,0,1.34375.1992188,1.5625.3964844.1113281.109375.1992188.2636719.1992188.484375,0,.3964844-.2421875.5722656-.7050781.7041016-.5273438.1757812-2.3320312.2861328-3.9160156.2861328-2.2441406,0-4.6875,0-5.2148438-2.15625-.2636719-1.0126953-.1972656-4.4228516-.1542969-5.7431641-2.0019531.6376953-2.1777344.7255859-3.8066406,1.5185547-.2851562.1542969-.4179688.1972656-.5722656.1972656-.484375,0-1.8691406-1.0332031-1.8691406-2.1777344,0-.4179688.0878906-.7705078.1757812-1.078125.8144531,1.1220703,1.0332031,1.4521484,1.8476562,1.4521484.8359375,0,2.265625-.4189453,4.2460938-.9902344.0234375-.8798828.1113281-4.6865234-.1972656-5.2373047-.109375-.1972656-.4394531-.6601562-1.6933594-.9453125.6816406-.4179688,1.2089844-.5507812,1.5390625-.5507812.8808594,0,2.3984375.5058594,2.3984375,1.1230469,0,.1308594-.1972656.8789062-.2207031.9453125-.2851562,1.0117188-.3945312,3.1464844-.4609375,4.2910156.6601562-.1982422,5.9414062-1.7167969,6.2050781-1.8925781.109375-.0878906.59375-.4619141.703125-.5498047.0878906-.0654297.1757812-.1318359.3085938-.1318359.3515625,0,2.265625,1.3857422,2.265625,1.9140625,0,.3740234-.0644531.3964844-1.0546875.5273438Z"/>
          <path class="cls-2" d="m193.6835938,59.6630859c-.3300781,0-.5273438-.1103516-1.296875-.8359375-1.0351562-.9902344-2.0898438-1.9804688-5.5449219-3.3447266-1.2539062-.484375-2.1347656-.7695312-3.1035156-1.078125,5.28125-.1757812,10.6503906,2.3320312,10.6503906,4.4667969,0,.3964844-.2636719.7919922-.7050781.7919922Zm-.6816406-12.2333984c-.2636719,0-.3730469-.0664062-1.2539062-.6601562-2.3105469-1.5839844-4.5097656-2.2890625-7.0410156-2.9707031.4628906-.0439453.9238281-.0664062,1.5410156-.0664062,2.4628906,0,7.3710938.9023438,7.3710938,2.9931641,0,.3076172-.2207031.7041016-.6171875.7041016Zm-.5488281,5.0605469c-.3085938,0-.3964844-.0878906-1.2558594-.7041016-1.4960938-1.1005859-3.828125-1.9804688-5.8964844-2.640625.4179688-.0439453.5507812-.0439453,1.0566406-.0439453.3085938,0,6.6894531.0664062,6.6894531,2.7070312,0,.0214844,0,.6816406-.59375.6816406Z"/>
          <path class="cls-2" d="m203.5605469,57.8369141c2.9042969-1.9580078,6.7773438-5.4560547,8.5371094-8.8232422-2.6171875.2636719-4.6425781.7919922-5.1933594,1.0117188-.3066406.1328125-.4824219.1992188-.6601562.1992188-.5703125,0-2.0019531-.8369141-2.0019531-2.3105469,0-.2421875.0234375-.4179688.0664062-.7705078.8359375,1.078125,1.1445312,1.4521484,2.5957031,1.4521484.4199219,0,4.3144531-.3740234,5.6777344-.484375-.0214844-2.9042969-.0449219-3.3007812-.2636719-3.8496094-.1992188-.484375-.6171875-.6386719-1.7167969-1.0566406.2636719-.1982422.7265625-.5058594,1.3417969-.5058594,1.078125,0,2.4648438.8359375,2.4648438,1.2539062,0,.109375-.0664062.2421875-.2636719.6816406-.3085938.6386719-.3300781,1.7382812-.3515625,3.3447266,2.2207031-.2197266,2.4628906-.2421875,2.8378906-.3300781.1757812-.0439453.9238281-.2861328,1.0996094-.2861328.3964844,0,2.0898438.4404297,2.0898438,1.1660156,0,.3525391-.21875.5283203-.5058594.5283203-.2636719,0-1.4746094-.1533203-1.7148438-.1757812-.7480469-.0439453-1.3652344-.0654297-1.8046875-.0654297-.8808594,0-1.6953125.0429688-2.0019531.0654297v3.1025391c0,.8144531.1308594,4.4443359.1308594,5.1923828,0,2.6181641-.8789062,3.2783203-1.296875,3.2783203-.3535156,0-.4628906-.2421875-.7929688-1.0332031-.3964844-.9248047-1.8261719-1.9150391-2.3984375-2.2890625l.0878906-.1757812c.5273438.1757812,2.3984375.6601562,2.5742188.6601562.3515625,0,.3515625-.1542969.3964844-.7705078.109375-2.0019531.1542969-4.1806641.1328125-6.1826172-1.1445312,1.8925781-4.2910156,5.6992188-8.9785156,7.3496094l-.0878906-.1767578Z"/>
          <path class="cls-2" d="m240.8964844,52.2695312c-.1972656,0-.7265625-.0429688-.7695312-.0429688-.7929688-.0664062-1.0117188-.0878906-2.4863281-.0878906-6.7109375,0-8.6914062.1308594-9.6816406.3955078-.0664062.0224609-.7695312.1982422-.8359375.1982422-.5722656,0-1.7597656-1.4082031-1.7597656-2.4199219,0-.1328125.0214844-.5507812.2636719-1.0566406.7480469,1.671875,1.4296875,1.671875,3.71875,1.671875,1.5175781,0,8.6679688-.0214844,9.6816406-.2636719.1308594-.0214844.7695312-.1982422.9023438-.1982422.1308594,0,2.3320312.2421875,2.3320312,1.1005859,0,.6816406-1.1015625.703125-1.3652344.703125Z"/>
          <path class="cls-2" d="m261.421875,47.78125c-.3515625.1542969-.4824219.2636719-.7695312.8583984-3.9160156,7.7890625-6.953125,10.1650391-12.1445312,11.8603516l-.0898438-.1767578c3.8945312-2.1123047,6.4472656-4.9072266,7.6796875-6.7109375-.1542969,0-.3515625,0-.9238281-.6826172-.8359375-.9902344-1.3632812-1.6054688-2.8613281-2.5292969-1.4960938,1.6279297-2.9921875,2.4414062-3.7617188,2.859375l-.0664062-.109375c2.53125-2.4648438,5.4570312-7.1289062,5.4570312-8.2519531,0-.4833984-.484375-.7695312-1.2539062-1.1660156.5058594-.1757812.7695312-.2636719,1.078125-.2636719.8144531,0,2.4648438,1.078125,2.4648438,1.5625,0,.1972656-.0878906.2636719-.3964844.5722656-.2421875.2421875-.2851562.3076172-.7265625.9677734.5292969.0878906,3.8515625-.1103516,4.6875-.6376953.0664062-.0449219.5722656-.3525391.6152344-.3525391.1992188,0,1.6953125,1.3427734,1.6953125,1.7158203,0,.1767578-.2207031.2646484-.6835938.484375Zm-5.609375-.1318359c-.2871094,0-.6171875-.0439453-1.2109375-.3740234-.3085938.484375-1.3632812,2.0244141-2.046875,2.8164062.8359375.1328125,2.5527344.5507812,3.4765625,1.2763672.3535156.2861328.6601562.8134766.6171875,1.4306641,1.4082031-2.2011719,2.5742188-4.5996094,2.8828125-5.6552734-.6386719.1103516-3.234375.5058594-3.71875.5058594Zm7.0410156-1.3642578c-.3535156,0-.484375-.1757812-1.1445312-1.0117188-.7050781-.8808594-1.3652344-1.3203125-2.1132812-1.7832031,2.5097656.1767578,3.7636719,1.0791016,3.7636719,2.0908203,0,.3964844-.2207031.7041016-.5058594.7041016Zm2.3105469-.8574219c-.1542969,0-.3535156-.0224609-.9023438-.6826172-.6601562-.7919922-1.1660156-1.3203125-2.421875-2.0029297,1.1015625-.0214844,3.7851562.3300781,3.7851562,1.9804688,0,.4628906-.1972656.7050781-.4609375.7050781Z"/>
          <path class="cls-2" d="m284.8964844,52.2695312c-.1972656,0-.7265625-.0429688-.7695312-.0429688-.7929688-.0664062-1.0117188-.0878906-2.4863281-.0878906-6.7109375,0-8.6914062.1308594-9.6816406.3955078-.0664062.0224609-.7695312.1982422-.8359375.1982422-.5722656,0-1.7597656-1.4082031-1.7597656-2.4199219,0-.1328125.0214844-.5507812.2636719-1.0566406.7480469,1.671875,1.4296875,1.671875,3.71875,1.671875,1.5175781,0,8.6679688-.0214844,9.6816406-.2636719.1308594-.0214844.7695312-.1982422.9023438-.1982422.1308594,0,2.3320312.2421875,2.3320312,1.1005859,0,.6816406-1.1015625.703125-1.3652344.703125Z"/>
          <path class="cls-2" d="m295.0585938,46.59375c.1328125.0878906.2421875.1972656.2421875.3300781,0,.1757812-.1972656.3515625-.59375.6376953-.0429688.7480469-.0429688,1.2978516-.0429688,2.7285156,0,3.1240234.0644531,6.953125.1308594,8.5810547.0214844.484375.0449219,1.0996094.0449219,1.4082031,0,.8359375-.1992188,1.3867188-1.1230469,1.3867188-.5507812,0-.7695312-.2207031-.7695312-.7480469,0-.1542969.2421875-4.2470703.2421875-5.0390625.0214844-.8359375.0429688-2.9492188.0878906-7.0849609-.96875,1.3417969-2.1132812,2.6181641-3.4765625,3.6083984l-.1328125-.0878906c3.1464844-4.5771484,4.7089844-8.7353516,4.9726562-9.7255859.1113281-.4179688.1992188-.9677734.2207031-1.2978516l1.9804688,1.1435547c.1757812.1103516.3085938.2197266.3085938.3964844,0,.3955078-.4414062.5283203-.9257812.6591797-.3300781.7050781-.6816406,1.4306641-1.4726562,2.9052734l.3066406.1982422Zm7.9003906.2636719v5.5449219h2.4863281l.7480469-1.0117188c.0664062-.0878906.21875-.2646484.3515625-.2646484.0878906,0,.2421875.1103516.3964844.2197266l1.4082031,1.0126953c.109375.0878906.21875.2197266.21875.3300781,0,.2412109-.1972656.2412109-.3300781.2412109h-5.2792969v6.6894531h3.7617188l.9472656-1.1220703c.109375-.1318359.2402344-.2861328.3515625-.2861328.109375,0,.2636719.1328125.3964844.2421875l1.2753906,1.1220703c.0878906.0878906.2207031.1982422.2207031.3300781,0,.2421875-.1992188.2421875-.3300781.2421875h-11.2441406c-.1757812,0-1.5625,0-2.5957031.1982422l-.4179688-.8583984c1.078125.0878906,2.2871094.1318359,3.3652344.1318359h2.7070312v-6.6894531h-1.5195312c-.5488281,0-1.6054688.0224609-2.5957031.1992188l-.4394531-.8808594c1.078125.1103516,2.3105469.1542969,3.3886719.1542969h1.1660156v-5.5449219h-2.4648438c-.5058594,0-1.6054688.0214844-2.5742188.1982422l-.4394531-.8798828c1.8027344.1533203,3.1230469.1533203,3.3652344.1533203h6.7109375l.7929688-1.0556641c.1308594-.1982422.2207031-.3300781.3730469-.3300781.0878906,0,.2421875.1318359.3964844.2421875l1.4296875,1.0996094c.0898438.0664062.2207031.1982422.2207031.3300781,0,.2207031-.2207031.2421875-.3300781.2421875h-5.9179688Zm-2.8398438-5.3691406c.96875.4404297,3.2578125,1.5410156,3.2578125,3.2792969,0,.5058594-.2207031,1.0556641-.9023438,1.0556641-.7480469,0-.9238281-.6162109-1.0996094-1.3203125-.265625-.9902344-.96875-2.3544922-1.3652344-2.8818359l.109375-.1328125Z"/>
          <path class="cls-2" d="m329.7988281,46.4833984c-.703125.3525391-1.3417969.8134766-1.9804688,1.2763672l-.109375-.0664062c.59375-1.6933594.6152344-1.8476562.6816406-2.265625h-12.8046875c.0644531,2.4638672-1.2773438,3.6298828-2.2226562,3.6298828-.6171875,0-.9472656-.4833984-.9472656-.8583984,0-.5498047.5058594-.9453125,1.1230469-1.4296875,1.0332031-.7919922,1.4511719-1.4296875,1.6933594-2.7285156h.1328125c.0878906.2636719.1308594.4619141.1757812.8574219h5.6777344c.0429688-2.0673828-.1328125-2.5742188-.4414062-3.4980469l2.2890625.6601562c.2421875.0664062.3300781.1982422.3300781.3300781,0,.1982422-.1542969.3300781-.6601562.6816406v1.8261719h5.5664062l.6816406-.6367188c.1328125-.1113281.2636719-.2207031.4179688-.2207031s.3085938.1542969.4179688.2636719l1.2773438,1.2324219c.21875.2207031.2636719.4179688.2636719.5507812,0,.21875-.109375.3955078-1.5625.3955078Zm1.2773438,13.7080078c-.9472656.6816406-3.6308594.7041016-4.8847656.7041016-4.9960938,0-6.0078125-.0439453-6.0957031-2.15625-.0214844-.3525391-.0214844-3.3886719-.0214844-3.9384766l-4.5332031.8359375c-1.0996094.1982422-1.8925781.4179688-2.5078125.6601562l-.59375-.7919922c1.1210938-.1103516,2.2441406-.2421875,3.3652344-.4404297l4.2695312-.7919922c0-.5498047.0214844-3.2783203.0429688-3.8945312-1.9570312.5058594-4.5546875,1.2099609-7.0839844,1.2324219v-.1542969c.3300781-.0654297,9.9882812-2.7060547,11.6171875-4.9501953l1.4746094,1.4511719c.1308594.1103516.1542969.2871094.1542969.375,0,.1972656-.2207031.2851562-.3300781.2851562-.1113281,0-.6601562-.0214844-.7929688-.0214844-.59375.2636719-1.4296875.6162109-3.4980469,1.2988281,0,.59375-.0449219,3.453125-.0449219,4.0917969l6.6464844-1.2099609.8125-1.3203125c.1113281-.1757812.1992188-.3300781.3300781-.3300781.1113281,0,.2871094.0878906.3964844.1542969l1.4960938.8583984c.1328125.0654297.2871094.2197266.2871094.3515625,0,.1757812-.1328125.2207031-.2871094.2421875l-9.703125,1.7822266c-.0214844,1.671875,0,2.8818359.0449219,4.0048828.0214844.3515625.109375.5722656.4394531.703125.3964844.1542969,1.4082031.1767578,4.0488281.1767578,3.34375,0,3.71875-.0439453,4.4003906-4.1142578h.1308594c.1113281.59375.265625,1.4960938.4199219,2.2441406.1523438.7480469.1757812.8359375.4394531,1.078125.3085938.2851562.3515625.3076172.3515625.5273438,0,.4628906-.4609375.8359375-.7910156,1.0566406Z"/>
        </g>
        <path class="cls-3" d="m370.34375,64.7363281c-4.5507812,3.7802734-11.8320312,5.4599609-15.6113281,5.4599609-.7011719,0-1.4003906,0-1.6113281-.0693359-.6992188-.0703125-.9785156-.2109375-.9785156-.5605469,0-.2802734.7695312-1.2597656,1.4003906-1.4003906,8.6796875-.7695312,17.2910156-5.3203125,17.2910156-13.8613281,0-4.4101562-2.6601562-8.1904297-7.0703125-10.1513672-3.4316406-1.4697266-6.8613281-2.6601562-11.2714844-3.4296875-.2792969-.0703125-.9101562-1.2607422-.9101562-1.6103516,0-1.9599609,2.1699219-8.9609375,3.5-12.1113281.3496094-.7705078,1.1894531-2.3105469,1.5410156-2.3798828,1.6796875-.7001953,12.1113281-2.5205078,16.8007812-2.5205078.140625,0,.5605469.5595703.5605469.6298828,0,2.8007812-2.8007812,5.4609375-3.5703125,5.5302734-4.1308594.2802734-11.0605469.7001953-13.3007812.9101562-.28125,0-.7714844.3505859-.8417969.6308594-.6289062,1.8193359-1.3984375,4.1298828-1.46875,4.4101562-.0703125.4902344.1386719.9101562.4902344.9794922,4.4804688.9804688,11.2695312,3.5712891,13.9316406,5.1806641,4.8300781,2.8710938,7.3496094,7.4208984,7.3496094,12.1113281,0,5.4609375-2.9394531,9.5214844-6.2304688,12.2519531Z"/>
        <g>
          <path class="cls-2" d="m406.9453125,40.1728516c.2285156.0761719.4550781.6464844.4550781.7216797.0761719.7226562.3808594,2.9257812.3808594,3.078125,0,.6455078,0,1.0253906-.265625,1.0253906-.3046875,0-.7597656-.265625-.9121094-.7978516-.4570312-1.3671875-1.4824219-2.5068359-1.8613281-2.7353516-.6855469-.5322266-1.5957031-.8740234-2.6992188-.8740234-2.5449219,0-4.3691406,1.9003906-4.3691406,4.4453125,0,2.6982422,1.9375,3.8759766,5.28125,6.1171875,2.9257812,1.9755859,5.2441406,3.9511719,5.2441406,7.3710938,0,1.8994141-1.0644531,4.0273438-3.1152344,5.3574219-1.2167969.7978516-3.4589844,1.3671875-5.1679688,1.3671875-1.2167969,0-3.7988281-.4179688-4.9765625-.9873047-.3808594-.2285156-.875-1.0644531-.875-1.2158203-.1894531-1.2919922-.5703125-2.9638672-.5703125-3.5712891,0-.1523438.3808594-.7226562.5332031-.7226562.3027344,0,.8730469.9882812,1.40625,2.1660156.9863281,2.0898438,3.4941406,3.0400391,4.9375,3.0400391,2.6230469,0,4.5976562-1.8623047,4.5976562-4.5976562,0-1.5957031-.7597656-3.3056641-4.7480469-5.8515625-3.2304688-2.0888672-5.5097656-4.2929688-5.5097656-7.5224609,0-1.7861328.796875-3.4951172,2.0898438-4.6357422,1.1777344-1.0634766,2.9628906-1.8613281,5.6230469-1.8613281,1.8613281,0,3.8378906.5703125,4.5214844.6835938Z"/>
          <path class="cls-2" d="m433.5449219,40.0966797c1.3671875-.0751953,2.0507812-.3037109,2.5820312-.6835938.2675781-.1513672.3808594-.2275391.5332031-.2275391.1894531,0,.3417969.3417969.1503906.8740234-.3789062,1.1777344-.6074219,2.3935547-.8339844,4.3691406-.0390625.3417969-.34375.7216797-.6464844.7216797-.265625,0-.4179688-.265625-.5332031-1.2158203-.2265625-1.9755859-.7207031-2.1660156-3.0761719-2.2792969-.6464844-.0380859-4.8632812-.0380859-5.3203125.0751953-.1894531.0380859-.3417969.4179688-.3417969.4941406v9.3085938c0,4.4072266,0,8.0166016.1523438,9.4228516.1894531,1.7099609.3808594,2.1660156,2.7363281,2.6972656.4941406.1142578,1.0253906.4179688,1.0253906.6845703,0,.4179688-.6835938.4560547-1.0644531.4560547-.3027344,0-2.6582031-.1904297-4.3300781-.1904297-1.9003906,0-3.8378906.265625-4.3320312.265625-.7597656,0-1.140625-.2275391-1.140625-.4560547,0-.265625.3808594-.5693359.7226562-.6455078,2.6601562-.6074219,2.7363281-1.2539062,2.8496094-4.1035156.0761719-2.2412109.265625-9.9921875.265625-12.9179688v-4.5214844c0-.3037109-.1894531-.4941406-.3046875-.4941406-.7597656-.1132812-4.1015625-.1894531-4.7109375-.1894531-1.4433594,0-2.2402344.2275391-2.8105469.8740234-.1523438.1132812-.6074219.7216797-1.2539062,1.9755859-.3417969.7978516-.5703125.7597656-.7226562.7597656-.2285156,0-.3789062-.4941406-.3789062-.8740234,0-.7216797.7207031-2.8115234.7207031-5.0527344,0-.2285156.3417969-.6083984.5703125-.6083984.1894531,0,.1894531.265625.6074219.6083984.1152344.1132812.7226562.6835938,1.2929688.7216797.9882812.1142578,4.0273438.2275391,8.890625.2275391,1.9746094,0,7.1425781-.0380859,8.7011719-.0761719Z"/>
          <path class="cls-2" d="m453.1894531,40.1728516c1.2539062,0,2.9257812-.0380859,3.4960938-.1132812.1132812-.0380859.3046875.2275391.3417969.4179688,0,1.7470703.0761719,2.8486328.0761719,3.609375,0,.53125-.2285156.9873047-.5703125.9873047s-.53125-.53125-.6074219-.9121094c-.4941406-2.0136719-1.3300781-2.3935547-2.5449219-2.5830078-.9882812-.1523438-3.7246094-.2285156-5.3964844-.1523438-.0761719,0-.4941406.1904297-.5683594,1.0644531-.0761719.9492188-.1914062,8.0927734-.1152344,8.6621094.0390625.1523438.0761719.3798828.265625.3798828h2.4707031c3.5703125,0,3.7226562-.1513672,4.40625-1.8994141.2285156-.5703125.4570312-.7978516.6855469-.7978516.265625,0,.3417969.5322266.3027344.8359375-.0761719,1.0634766-.1132812,1.8232422-.1132812,2.7353516,0,1.0263672.0761719,1.5576172.1132812,2.3173828.0390625.6845703-.1523438,1.1025391-.4179688,1.1025391s-.53125-.4179688-.6464844-.8359375c-.53125-1.7480469-.6835938-1.8623047-3-1.9755859-1.2167969-.0761719-2.7363281-.0761719-3.7617188-.0761719-.1523438,0-.3417969.265625-.3417969.3417969-.1523438.7978516-.1152344,4.3310547-.1152344,5.9648438,0,1.1015625.1523438,2.5458984.3808594,3.1533203.1523438.4560547.4550781.7607422.7207031.8359375.6464844.1142578,1.9394531.2666016,3.4589844.2666016.4550781,0,2.7734375-.0380859,3.609375-.2666016,1.2148438-.3037109,2.2421875-1.0253906,3.1523438-2.8115234.4179688-.8359375.6464844-1.0634766.875-1.0634766.265625,0,.3789062.6074219.3027344,1.0253906-.0371094.3046875-1.1015625,3.7236328-1.3671875,4.0654297-.1132812.1523438-.4550781.4560547-.6464844.4560547-.4179688,0-6.1542969-.3037109-12.3476562-.3037109-2.0136719,0-2.8496094.1904297-4.2929688.1904297-.7226562,0-1.140625-.0761719-1.140625-.4941406,0-.2666016.4570312-.4560547,1.0644531-.6083984,1.9003906-.4560547,2.6210938-.7216797,2.7734375-2.7734375.1132812-1.5957031.3046875-6.0791016.3046875-10.7900391,0-4.5214844.0371094-5.3193359-.0390625-6.4208984-.0761719-1.671875-.4550781-2.1279297-2.1269531-2.5078125-.7988281-.1904297-1.1015625-.3417969-1.1015625-.6464844,0-.3417969.53125-.53125,1.0625-.53125,1.7871094,0,3.2675781.1513672,5.8144531.1513672h5.5839844Z"/>
          <path class="cls-2" d="m472.0761719,40.9707031c-.4179688,0-.796875.1523438-1.1015625.3417969-.1523438.1142578-.3417969.5703125-.3789062,1.4824219-.0390625.7978516-.0390625,5.5087891-.0761719,9.8779297,0,3.4580078.0761719,6.6113281.0761719,7.5615234.0371094,2.4697266.3417969,2.7734375,2.2792969,3.34375.7207031.1894531,1.0253906.3798828,1.0253906.7216797s-.6835938.4560547-1.2539062.4560547c-.9492188,0-2.3183594-.1523438-3.9882812-.1523438-1.1035156,0-2.6601562.1523438-3.8378906.1523438-.6464844,0-1.0644531-.1904297-1.0644531-.5322266,0-.265625.3808594-.4941406.7597656-.6083984,2.1289062-.4550781,2.546875-1.2158203,2.6601562-2.7734375.1132812-1.8613281.1894531-4.9765625.1894531-6.8769531,0-1.2539062-.0761719-9.3085938-.1132812-10.5244141-.0390625-1.3671875,0-1.8994141-2.1289062-2.203125-.7597656-.1142578-1.1777344-.3427734-1.1777344-.5703125,0-.3037109.3808594-.4941406.875-.5322266.265625-.0380859.9121094,0,1.2539062,0,1.5195312,0,4.4453125-.3037109,6.34375-.3037109,3.4589844,0,5.6992188.9121094,7.1054688,2.2421875,1.8242188,1.7470703,2.203125,3.9130859,2.203125,5.1669922,0,3.3808594-1.5566406,4.9394531-2.6582031,5.8886719-.9882812.8359375-2.7363281,1.671875-4.3691406,1.671875-.4179688,0-1.40625-.0380859-2.0136719-.265625-.4570312-.1904297-.6464844-.3798828-.6464844-.6083984,0-.1513672.1523438-.3417969.4550781-.3417969h.9511719c2.0136719,0,4.8242188-1.7851562,4.8242188-6.1552734,0-3.4570312-2.6210938-6.4589844-6.1933594-6.4589844Z"/>
        </g>
      </g>
    </g>
  </g>
</svg>