<?xml version="1.0" encoding="UTF-8"?>
<svg id="_レイヤー_2" data-name="レイヤー 2" xmlns="http://www.w3.org/2000/svg" viewBox="0 0 93.2642942 39.110045">
  <defs>
    <style>
      .cls-1 {
        fill: #1e2973;
      }

      .cls-1, .cls-2 {
        stroke-width: 0px;
      }

      .cls-2 {
        fill: #d61518;
      }
    </style>
  </defs>
  <g id="layout">
    <g>
      <path class="cls-1" d="m11.5595153,19.2540822h1.8749794c.6062271,0,1.3836514.1013364,1.3836514.8263011v6.520808s-2.1091279.7741334-5.9192231.7741334c-3.8080481,0-8.8989229-2.0968446-8.8989229-7.9044952,0-5.804068,5.3109488-8.0634091,9.2336401-8.0634091,1.7708281,0,3.9784775.1044072,3.9784775,1.0980669v1.9386984c-1.4903617-1.2160368-2.0953093-1.4415209-4.3597685-1.4415209-2.2736716,0-6.3399228,1.4878388-6.3399228,6.3366321,0,4.8237151,5.4522056,7.7041255,9.9916159,5.8810939v-3.7013737c0-.7763646-.061416-2.2649349-.9445269-2.2649349Z"/>
      <path class="cls-1" d="m40.0337653,26.9802151h4.8045227c-1.3235149-.4972137-1.8749794-2.0947974-2.3199895-3.2588865-.4473132-1.1559003-3.9262739-9.6154426-4.3052618-10.7767169-.3951096-1.1582034-.9386412-1.1582034-1.3918402-1.1582034h-2.7509251c1.3209559.4444983.5931762,1.3836513.3731022,2.0453725-.2167473.6587228-4.8567263,12.1627075-4.8567263,12.1627075-1.6062844-.4419393-5.6505281-6.3586033-5.6505281-6.3586033,5.3618729-1.5428211,4.5437606-7.8494767-.7116579-7.8494767h-6.0259334c1.2191076.2748366,1.1090706,1.5512658,1.1090706,2.5449255v10.4440469c0,1.4335518-.4439865,1.8258106-1.1612742,2.2048344h4.4176019c-1.2134778-.5494173-.8900202-1.8230316-.8900202-2.4295146v-11.2680449h2.3837086c1.277197,0,2.2099525,1.5487068,2.2099525,2.5996881,0,1.7025027-1.3314478,2.3698899-2.6490769,2.8642887-1.3317037.496446-.6095538,1.6032135,0,2.4845331.6059712.8869494,2.3721931,3.3791236,3.4313632,4.5959641,1.0463751,1.2162927,1.9873195,1.1530854,2.4822301,1.1530854h3.9782216c-1.5400063-.491328-.713961-1.701735-.4969578-2.3112888.2259597-.6126246,1.2168045-3.2100096,1.2168045-3.2100096h5.9691236s.7218939,1.8749793,1.3836514,3.5414002c.6699462,1.6500432.158658,1.8726762-.5491614,1.9798983Zm-6.1943156-7.2898234l2.2644592-5.9135932,2.4359122,5.9135932h-4.7003714Z"/>
      <path class="cls-1" d="m88.445697,26.9802151h4.8185972c-1.3350304-.4972137-1.8831682-2.0947974-2.3222926-3.2588865-.4393803-1.1559003-3.9272975-9.6154426-4.3108916-10.7767169-.3907593-1.1582034-.934035-1.1582034-1.387234-1.1582034h-2.7580903c1.3340068.4444983.6062271,1.3836513.381291,2.0453725-.220074.6587228-4.8649151,12.1627075-4.8649151,12.1627075-.3081036.7221498-.7613025.7328976-1.0463751.9857268h3.9807806c-1.548451-.491328-.7198467-1.701735-.4995168-2.3112888.2190504-.6126246,1.2214107-3.2100096,1.2214107-3.2100096h5.9668205s.7277796,1.8749793,1.3882576,3.5414002c.6594543,1.6500432.1599375,1.8726762-.5678421,1.9798983Zm-6.1822883-7.2898234l2.2644592-5.9135932,2.4300265,5.9135932h-4.6944857Z"/>
      <path class="cls-1" d="m71.4431885,27.2629846c.5514645-.4995168,1.0509813-.8895443,1.0509813-2.6526954v-10.4465699c0-.8260452-.0637191-1.7736429-1.0509813-2.1024744h4.2471725c-.4391244.3920388-.9642312.8833668-.9642312,1.9955082v10.5535361c0,.9422597-.1924368,2.3264229,1.0266708,2.6526954h-4.3096121Z"/>
      <path class="cls-1" d="m48.5419289,15.3198755s-.0545067,8.3435837-.0545067,9.2904137c0,.9422597.1123401,2.3264229,1.3281211,2.6526954h-4.038614c.5632359-.4995168.9941715-.8895443.9941715-2.6526954,0-1.7649064.1182258-9.6253868.1182258-10.4465699,0-.8260452-.1182258-1.7736429-1.1123973-2.1024744h3.1056025l9.2802139,11.6600837v-9.4995199c0-.6123687.1123401-1.7685249-1.1589711-2.2104642h4.1430212c-.491328.378732-1.2226902.5491614-1.2226902,2.1523749v13.7139371s-1.1530854.2116293-3.0280648-2.0505267c-1.8854713-2.262156-8.3541117-10.5072542-8.3541117-10.5072542Z"/>
      <path class="cls-2" d="m74.9566956,39.0305463c-12.1549946-10.2465279-16.8077686-22.305012-.1806654-38.7591264.5215242-.5212683,1.0151553-.2113734.6059712.2551323-7.2867528,8.3330914-15.4161843,21.6593763-.1668468,37.9962885.2364516.2469435.148422.7904751-.258459.5077056Z"/>
    </g>
  </g>
</svg>