<?xml version="1.0" encoding="UTF-8"?>
<svg id="_レイヤー_2" data-name="レイヤー 2" xmlns="http://www.w3.org/2000/svg" viewBox="0 0 325 110">
  <defs>
    <style>
      .cls-1 {
        fill: #1e2973;
      }

      .cls-1, .cls-2, .cls-3, .cls-4 {
        stroke-width: 0px;
      }

      .cls-2 {
        fill: #d61518;
      }

      .cls-3 {
        fill: #092237;
      }

      .cls-4 {
        fill: none;
      }
    </style>
  </defs>
  <g id="_ヘッダー" data-name="ヘッダー">
    <g>
      <g>
        <g>
          <path class="cls-3" d="m95.2456055,85.6850206c0,3.6816406,0,4.722168.0317383,6.2104492.0161133.6245117.1123047,3.3935547.1123047,3.9536133,0,.3681641,0,.4643555-.1762695.6245117-.1118164.1118164-.2880859.2080078-.4960938.2080078-.3203125,0-.3681641-.1279297-.3681641-.4960938,0-.0961914.0317383-.4960938.0317383-.5761719h-7.4589844c.0161133.4799805.0322266.5761719-.0478516.7841797-.0639648.144043-.3203125.4160156-.5922852.4160156-.4482422,0-.4482422-.3520508-.4482422-.5439453,0-.0483398.128418-2.8491211.128418-2.8974609.0317383-.800293.015625-1.6806641.015625-2.480957,0-1.8564453,0-3.7133789-.0317383-4.9458008-.0322266-.7524414-.0322266-.8325195-.1762695-1.6489258l1.2963867.65625h2.4970703c.1762695-.6401367.4643555-1.6806641.4643555-2.3046875,0-.2080078,0-.3681641-.0478516-.5444336l1.5366211.7685547c.0795898.0317383.144043.0800781.144043.2080078,0,.2558594-.4482422.2558594-.6245117.2719727-.512207.6245117-1.0083008,1.2485352-1.2485352,1.6005859h4.2578125l.4003906-.4799805c.0639648-.0800781.144043-.1601562.2397461-.1601562.0961914,0,.144043.0478516.2724609.144043l.7519531.512207c.0639648.0322266.128418.1123047.128418.1918945,0,.1601562-.0644531.1923828-.5922852.5283203Zm-.8647461-.3520508h-7.4746094v2.9770508h7.4746094v-2.9770508Zm0,3.3613281h-7.4746094v3.0253906h7.4746094v-3.0253906Zm0,3.409668h-7.4746094v3.1210938h7.4746094v-3.1210938Z"/>
          <path class="cls-3" d="m114.5419922,86.2133409c-.0957031.0639648-.512207.3203125-.5917969.3842773.015625,1.1523438.015625,6.2265625.015625,7.2666016,0,.3364258.0483398,1.8569336.0483398,2.1611328,0,.4799805-.4321289.7041016-.6723633.7041016-.4003906,0-.4003906-.2558594-.4003906-1.184082h-9.5878906c0,.7041016,0,.800293-.0800781.9599609-.1757812.3041992-.5600586.3203125-.7041016.3203125-.3203125,0-.3359375-.1918945-.3359375-.3520508,0-.1279297.0317383-.3520508.0478516-.4960938.1601562-2.0332031.1762695-7.1230469.1762695-9.3959961,0-.3842773-.0161133-.7202148-.1762695-1.4726562l1.5366211.7363281h3.8574219c-.0161133-.3203125-.0161133-1.6967773-.0317383-1.9848633-.0483398-.8481445-.144043-1.1206055-.3520508-1.4882812l1.5205078.3198242c.2080078.0478516.3999023.0800781.3999023.2563477,0,.1757812-.1601562.3041992-.6240234.5922852-.0161133.2719727-.0161133.8320312-.0322266,2.3046875h4.1298828l.4482422-.4482422c.2080078-.2080078.2241211-.2080078.2880859-.2080078.0478516,0,.0800781,0,.2558594.1123047l.784668.4799805c.1118164.0639648.2080078.1279297.2080078.2558594,0,.0644531-.0639648.128418-.128418.1762695Zm-6.8666992.0161133h-4.3217773v4.0976562h4.3217773v-4.0976562Zm0,4.4819336h-4.3217773v4.449707h4.3217773v-4.449707Zm5.2661133-4.4819336h-4.3857422v4.0976562h4.3857422v-4.0976562Zm0,4.4819336h-4.3857422v4.449707h4.3857422v-4.449707Z"/>
          <path class="cls-3" d="m124.6992188,85.7172472h-3.5214844c-.5600586,0-1.456543.0639648-2.0644531.1918945l-.3681641-.6879883c1.2001953.0957031,2.3525391.1118164,2.6567383.1118164h1.8730469l.3998909-.4960938c.1279411-.1601562.1923942-.1923828.2563591-.1923828s.1279297.0322266.3041992.1762695l.5439453.4804688c.1123047.0957031.1601562.144043.1601562.2558594,0,.144043-.1279297.1601562-.2402344.1601562Zm-.9282227,1.9848633h-3.2495117c-.2558594,0-.6240234.015625-.8803711.0800781l-.1601562-.5283203c.2885742.0161133.8964844.0639648,1.1367188.0639648h1.9365234l.2084961-.3359375c.0957031-.1445312.1757812-.2724609.2880859-.2724609.0800781,0,.2719727.1601562.2880859.1601562l.512207.4160156c.0800781.0483398.1601562.128418.1601562.2402344,0,.144043-.128418.1762695-.2402344.1762695Zm.1118164-4.0336914h-3.2973633c-.2558594,0-.6240234.0317383-.8803711.0800781l-.159668-.512207c.2880859.0161133.8959961.0478516,1.1362305.0478516h2.0009766l.2241211-.3520508c.015625-.0322266.1279297-.2402344.2397461-.2402344.0961914,0,.2402344.1279297.3041992.1762695l.512207.3842773c.0800781.0639648.1601562.144043.1601562.2558594,0,.144043-.1279297.1601562-.2402344.1601562Zm-.0800781,8.4194336c-.015625.8481445.0322266,2.2246094.0483398,3.0732422.0317383.2397461.0317383.2719727.0317383.3520508,0,.6240234-.5922852.6240234-.6401367.6240234-.3359375,0-.3041992-.3359375-.2719727-.7841797h-2.4331055c0,.1279297.0478516.7202148.0478516.8325195,0,.2397461,0,.7202148-.65625.7202148-.2080078,0-.3198242-.0639648-.3198242-.3041992,0-.0639648.0317383-.2880859.0478516-.3681641.0639648-.4960938.1123047-2.8012695.1123047-3.4892578,0-1.2963867-.0322266-1.4887695-.128418-1.9370117l1.1044922.65625h2.112793l.2880859-.3041992c.1762695-.1757812.1762695-.2080078.2241211-.2080078.0483398,0,.0961914.0322266.2241211.128418l.5444336.3837891c.0800781.0639648.1601562.144043.1601562.2563477,0,.1757812-.1923828.2558594-.496582.3681641Zm-.0478516-2.4008789h-3.0893555c-.2558594,0-.6240234.0317383-.8803711.0795898l-.1601562-.512207c.2885742.0161133.8964844.0483398,1.1367188.0483398h1.8408203l.3041992-.3842773c.0317383-.0322266.144043-.1918945.2397461-.1918945.1123047,0,.2563477.1279297.2880859.159668l.4165039.3842773c.0957031.0961914.1601562.144043.1601562.2563477,0,.144043-.144043.1601562-.2563477.1601562Zm-.7680664,2.1606445h-2.4492188v3.1210938h2.4492188v-3.1210938Zm9.1552734,4.6259766c-1.456543-.3203125-2.784668-1.0727539-3.7773438-2.1767578-1.0083008,1.0083008-2.6889648,2.2568359-5.2182617,2.6889648v-.1279297c2.6894531-1.2167969,4.2260742-2.6572266,4.6899414-3.1855469-1.1523438-1.5366211-1.3442383-2.9453125-1.3925781-3.4575195-.6723633.0639648-.8320312.0961914-1.0722656.144043l-.3681641-.6879883c1.2006836.0957031,2.3530273.1118164,2.6572266.1118164h2.1928711l.3837891-.3359375c.0322266-.0161133.1601562-.144043.2402344-.144043.0639648,0,.1279297.0478516.2402344.1279297l.5761719.4482422c.0478516.0478516.1762695.1601562.1762695.2880859,0,.2563477-.0800781.2880859-.800293.4482422-.2563477.7202148-.7363281,1.8569336-1.8569336,3.1850586.3359375.2724609,1.0405273.7045898,1.8725586.9926758,1.2006836.4160156,2.1289062.4799805,2.6733398.5283203v.0795898c-.4804688.2241211-.9765625.4643555-1.2167969,1.0727539Zm.800293-8.7875977c-.3198242.1918945-.671875.2719727-1.96875.2719727-1.2163086,0-1.6806641-.0317383-1.824707-.6401367-.0478516-.1762695-.0478516-1.7128906-.0478516-2.0166016,0-.2563477.0161133-1.3769531,0-1.6010742h-1.8085938c-.128418,2.8813477-.4003906,4.1938477-2.1772461,5.1542969l-.0639648-.0800781c1.1845703-1.2006836,1.3769531-3.0253906,1.3769531-4.2094727,0-.784668-.0800781-1.3447266-.144043-1.7607422l1.0083008.512207h1.8408203l.2397461-.3203125c.0639648-.0800781.144043-.1762695.2241211-.1762695.0639648,0,.1601562.0800781.2080078.1123047l.6083984.4643555c.1123047.0795898.1762695.1118164.1762695.2080078,0,.159668-.4165039.3520508-.640625.4638672-.015625.7685547-.015625,1.7607422-.015625,2.5454102,0,.4799805.2080078.5439453.9443359.5439453.9443359,0,1.1201172-.3041992,1.2163086-.5761719.1918945-.4960938.3520508-1.3125.4003906-1.6005859h.0957031c.0322266.3842773.1923828,1.5844727.4482422,1.8085938.2241211.2080078.2402344.2241211.2402344.3364258,0,.1918945-.1279297.4477539-.3364258.5600586Zm-5.5058594,2.480957c-.3041992,0-.5444336.0161133-.8325195.0322266.5444336,1.6962891,1.2485352,2.625,1.6166992,3.0410156,1.0722656-1.3447266,1.3447266-2.3051758,1.5844727-3.0732422h-2.3686523Z"/>
          <path class="cls-3" d="m143.6274414,86.0053331h-4.9458008c-.496582,0-1.3925781.0478516-2.0488281.1757812l-.3842773-.6879883c.8803711.0639648,1.7768555.1279297,2.6572266.1279297h3.2651367l.4482422-.4960938c.1601562-.1918945.1918945-.2080078.2719727-.2080078.0478516,0,.1123047.0317383.2880859.1918945l.5444336.4804688c.0957031.0795898.1601562.1279297.1601562.2397461,0,.144043-.1445312.1762695-.2563477.1762695Zm-1.4404297-1.9208984h-3.8896484c-.2719727,0-.6401367.0322266-.8803711.0800781l-.1762695-.512207c.2880859.0161133.9125977.0478516,1.152832.0478516h2.4169922l.3837891-.4160156c.1279297-.144043.1762695-.2080078.2563477-.2080078.0957031,0,.2397461.1279297.3041992.1762695l.512207.4160156c.0795898.0639648.159668.1601562.159668.2402344,0,.1279297-.1118164.1757812-.2397461.1757812Zm0,3.9375h-3.8896484c-.2719727,0-.6401367.0322266-.8803711.0961914l-.1762695-.5283203c.2880859.0161133.9125977.0483398,1.152832.0483398h2.3847656l.3681641-.496582c.0800781-.0957031.1757812-.2080078.2719727-.2080078s.2563358.1279297.3041992.1762695l.5600586.512207c.0800781.0800781.144043.1279297.144043.2241211,0,.144043-.1118164.1757812-.2397461.1757812Zm.1118164,1.809082h-4.0014648c-.2719727,0-.6401367.015625-.8803711.0795898l-.1762695-.527832c.2880859.0161133.9125977.0639648,1.152832.0639648h2.5449219l.3041992-.4003906c.1118164-.144043.1757812-.2080078.2397461-.2080078.0800781,0,.128418.0322266.3364258.1762695l.5761719.3999023c.0800781.0639648.144043.1601562.144043.2402344,0,.1118164-.0800781.1762695-.2402344.1762695Zm.5605469,2.0327148c-.0161133,0-.3842773.2719727-.4326172.3041992,0,.2558594-.015625,1.3286133-.015625,1.5522461,0,.128418.0317383,1.3447266.0317383,1.5688477s.0161133.4003906-.0961914.5444336c-.1118164.159668-.3520508.2558594-.5117188.2558594-.3525391,0-.3364258-.2719727-.3364258-.6884766h-3.137207c0,.1445312.0161133.7207031.0161133.8486328,0,.3041992-.4165039.5600586-.7045898.5600586-.2397461,0-.2397461-.2241211-.2397461-.3681641,0-.1279297.0957031-1.9526367.1118164-2.3208008.0322266-.3842773.0322266-.8481445.0322266-1.3125,0-1.2163086-.0961914-1.6645508-.1762695-2.0327148l1.0722656.7041016h2.9453125l.2719727-.3681641c.128418-.1762695.1601562-.2080078.2402344-.2080078.0483398,0,.0961914,0,.2719727.1279297l.5605469.4482422c.1279297.1123047.1757812.144043.1757812.2241211s-.0478516.1279297-.0795898.1601562Zm-1.3447266,0h-3.1533203v3.1533203h3.1533203v-3.1533203Zm9.3798828-3.9375h-3.6337891c0,2.769043,0,2.8969727.1123047,6.7226562.0161133.2880859.0478516,1.4404297.0478516,1.6645508,0,.2080078,0,.7363281-.6723633.7363281-.3837891,0-.4160156-.144043-.4160156-.3359375,0-.0483398.0478516-.9448242.0478516-1.1206055.0483398-1.3125.0483398-2.6889648.0639648-7.6669922h-.7680664c-.4960938,0-1.3925781.0639648-2.0488281.1918945l-.3842773-.6884766c.8803711.0644531,1.7768555.1123047,2.6572266.1123047h.5439453c0-1.3764648-.0639648-3.1533203-.1118164-3.7294922-.0639648-.8803711-.1601562-1.0727539-.3359375-1.3764648l1.5522461.3681641c.0800781.015625.2724609.1118164.2724609.2397461,0,.2241211-.4643555.4804688-.5444336.5283203.0161133.2402344.0161133.9125977.0161133,1.4404297,0,.4643555-.0161133,1.7128906-.0161133,2.5292969h1.7290039l.6401367-.6083984c.2080078-.2080078.2558594-.2080078.2880859-.2080078.0961914,0,.2080078.0961914.3198242.1918945l.7207031.5922852c.0800781.0639648.159668.144043.159668.2563477,0,.144043-.1279297.1601562-.2397461.1601562Z"/>
          <path class="cls-3" d="m161.3876953,95.3529894c4.7856445-1.6484375,5.0097656-5.0898438,5.0097656-5.9223633,0-2.8012695-2.6567383-4.3056641-5.0097656-4.3056641-.3364258,0-.4321289.0317383-.5922852.0800781.7841797.65625.7841797,1.1362305.7841797,1.2163086,0,.1923828-.0478516.2563477-.3842773.9604492-1.9526367,4.0976562-2.128418,4.4980469-3.0410156,5.8583984-.0800781.1118164-.5922852.8642578-.9125977.9921875-.0957031.0483398-.2080078.0644531-.3037109.0644531-.3681641,0-.4804688-.1762695-.9287109-.8164062-.1118164-.1601562-.2080078-.2402344-.4321289-.4321289-.6240234-.512207-.8320312-1.0727539-.8320312-2.1611328,0-3.2172852,2.7050781-6.2426758,6.8027344-6.2426758,2.9291992,0,5.8261719,1.6650391,5.8261719,4.9780273,0,2.9291992-2.3530273,5.5546875-5.9545898,5.9067383l-.0317383-.1762695Zm-1.8085938-6.2265625c.4799805-.8964844.9443359-2.1445312.9443359-2.7851562,0-.5439453-.3203125-.8803711-.4482422-1.0244141-1.7929688.144043-4.4980469,2.5131836-4.4980469,5.6503906,0,1.2163086.7685547,2.2890625,1.3925781,2.2890625.0961914,0,.2080078-.0161133.3041992-.1123047.3520508-.3520508.6401367-.8803711.9282227-1.4082031l1.3769531-2.609375Z"/>
          <path class="cls-3" d="m185.7265625,95.9613878h-11.8447266c-.5605469,0-1.4570439.0639648-2.0649414.1918945l-.3681641-.6879883c1.2001953.0957031,2.3530273.1118164,2.6572266.1118164h4.0976562c0-2.3847656-.0322266-4.7539062-.0483398-7.1386719h-3.28125c-.5761719,0-1.456543.0639648-2.0649414.1757812l-.38429-.6879883c1.2006962.0957031,2.3691533.1279297,2.6733525.1279297h3.0571289c-.0161133-4.081543-.1279297-4.449707-.3681641-5.234375l1.6005859.4482422c.1601562.0483398.2724609.144043.2724609.2563477,0,.144043-.1601562.2880859-.6083984.5439453,0,1.1367188-.0161133,2.2573242-.0161133,3.3935547v.5922852h3.3613281l.5444336-.7685547c.0317383-.0317383.1601562-.1918945.2402344-.1918945.0957031,0,.2397461.1118164.3037109.1601562l.9125977.7680664c.0800781.0639648.1601562.128418.1601562.2402344,0,.144043-.128418.1762695-.2402344.1762695h-5.2822266c.0161133,1.6484375.0161133,1.8085938.0161133,3.3129883v3.8256836h4.6577148l.6884766-.7841797c.1601562-.1762695.1918945-.1923828.2558594-.1923828.0800781,0,.2563477.128418.3041992.1601562l.8486328.784668c.1118164.0957031.159668.144043.159668.2558594,0,.144043-.1279297.1601562-.2397461.1601562Z"/>
          <path class="cls-3" d="m194.8588867,88.1181261h-2.0805664c0,1.7924805-.0161133,3.5854492-.0161133,5.378418.4321289-.1445312,2.0170898-.640625,2.2568359-.7363281l.0639648.1279297c-.7041016.4799805-1.6645508.9282227-2.4326172,1.2802734-1.1845703.5283203-1.5849609.7363281-1.9848633.9287109-.1601562.4321289-.1923828.4799805-.3364258.4799805-.0957031,0-.1757812-.0800781-.2080078-.144043l-.7363281-1.2006836c1.0244141-.0795898,1.1845703-.1279297,2.5932617-.512207v-5.6020508h-.2241211c-.5761719,0-1.456543.0639648-2.0649414.1918945l-.3681641-.6879883c.9765625.0800781,1.824707.1118164,2.6572266.1118164-.0161133-2.4970703-.0161133-2.5927734-.0322266-3.3291016-.0317383-.784668-.144043-1.1367188-.2397461-1.440918l1.456543.5283203c.2080078.0800781.2397461.0800781.2397461.1762695,0,.1601562-.3837891.4799805-.5600586.6240234-.0639648,1.6166992-.0639648,2.1611328-.0639648,3.4414062h.800293l.3681641-.4160156c.0961914-.1123047.1601562-.1918945.2402344-.1918945s.2241211.1118164.2880859.159668l.4799805.4165039c.0800781.0800781.1601562.159668.1601562.2558594,0,.144043-.144043.1601562-.2563477.1601562Zm7.1069336,8.1313477c-.2880859.0478516-3.2333984.0478516-3.7773438.0478516-1.7128906,0-1.9047852,0-2.3208008-.1918945-.4482422-.2080078-.496582-.5922852-.496582-1.0727539,0-.8798828.0161133-4.7216797.0161133-5.5058594-.7202148.3359375-1.3286133.6879883-1.7124155.9604492l-.6244985-.496582c.3203125-.0957031,1.0566406-.3520508,2.3369141-.8803711,0-.4477539.0322266-2.4487305.0322266-2.8491211,0-.6240234-.0483398-.9760742-.2402344-1.7607422l1.3764648.496582c.0961914.0317383.2080078.0800781.2080078.1918945,0,.0961914-.0639648.144043-.527832.5761719-.0161133.4804688-.0322266,2.5771484-.0322266,2.9931641l1.9848633-.8642578c.0161133-3.8413086-.0478516-4.2094727-.2880859-5.2661133l1.456543.4799805c.0961914.0322266.2402344.0961914.2402344.1923828s-.0639648.1601562-.1601562.2558594c-.1279297.144043-.3842773.3842773-.4321289.4165039-.0161133.671875-.0322266,1.1523438-.0161133,3.5854492l1.8725586-.8164062.3203125-.5444336c.1279297-.1757812.144043-.1918945.1918945-.1918945.0800781,0,.1601562.0478516.2084961.0800781l.7041016.4160156c.0322266.0322266.1279297.0800781.1279297.1918945,0,.144043-.0478516.1762695-.4160156.512207-.0639648,2.9291992-.0800781,4.1621094-.2402344,4.8823242-.2402344,1.1523438-1.0722656,1.4086914-1.4726562,1.5366211-.2241211-.7202148-.7519531-.9287109-.9443359-1.0083008l.0161133-.128418c.2558594.0483398.3999023.0800781.5922852.0800781.7041016,0,.8803711-.3359375.9604492-.5439453.2719727-.65625.2719727-3.2333984.2719727-4.0820312,0-.2241211-.0322266-.6079102-.0478516-.9121094l-2.1450195.9443359c0,.4643555.0161133,2.5131836.0161133,2.9453125,0,.2558594.0957031,2.5771484.0957031,2.8007812,0,.2084961,0,.7207031-.7041016.7207031-.1918945,0-.3041992-.0322266-.3041992-.2402344,0-.1601562.0483398-.8642578.0639648-.9926758.0161133-.7841797.0161133-1.7763672.0322266-4.8979492l-1.9848633.8647461c0,.671875-.0161133,5.762207,0,5.9223633.0478516.3359375.3520508.3837891.4799805.3999023.0961914.0161133,2.1289062.0161133,2.4169922.0161133,2.1933594,0,2.3212891-.0478516,2.5454102-.144043.3041992-.1123047.4321289-.3520508.65625-.8803711.1118164-.2880859.1601562-.4160156.527832-1.5205078h.1445312c0,.1918945.015625,1.0722656.0317383,1.2641602.0161133.1923828.0639648.5922852.3041992.7524414.1279297.0800781.144043.0961914.144043.1762695,0,.2241211-.3041992.9282227-1.4887695,1.0883789Z"/>
          <path class="cls-3" d="m211.3388672,84.6928331c-1.1845703,2.2729492-2.9931641,4.3857422-4.8339844,5.5703125l-.0639648-.1123047c.9282227-1.0405273,2.4487305-3.0732422,3.425293-4.8496094.5922852-1.0888672.65625-1.5048828.6723633-1.9848633l1.2163086.800293c.1601562.0957031.2241211.144043.2241211.2241211,0,.2080078-.4003906.3037109-.6401367.3520508Zm6.3222656,4.7856445c-.015625.0161133-.159668.128418-.3520508.2724609-.0317383.5761719-.1279297,3.137207-.1757812,3.6494141-.2085099,1.8725586-.4482422,3.3930664-2.9453125,3.5693359-.0483398-.7524414-.5605469-1.2006836-1.2167969-1.4243164v-.1445312c.2402344.0322266.3525391.0483398,1.2807617.1445312.2241211.0317383.4160156.0317383.5283203.0317383.2719727,0,.9121094,0,1.1044922-.5283203.3999023-1.0561523.5439453-4.1616211.5439453-5.3300781,0-.2558594,0-.2880859-.0317383-.5600586h-3.5854492c-.0483398.9921875-.2084961,1.96875-.4643555,2.9130859-.7363281,2.7211914-2.7050781,4.3217773-5.5063477,5.0258789l-.0317383-.1279297c4.081543-1.8886719,4.9296875-4.8178711,5.0581055-7.8110352h-.2724609c-.5600586,0-1.456543.0800781-2.0649414.1918945l-.3676758-.6879883c1.2001953.0957031,2.3525391.1118164,2.6567383.1118164h4.4819336l.3681641-.3359375c.1118164-.0961914.1601562-.144043.2402344-.144043s.1279297.0478516.2080078.1279297l.5761719.6083984c.0478516.0478516.1279297.144043.1279297.2236328,0,.0961914-.0478516.1445312-.1601562.2241211Zm2.5131836.1123047c-2.3530273-1.0566406-3.9697266-3.2651367-4.8657227-5.90625h-1.7128906c-.2563477,0-.6245117.0317383-.8803711.0957031l-.1601562-.527832c.2880859.015625.8964844.0478516,1.1367188.0478516h1.5205078l.3681641-.4003906c.1601562-.1757812.2241211-.1757812.2880859-.1757812.1118164,0,.2241211.0957031.2719727.1601562l.5600586.527832c.0644531.0639648.128418.128418.128418.2402344,0,.3041992-.4482422.3681641-1.0727539.4321289.9443359,2.5771484,4.0498047,4.2900391,5.9384766,4.3540039v.1279297c-.8164062.1918945-1.1845703.6401367-1.5205078,1.0244141Z"/>
          <path class="cls-3" d="m229.418457,86.069298h-2.7529297c-.4960938,0-1.4086914.0478516-2.0649414.1762695l-.3681641-.6884766c.8803711.0800781,1.7607422.1279297,2.6572266.1279297h1.3603516l.2402344-.3520508c.0478516-.0800781.144043-.2402344.2558594-.2402344.0800781,0,.2241211.1123047.2724609.144043l.4799805.4165039c.0800781.0639648.1601562.144043.1601562.2397461,0,.144043-.1279297.1762695-.2402344.1762695Zm-.6879883,4.1616211h-1.3925781c-.512207,0-1.4086914.0478516-2.0649414.1762695l-.3842773-.6884766c1.3603516.1123047,2.4331055.1279297,2.769043.1279297l.2880859-.3359375c.1123047-.1279297.1762695-.2080078.2563477-.2080078.0957031,0,.1918945.0961914.2719727.1601562l.3520508.3359375c.0639648.0639648.144043.1762695.144043.2563477,0,.144043-.1118164.1757812-.2397461.1757812Zm-.0322266,2.1450195c0,.3359375,0,1.8085938.0161133,2.112793,0,.1918945.0639648,1.0722656.0639648,1.2485352,0,.4160156-.3203125.5922852-.6083984.5922852s-.2719727-.0800781-.2558594-.7363281h-2.0649414c.0322266.2080078.0322266.7841797-.0161133.9121094-.0957031.2563477-.4482422.3842773-.6240234.3842773-.2402344,0-.2563477-.2241211-.2563477-.3359375,0-.128418.0483398-.7045898.0483398-.8164062.0317383-.5600586.015625-.9443359.015625-1.3447266,0-.8481445-.015625-2.3686523-.0957031-3.1850586l.9760742.512207h1.9047852l.2563477-.3041992c.0800781-.0800781.1279297-.1601562.2397461-.1601562.0800781,0,.1601562.0800781.2402344.144043l.4482422.3681641c.0639648.0478516.1601562.1279297.1601562.2080078,0,.1601562-.1918945.2563477-.4482422.4003906Zm.0800781-8.4194336h-1.3764648c-.512207,0-1.4086914.0639648-2.0649414.1918945l-.3842773-.7041016c1.456543.1279297,2.5771484.1279297,2.7211914.1279297l.2563477-.3359375c.0957031-.128418.159668-.1923828.2397461-.1923828.0961914,0,.1923828.0800781.2724609.144043l.4160156.3525391c.0961914.0795898.1601562.144043.1601562.2558594,0,.144043-.128418.1601562-.2402344.1601562Zm-.0478516,4.1293945h-1.3447266c-.4960938,0-1.3925781.0644531-2.0488281.1923828l-.3842773-.7045898c.8164062.0800781,1.9208984.128418,2.6411133.128418l.3041992-.3364258c.1279297-.1279297.1601562-.2080078.2402344-.2080078.0957031,0,.1757812.0800781.2880859.1762695l.3842773.3359375c.144043.1279297.159668.1918945.159668.2402344,0,.1601562-.1279297.1757812-.2397461.1757812Zm-.8164062,4.0180664h-2.0810547v3.1049805h2.0810547v-3.1049805Zm11.2685547,3.7612305c-.6245117.0639648-1.0883789.5922852-1.2485352.7685547-1.7128906-.6884766-3.3774414-2.7373047-3.7456055-4.7700195h-.5761719c-.1601562.2080078-.3681641.4482422-.9282227.9121094v2.5454102c.9443359-.2885742,1.4082031-.4326172,2.0327148-.65625l.0957031.1118164c-.6079102.4160156-2.5766602,1.4248047-3.5532227,1.8085938-.0322266.144043-.1279297.4482422-.2880859.4482422-.0639648,0-.0961914-.0161133-.144043-.0961914l-.7202148-1.0722656c.512207-.0478516,1.2963867-.2080078,1.8408203-.3520508v-2.1450195c-.8803711.65625-1.809082,1.2485352-2.8491211,1.6166992l-.0483398-.1279297c.8325195-.4160156,2.5292969-1.9370117,3.3613281-2.9931641h-.4799805c-.4960938,0-1.3925781.0639648-2.0649414.1918945l-.3842773-.6879883c1.2807617.0957031,2.3051758.1118164,2.8334961.1118164.015625-.2080078,0-1.2163086,0-1.4404297-.7524414.0478516-.9448242.0800781-1.2807617.144043l-.3842773-.6884766c.800293.0639648,1.5688477.0961914,1.6650391.0961914,0-.1762695,0-1.0722656-.0161274-1.2646484-.1122905,0-1.0243999.0483398-1.7289897.1762695l-.3837891-.6884766c.7041016.0639648,1.4243164.0961914,2.1127788.1123047,0-.5444336-.0160991-.6083984-.1122905-1.1845703l1.152832.2719727c.0957031.0161133.1918945.0639648.1918945.1601562,0,.0800781-.0322266.144043-.1123047.2241211-.0478516.0478516-.3037109.2402344-.3676758.2880859v.2558594h1.9526367c-.0161133-.65625-.0639648-.9121094-.1601562-1.2802734l1.1367188.2558594c.0795898.0161133.2080078.0483398.2080078.1923828,0,.0800781-.0161133.1601562-.4321289.5283203-.0161133.0478516-.0161133.2558594-.0161133.3037109h1.3442383l.2241211-.3198242c.0639648-.0961914.144043-.2080078.2563477-.2080078.0961914,0,.1918945.0800781.2558594.144043l.3681641.3520508c.0800781.0639648.1601562.144043.1601562.2402344,0,.159668-.1757812.1757812-.2402344.1757812h-2.3847656c-.0161133.3681641-.0161133.5761719,0,1.2963867h1.2485352l.2080078-.2558594c.144043-.1918945.2080078-.1918945.2563477-.1918945.0957031,0,.2397461.1118164.3198242.1757812l.3203125.2402344c.0800781.0478516.1601562.144043.1601562.2402344,0,.159668-.1601562.1757812-.2402344.1757812h-2.2729492c.0161133.2080078.0322266,1.2485352.0322266,1.4726562h1.6005859l.2880859-.3999023c.0478516-.0644531.144043-.1923828.2397461-.1923828.0961914,0,.2241211.1123047.2885742.1601562l.4799805.4003906c.0639648.0639648.1601562.144043.1601562.2397461,0,.1762695-.1601562.1762695-.2402344.1762695h-4.1616211c.2558594.7363281.5922852,1.2802734,1.0083008,1.7768555.3041992-.2084961,1.2167969-.8803711,1.4887695-1.5048828l.9443359.7202148c.0478516.0483398.1279297.1123047.1279297.2080078,0,.2241211-.3198242.2241211-.4160156.2241211s-.144043-.015625-.2719727-.0478516c-.6245117.1762695-.8007812.2402344-1.7451172.5444336.5283203.5917969,1.96875,1.8564453,3.6816406,1.984375l-.0478516.0961914Zm-6.4829102-9.7158203c-.0800781,0-.3999165-.0478516-.4638672-.0639648-.7524414.4960938-1.7929688,1.0405273-2.8813477,1.2324219l-.0478516-.0961914c1.2163086-.65625,2.3369141-1.5527344,2.6889648-2.112793l.8481445.6723633c.0644531.0478516.0961914.1118164.0961914.1918945,0,.1601562-.1601562.1762695-.2402344.1762695Zm5.5063477-1.3925781h-5.8583984c-.512207,0-1.4086914.0639648-2.0649414.1918945l-.3681641-.6879883c.8803711.0639648,1.7607422.1118164,2.6572266.1118164h1.0405273c-.0322266-1.1201172-.1279297-1.4882812-.2719727-1.8085938l1.328125.2880859c.1123047.0161133.2402344.0478516.2402344.2241211,0,.1918945-.1118164.2558594-.4799805.4321289v.8642578h2.4970703l.3999023-.4638672c.1601562-.1762695.1762695-.1923828.2563477-.1923828.1118164,0,.2080078.0961914.2880859.1762695l.4321289.4482422c.0639648.0800781.144043.144043.144043.2558594,0,.144043-.144043.1601562-.2402344.1601562Zm-3.2011719,3.5693359h-1.9526367v1.2807617c.1118164.015625.1918945.015625.2719727.015625h1.6806641c.0161133-.527832,0-1.0400391,0-1.2963867Zm-1.9526367,1.6806641v1.4726562h1.9526367c0-.2080078.0161133-1.2485352.0161133-1.4726562h-1.96875Zm4.5776367-3.0732422c-.3041992,0-.4799805-.1601562-.8481445-.512207-.2724609-.2402344-1.0244141-.7524414-1.5209961-.9282227l.0322266-.144043c.8964844.1118164,2.7373047.3520508,2.7373047,1.168457,0,.1918945-.128418.4160156-.4003906.4160156Z"/>
        </g>
        <g>
          <g>
            <path class="cls-1" d="m88.0711902,37.4648203h2.4406856c.7891339,0,1.8011174.1319109,1.8011174,1.0756071v8.4882224s-2.7454798,1.0076997-7.7051314,1.0076997c-4.9569867,0-11.5838461-2.7294905-11.5838461-10.2893864,0-7.5552324,6.9133326-10.4962468,12.019552-10.4962468,2.3051104,0,5.178837.1359082,5.178837,1.4293683v2.5236295c-1.9400236-1.5829313-2.7274919-1.876447-5.6751685-1.876447-2.9596685,0-8.2527617,1.9367396-8.2527617,8.2484782,0,6.279094,7.0972085,10.0285625,13.0062192,7.655498v-4.8181273c0-1.0106041-.079946-2.9482959-1.2295033-2.9482959Z"/>
            <path class="cls-1" d="m125.1364998,47.5220302h6.254111c-1.7228369-.6472297-2.4406856-2.7268256-3.0199611-4.2421359-.5822736-1.5046508-5.1108828-12.5165494-5.6042164-14.0281955-.5143194-1.5076488-1.2218418-1.5076488-1.8117768-1.5076488h-3.5809158c1.7195058.5786094.7721454,1.8011173.4856721,2.6624886-.2821429.8574682-6.3220651,15.8323579-6.3220651,15.8323579-2.0909217-.5752783-7.3553675-8.2770784-7.3553675-8.2770784,6.9796212-2.0083108,5.9146735-10.2177681-.9263746-10.2177681h-7.8440376c1.5869286.3577585,1.443692,2.0193033,1.443692,3.3127634v13.5951545c0,1.8660735-.5779431,2.376682-1.5116461,2.8700623h5.7504511c-1.5796002-.7151838-1.1585512-2.3730645-1.1585512-3.1625315v-14.6677637h3.1029051c1.6625442,0,2.8767245,2.0159722,2.8767245,3.3840486,0,2.2161704-1.7331632,3.0849172-3.4483386,3.7284827-1.7334963.6462304-.7934643,2.0869243,0,3.2341498.7888008,1.1545538,3.0879153,4.3986501,4.4666511,5.9826275,1.3620804,1.5832644,2.5869202,1.5009866,3.2311519,1.5009866h5.1785039c-2.0046466-.6395682-.9293726-2.2151711-.6468966-3.0086354.2941348-.7974616,1.5839306-4.1785122,1.5839306-4.1785122h7.7700875s.9396989,2.4406855,1.8011174,4.6098876c.8720779,2.1478832.2065272,2.4376875-.7148507,2.57726Zm-8.063223-9.48926l2.9476766-7.6978028,3.1708593,7.6978028h-6.1185359Z"/>
            <path class="cls-1" d="m188.1549544,47.5220302h6.272432c-1.7378267-.6472297-2.451345-2.7268256-3.0229591-4.2421359-.5719472-1.5046508-5.1122153-12.5165494-5.6115448-14.0281955-.5086566-1.5076488-1.2158458-1.5076488-1.8057809-1.5076488h-3.5902428c1.7364943.5786094.7891339,1.8011173.4963316,2.6624886-.2864733.8574682-6.3327246,15.8323579-6.3327246,15.8323579-.4010626.940032-.9909976.9540226-1.3620804,1.2831337h5.1818349c-2.0156392-.6395682-.9370341-2.2151711-.6502277-3.0086354.2851408-.7974616,1.5899266-4.1785122,1.5899266-4.1785122h7.7670896s.9473604,2.4406855,1.8071133,4.6098876c.8584205,2.1478832.2081928,2.4376875-.7391676,2.57726Zm-8.0475669-9.48926l2.9476766-7.6978028,3.1631978,7.6978028h-6.1108744Z"/>
            <path class="cls-1" d="m166.0225632,47.890115c.7178487-.6502277,1.3680764-1.1579316,1.3680764-3.4530488v-13.5984389c0-1.075274-.082944-2.3087746-1.3680764-2.7368189h5.5286008c-.5716141.5103221-1.2551526,1.1498903-1.2551526,2.5975796v13.7376782c0,1.226552-.2504975,3.0283355,1.3364311,3.4530488h-5.6098793Z"/>
            <path class="cls-1" d="m136.2116893,32.3436113s-.0709521,10.8609537-.0709521,12.093455c0,1.226552.1462346,3.0283355,1.7288328,3.4530488h-5.2571174c.7331717-.6502277,1.2941263-1.1579316,1.2941263-3.4530488,0-2.2974021.1538961-12.5294939.1538961-13.5984389,0-1.075274-.1538961-2.3087746-1.4480224-2.7368189h4.0426041l12.0801777,15.1780858v-12.3656513c0-.7971285.1462346-2.3021124-1.5086481-2.8773907h5.3930257c-.6395682.4930005-1.5915921.7148507-1.5915921,2.801775v17.8516141s-1.5009866.2754807-3.9416722-2.6691979c-2.454343-2.9446786-10.8746582-13.6774323-10.8746582-13.6774323Z"/>
            <path class="cls-2" d="m170.5961421,63.2081064c-15.8223179-13.3380415-21.8788957-29.0347305-.2351746-50.4532697.678875-.6785419,1.3214412-.2751476.7888008.3321091-9.4852629,10.8472958-20.0674519,28.1942979-.2171867,49.4602735.3077922.3214496.1932029,1.028972-.3364395.6608871Z"/>
          </g>
          <g>
            <path class="cls-3" d="m226.5873125,33.8031847h-9.2631836v4.2246094h4.378418l.9023438-.9238281c.2641602-.2641602.3081055-.2641602.3740234-.2641602.0878906,0,.1098633.0219727.3959961.2416992l1.1000977.9023438c.1103516.0878906.2202148.1762695.2202148.3520508,0,.1982422-.1762695.2202148-.3300781.2202148h-12.0576172c-.7705078,0-1.9804688.0878906-2.8164062.2636719l-.5283203-.9458008c1.6503906.1318359,3.2563477.1538086,3.652832.1538086h3.4980469v-4.2246094h-5.7426758c-.7700195,0-1.9799805.0878906-2.8164062.2421875l-.527832-.9462891c1.6499023.1323242,3.2563477.1762695,3.6523438.1762695h5.4345703c0-.9243164-.0219727-2.5966797-.1538086-3.4545898-.065918-.3740234-.1762695-.550293-.3520508-.8359375l2.2441406.7041016c.1982422.065918.3081055.1538086.3081055.3076172,0,.1762695-.0219727.1982422-.8359375.7260742.0219727.3964844,0,2.1787109,0,2.5527344h6.4248047l.9462891-1.078125c.2197266-.2421875.2416992-.2641602.3520508-.2641602.1098633,0,.2197266.0878906.3959961.2421875l1.2543945,1.0561523c.1098633.0878906.2197266.1757812.2197266.3295898,0,.1982422-.1977539.2421875-.3300781.2421875Zm-18.8564453,13.9501953c-.418457,0-.6381836-.3520508-.6381836-.7480469,0-.3081055.0439453-.4179688.7919922-1.3642578.550293-.6821289.9902344-1.2543945,1.3862305-2.706543.1098633-.3520508.1098633-.527832.1098633-.8139648l.1103516-.0219727c.065918.3520508.1977539.9018555.1977539,1.6943359,0,1.6279297-.59375,3.9604492-1.9580078,3.9604492Zm14.1040039,0c-.550293.3520508-1.2324219.6821289-3.8286133.6821289-.7919922,0-3.5424805-.0439453-4.1586914-.1982422-1.078125-.2641602-1.078125-1.3642578-1.078125-2.6401367,0-.3959961.0439453-2.1123047.0439453-2.4643555,0-.9682617-.0439453-1.4741211-.1977539-2.8383789l1.6938477.527832c.0219727,0,.3740234.1323242.3740234.3740234,0,.1323242-.065918.2202148-.1538086.3081055-.065918.0878906-.4619141.2861328-.5283203.3520508,0,.6821289-.0219727,3.71875,0,4.3344727,0,.5942383.1762695.8144531.7485352.9462891.3740234.0878906,2.4863281.1318359,2.9702148.1318359,1.6503906,0,2.4423828-.1318359,2.8603516-.9458008.3740234-.7480469.7260742-2.2666016.7919922-2.9926758l.1103516-.0219727c.065918.4624023.2416992,2.6845703.3520508,2.9262695.0219727.0883789.065918.1323242.3740234.3525391.065918.0439453.2416992.1757812.2416992.3740234,0,.2856445-.3740234.6376953-.6157227.7919922Zm-3.6308594-4.5327148c-.527832,0-.6821289-.3959961-.9238281-1.078125-.0439453-.0878906-.3520508-.7041016-.7260742-1.3203125-.4624023-.7260742-.8803711-.9243164-1.078125-1.012207l.065918-.1757812c1.4082031.3300781,3.4326172,1.2978516,3.4326172,2.684082,0,.7924805-.550293.9023438-.7705078.9023438Zm7.965332,3.6523438c-.6601562,0-.8139648-.5717773-1.012207-1.4521484-.2641602-1.144043-1.0341797-2.5742188-1.9799805-3.2783203l.065918-.1323242c1.4741211.3964844,3.762207,2.3544922,3.762207,3.8730469,0,.527832-.3076172.9897461-.8359375.9897461Z"/>
            <path class="cls-3" d="m249.5336016,45.663048c-1.7382812-1.2324219-3.168457-2.3984375-4.7749023-4.6645508-1.2763672-1.7602539-2.3100586-3.6967773-2.8823242-5.7871094h-.1762695c0,3.4106445.0444336,6.7988281.1542969,10.2094727.0219727.4179688.1318359,2.2885742.1318359,2.6186523,0,.7700195-.7700195,1.0561523-1.0561523,1.0561523-.6162109,0-.6162109-.3959961-.6162109-.550293,0-.3081055.1542969-1.6723633.1542969-1.9360352.0878906-1.9365234.065918-2.7504883.1318359-10.121582-.7041016,1.3642578-1.8261719,3.5864258-4.4882812,6.2265625-1.7607422,1.7607422-3.4545898,2.7724609-4.5107422,3.3886719l-.0883789-.1757812c3.6967773-3.168457,6.7993164-7.1074219,8.3613281-10.7158203h-4.7963867c-.7705078,0-2.0024414.0878906-2.8388672.2421875l-.5058594-.9462891c1.6503906.1323242,3.234375.1762695,3.6523438.1762695h5.2148438c0-2.3544922-.2197266-4.0927734-.2636719-4.4228516-.0444336-.3300781-.1103516-.527832-.3745117-1.2983398l2.3105469.5722656c.1982422.0439453.2421875.1542969.2421875.2641602,0,.2861328-.1103516.3520508-.7700195.7480469-.0444336.6601562-.0224609,3.5424805-.0444336,4.1367188h6.2490234l.8803711-1.0561523c.065918-.0883789.2416992-.2641602.3520508-.2641602.1318359,0,.2856445.1538086.4179688.2641602l1.1000977,1.012207c.1318359.1098633.2202148.2197266.2202148.3295898,0,.1982422-.1982422.2421875-.3300781.2421875h-8.4492188c.4838867,1.1220703,2.3759766,4.796875,5.6108398,6.9970703.2416992.1762695,2.5083008,1.7163086,4.2246094,2.0244141v.1757812c-1.3642578.0664062-1.8046875.550293-2.4423828,1.2543945Z"/>
          </g>
        </g>
      </g>
      <rect class="cls-4" width="325" height="110"/>
    </g>
  </g>
</svg>