<?xml version="1.0" encoding="UTF-8"?>
<svg id="_レイヤー_2" data-name="レイヤー 2" xmlns="http://www.w3.org/2000/svg" viewBox="0 0 232.5 191.5">
  <defs>
    <style>
      .cls-1 {
        fill: #092237;
        stroke-width: 0px;
      }

      .cls-2 {
        fill: none;
        stroke: #092237;
        stroke-miterlimit: 10;
        stroke-width: .5px;
      }
    </style>
  </defs>
  <g id="layout">
    <g>
      <rect class="cls-2" x=".25" y=".25" width="232" height="191"/>
      <g>
        <path class="cls-1" d="m41.2109375,29.9453125c-2.5078125,4.90625-4.421875,6.953125-6.8427734,8.5810547l-.0878906-.1318359c2.3105469-2.4208984,4.6201172-7.4814453,4.9951172-8.7792969.1318359-.484375.1542969-.8583984.1542969-1.5849609l2.2441406.9462891c.2851562.1103516.4394531.1757812.4394531.4179688,0,.3300781-.59375.484375-.9023438.5507812Zm5.0175781-5.9189453c-.1982422.1533203-.2646484.2197266-.484375.3740234-.0214844.8798828-.0214844,1.1660156-.0214844,3.4765625,0,1.8261719.0654297,9.8789062.0654297,11.5292969,0,.8798828,0,2.4423828-2.5742188,2.7060547-.2646484-1.3857422-1.9580078-2.0458984-2.4873047-2.265625v-.1767578c.5507812.0449219,2.2675781.1328125,2.7285156.1328125.7050781,0,.7050781-.3300781.7050781-.5722656,0-3.0146484-.0224609-9.4833984-.0664062-12.9384766-.0439453-2.3535156-.0664062-2.7060547-.3740234-3.6523438l2.3105469.6386719c.2197266.0654297.4619141.1533203.4619141.3740234,0,.109375-.0214844.1972656-.2636719.3740234Zm7.2832031,12.8271484c-.7480469,0-.9248047-.4179688-1.5625-1.9794922-1.0117188-2.4863281-3.1025391-4.796875-4.3349609-5.7431641l.0439453-.1318359c3.3671875,1.2978516,6.8652344,4.2685547,6.8652344,6.6884766,0,1.0341797-.6816406,1.1660156-1.0117188,1.1660156Z"/>
        <path class="cls-1" d="m77.1835938,36.0839844h-9.0439453v3.8066406c0,1.3203125-.6601562,2.3759766-2.6396484,2.7285156-.1328125-.7929688-.4628906-1.3642578-2.2011719-2.2226562v-.1757812c.5058594.0439453,1.8261719.109375,2.1787109.109375.9677734,0,1.1884766-.0654297,1.1884766-.8359375v-3.4101562h-6.1835938c-.5498047,0-1.6054688.0214844-2.5957031.1982422l-.4179688-.8808594c1.4960938.1328125,3.0585938.1542969,3.3662109.1542969h5.8310547c0-1.1445312-.0224609-1.4960938-.375-2.5966797l1.6289062.4628906c.3085938-.3525391,1.7167969-1.9150391,2.0019531-2.2226562h-5.5449219c-.2851562,0-1.5175781,0-2.5742188.1982422l-.4394531-.8808594c1.4511719.1328125,2.9707031.1542969,3.3662109.1542969h5.390625l.8359375-.6816406c.1982422-.1542969.3076172-.2207031.4189453-.2207031.109375,0,.21875.0664062.3955078.2207031l1.2539062,1.2099609c.0878906.0664062.1318359.2421875.1318359.3300781,0,.2861328-.3515625.3955078-.7480469.3955078h-.9902344c-.2851562.1982422-.4394531.2861328-1.8476562.9902344-.2861328.1542969-.375.1982422-1.2324219.6386719.1318359.0654297.1972656.1533203.1972656.2636719,0,.1542969-.1533203.3525391-.3955078.59375v1.1445312h5.8974609l.9902344-1.0996094c.21875-.2421875.3076172-.3300781.4179688-.3300781.109375,0,.2636719.109375.5058594.3076172l1.3417969,1.078125c.1103516.0878906.2207031.2421875.2207031.3300781,0,.1318359-.1103516.2421875-.3300781.2421875Zm-.1757812-7.2607422c-.1992188.0878906-.7265625.1757812-1.2773438.2197266-.2197266.1757812-.3076172.2636719-1.0117188.9023438-.2421875.2197266-.7480469.5498047-1.1445312.8134766l-.1542969-.0654297c.3525391-.7041016.7265625-1.9589844.8144531-2.6630859h-13.5097656c.0214844,1.4970703-.6601562,3.8945312-2.1777344,3.8945312-.6386719,0-.9023438-.4394531-.9023438-.8574219,0-.5507812.2421875-.7705078,1.2099609-1.7607422,1.0126953-1.0341797,1.2763672-1.8261719,1.4736328-2.75h.1542969c.1103516.3300781.1757812.5722656.1982422.9462891h8.9326172c.8369141-1.3203125,1.5625-3.0146484,1.7617188-3.8945312.1533203-.6162109.1308594-.8583984.109375-1.1669922l2.15625,1.0566406c.1757812.0878906.2861328.1757812.2861328.3076172,0,.1767578-.0888672.2421875-.2646484.3085938-.1533203.0654297-.4833984.1542969-.703125.1982422-.9023438,1.2099609-2.1347656,2.5742188-2.8613281,3.1904297h4.09375l.6591797-.6162109c.1982422-.1757812.3076172-.2421875.4189453-.2421875.1308594,0,.2412109.0664062.3955078.2197266l1.3427734,1.1884766c.109375.1103516.2412109.2421875.2412109.3740234,0,.1982422-.0439453.3076172-.2412109.3964844Zm-13.8408203-2.1787109c-.6162109,0-.8134766-.4179688-1.078125-1.2324219-.1982422-.59375-.5283203-1.6279297-1.4082031-2.3759766l.0654297-.1318359c1.6728516.3740234,3.3232422,1.5615234,3.3232422,2.8164062,0,.5498047-.3525391.9238281-.9023438.9238281Zm4.4228516-.2421875c-.6386719,0-.7695312-.3740234-1.1445312-1.3857422-.2421875-.6162109-.4619141-1.2324219-1.4082031-2.2666016l.0878906-.1318359c1.9365234.5058594,3.3447266,1.8037109,3.3447266,2.7939453,0,.2421875-.0878906.9902344-.8798828.9902344Z"/>
        <path class="cls-1" d="m91.6142578,29.5488281c-.4833984.4179688-2.0029297,1.6943359-3.7412109,2.4648438.1767578.2197266.3300781.5273438.3300781.8798828,0,.5058594-.4609375.9462891-.8359375.9462891-.484375,0-.6152344-.2861328-1.0996094-1.4082031-.2207031-.5068359-.6162109-1.1005859-.9902344-1.4082031,0,1.6054688.0878906,8.7128906.0878906,10.1650391,0,.3300781,0,1.2763672-1.0341797,1.2763672-.4619141,0-.6601562-.2636719-.6601562-.7041016,0-.6376953.1103516-1.6503906.1318359-2.2666016.0878906-1.7158203.0878906-2.3320312.1757812-7.8769531-1.4082031,3.1679688-3.2998047,4.9287109-4.3779297,5.9404297l-.1767578-.0878906c1.6953125-2.4863281,3.4765625-5.5449219,4.2910156-9.1748047h-.59375c-.3964844,0-1.5410156,0-2.5966797.1982422l-.4404297-.8808594c1.3652344.1103516,2.7285156.1542969,3.3886719.1542969h.5507812c0-1.4306641-.0449219-4.2246094-.5722656-5.3691406l2.3105469.6601562c.1318359.0439453.2851562.1103516.2851562.2861328,0,.2421875-.3515625.4179688-.7255859.6162109-.0224609.6162109-.0439453,3.2568359-.0654297,3.8066406h.8359375l.5273438-.7480469c.1103516-.1542969.2207031-.2861328.3300781-.2861328.1103516,0,.3085938.1542969.4179688.2421875l.8808594.7480469c.1318359.1103516.2197266.1982422.2197266.3300781,0,.1982422-.1767578.2421875-.3300781.2421875h-2.8818359v2.3544922c.7255859.1318359,1.6933594.4833984,2.4199219,1.1435547,1.0117188-.9902344,2.15625-2.1123047,3.1464844-3.9824219l1.5400391,1.1220703c.1318359.0878906.1767578.1982422.1767578.3085938,0,.3076172-.2646484.3740234-.9248047.3076172Zm6.8427734,12.6962891c-1.5625-.6386719-4.0263672-1.8486328-5.7871094-4.203125-1.8261719,1.8925781-4.1367188,3.3447266-6.7324219,3.8066406v-.1982422c1.8701172-.7919922,4.421875-2.7060547,6.0292969-4.7080078-1.2988281-2.3769531-1.5185547-4.9287109-1.5849609-5.9189453l.2197266.0214844c.4404297,1.7382812,1.0566406,3.4326172,2.046875,4.9287109,1.0117188-1.5839844,1.9355469-3.3222656,1.8476562-5.1923828l2.046875,1.0341797c.1318359.0654297.3515625.1982422.3515625.3740234s-.1757812.3300781-.8798828.5498047c-.1103516.2197266-.7705078,1.6064453-1.1660156,2.3984375-.2861328.59375-.6826172,1.2099609-1.3427734,1.9804688,2.2675781,2.4638672,5.9414062,3.2119141,7.1074219,3.234375v.1542969c-1.0332031.3076172-1.8476562,1.1875-2.15625,1.7382812Zm.8144531-15.3583984h-8.140625c-.5507812,0-1.6074219.0214844-2.5976562.1982422l-.4179688-.8583984c1.3867188.109375,2.7509766.1318359,3.3671875.1318359h.9677734c0-.9023438-.0439453-2.7939453-.4404297-3.8720703l2.2441406.5273438c.1992188.0439453.4189453.1542969.4189453.3300781,0,.2646484-.5498047.5283203-.7255859.6162109v2.3984375h2.7929688l.7929688-.9677734c.109375-.1328125.2421875-.2861328.3515625-.2861328.1328125,0,.2871094.1533203.4179688.2636719l1.1005859.9462891c.0878906.0878906.1982422.2421875.1982422.3515625,0,.1982422-.1757812.2207031-.3300781.2207031Zm-1.0341797,4.9501953c-.3955078,0-.484375-.1318359-1.2763672-1.2539062-.6601562-.9238281-1.3203125-1.8701172-2.3320312-2.7285156l.0439453-.0878906c2.4423828.6376953,4.4228516,1.7822266,4.4228516,3.1689453,0,.5058594-.375.9013672-.8583984.9013672Z"/>
        <path class="cls-1" d="m112.5136719,34.1699219c-.96875,0-1.7597656-.7929688-1.7597656-1.7607422,0-.9902344.7910156-1.7597656,1.7597656-1.7597656.9462891,0,1.7597656.7480469,1.7597656,1.7597656,0,.9902344-.8134766,1.7607422-1.7597656,1.7607422Z"/>
        <path class="cls-1" d="m134.3164062,28.8671875c.1542969.0654297.2421875.1972656.2421875.3515625,0,.2636719-.1767578.3525391-.9023438.5722656-1.1230469,1.7382812-4.2910156,6.3144531-6.0507812,8.2509766.7695312-.0878906,3.2773438-.484375,4.90625-.8798828-.2421875-.5058594-1.0117188-1.7382812-1.6289062-2.2226562l.1113281-.1757812c.9453125.4179688,4.0039062,1.7597656,4.0039062,3.8505859,0,.484375-.4179688.9677734-.9462891.9677734-.4179688,0-.6591797-.1972656-.9013672-.9238281-.1113281-.3300781-.3300781-.8359375-.4628906-1.1220703-.9238281.4619141-1.078125.5058594-5.2363281,2.0244141-.3300781.109375-.5283203.1982422-.7929688.3076172-.21875.4404297-.3955078.7041016-.5488281.7041016-.1992188,0-.3525391-.2861328-.3964844-.4179688l-.9238281-2.2226562c.3300781.1103516.6376953.2207031,1.4736328.2207031.2646484,0,.5068359-.0224609.7919922-.0439453.3515625-.5283203,2.3769531-3.8066406,4.1152344-7.4150391.6376953-1.3427734.8144531-1.8486328.9902344-2.9267578l2.15625,1.1005859Zm-8.8242188-1.4970703c.7705078.1542969,1.5849609.4404297,2.4863281,1.0341797,1.2109375-2.1777344,1.9804688-4.4443359,2.15625-5.2587891.0664062-.2636719.0664062-.3515625.1328125-1.078125l2.0898438,1.1230469c.1328125.0654297.2421875.1972656.2421875.3291016,0,.3300781-.6152344.4404297-.7919922.484375-.8134766,1.3867188-2.7724609,3.8945312-3.4541016,4.6425781.4609375.3740234,1.5400391,1.2109375,1.5400391,2.4648438,0,.4833984-.3300781.9462891-.9023438.9462891-.6601562,0-.7919922-.3300781-1.2978516-1.4082031-.1542969-.3525391-.96875-2.0683594-2.2890625-3.1025391l.0878906-.1767578Zm6.9755859,14.8525391c4.4667969-3.4326172,5.2148438-7.9648438,5.4560547-14.2363281h-.6367188c-.2207031,0-1.5849609,0-2.5976562.1982422l-.4394531-.8798828c1.2539062.1103516,2.5527344.1542969,3.6962891.1542969,0-.5283203.0664062-3.6972656-.4619141-5.1269531l2.15625.6162109c.2636719.0654297.3740234.2197266.3740234.3300781,0,.1318359-.0654297.2636719-.5712891.5712891,0,1.078125,0,2.0683594-.0224609,3.609375h2.8388672l.59375-.6826172c.0429688-.0439453.1972656-.1757812.3300781-.1757812.0878906,0,.2421875.0439453.3515625.1318359l.96875.6826172c.1308594.0878906.2851562.2851562.2851562.4179688,0,.2412109-.3076172.4833984-.7910156.7255859.0654297,2.8388672.21875,9.6591797-1.3427734,12.1679688-.4619141.7705078-1.2978516,1.5185547-2.9707031,1.8261719-.3300781-1.4521484-1.1884766-2.0458984-1.9140625-2.4423828l.0878906-.1542969c.7255859.2207031,2.0244141.3085938,2.1337891.3085938.8369141,0,1.1005859-.2861328,1.3203125-.6162109,1.1005859-1.671875,1.2109375-5.6767578,1.2109375-8.6689453,0-1.3642578-.0449219-2.1787109-.0664062-2.9931641h-3.0361328c-.1542969,7.4589844-1.5400391,11.5957031-6.8427734,14.4345703l-.1103516-.1982422Z"/>
        <path class="cls-1" d="m152.9492188,28.6689453l.5273438-.7265625c.0888672-.1318359.2207031-.2861328.375-.2861328.1318359,0,.2197266.1103516.3740234.2421875l.7480469.7265625c.1318359.109375.2197266.1982422.2197266.3300781,0,.2197266-.1972656.2421875-.3515625.2421875h-2.3544922c0,1.1660156,0,1.4736328-.0224609,2.4863281,1.2763672.3955078,2.8388672,1.3642578,2.8388672,2.4638672,0,.5058594-.3300781.8359375-.7705078.8359375-.6376953,0-.7919922-.5273438-1.0566406-1.3417969-.3291016-1.0341797-.8789062-1.5625-1.0117188-1.6728516,0,1.8710938-.0214844,9.3955078-.0214844,9.5498047-.0449219.6826172-.5058594.9902344-1.078125.9902344-.4179688,0-.6386719-.2636719-.6386719-.6376953,0-.2207031.1328125-1.1669922.1328125-1.3642578.1542969-2.7724609.2197266-6.7773438.2197266-7.4589844v-.3525391c-1.0341797,2.0019531-2.15625,3.3007812-3.9833984,4.7304688l-.109375-.0878906c1.4960938-1.8476562,3.3671875-5.6767578,3.9609375-8.140625h-.4628906c-.3730469,0-1.5175781,0-2.5957031.1972656l-.4404297-.8798828c1.2099609.1103516,2.4423828.1542969,3.6533203.1542969v-3.4765625c-.7265625.1542969-2.2226562.4404297-3.4765625.484375v-.1542969c2.6396484-.7480469,4.6640625-1.9580078,5.4560547-2.4208984.2646484-.1533203.484375-.4394531.5947266-.6152344l1.5390625,1.4082031c.0664062.0654297.1113281.1533203.1113281.2636719,0,.2197266-.2646484.2636719-.375.2636719-.109375,0-.4179688-.0439453-.59375-.0654297-.3964844.1318359-.8359375.2636719-1.8261719.5058594,0,.6162109-.0439453,3.2568359-.0439453,3.8066406h.4619141Zm8.8232422-.5947266v3.6972656h1.7158203l.6386719-.8144531c.0878906-.1103516.2197266-.2636719.3300781-.2636719.109375,0,.3085938.1318359.3964844.2197266l.9013672.8144531c.1318359.109375.2197266.1972656.2197266.3300781,0,.2197266-.1533203.2412109-.3515625.2412109h-3.8505859v3.6748047h1.6728516l.703125-.8134766c.1103516-.1328125.2207031-.2861328.3300781-.2861328.1328125,0,.2207031.109375.3964844.2412109l.9902344.8144531c.109375.0878906.2197266.2197266.2197266.3525391,0,.2197266-.1982422.2197266-.3300781.2197266h-3.9824219v3.828125h2.6630859l.8574219-1.0996094c.1318359-.1757812.2421875-.2861328.3300781-.2861328.1318359,0,.3300781.1542969.4179688.2421875l1.078125,1.0996094c.0878906.1103516.2207031.1982422.2207031.3525391,0,.2197266-.2207031.2197266-.3300781.2197266h-9.2851562c.0429688.5722656.109375,1.5185547-1.0126953,1.5185547-.6162109,0-.6162109-.4179688-.6162109-.6601562,0-.2646484.0664062-1.4960938.0664062-1.7607422.0429688-1.4960938.0654297-5.0820312.0878906-9.9228516-.8583984,1.2324219-1.3652344,1.7822266-1.671875,2.1337891l-.1328125-.0654297c.96875-1.8486328,3.125-7.0410156,2.9042969-9.4179688l2.046875.9248047c.1318359.0654297.2421875.1757812.2421875.3076172,0,.2861328-.2871094.3964844-.7265625.5058594-.3300781.8144531-.5722656,1.4082031-1.2988281,3.0810547l.1113281.0439453h2.7714844c.375-.7919922,1.0117188-2.5302734,1.0341797-4.4892578l2.0908203.96875c.1318359.0654297.2421875.1982422.2421875.3076172,0,.1982422-.1757812.2646484-.7480469.4619141-1.0351562,1.4746094-1.6289062,2.2451172-2.2226562,2.7509766h3.1679688l.7705078-.8583984c.1318359-.1542969.2197266-.2636719.3525391-.2636719.0654297,0,.2412109.0878906.3955078.2197266l1.0341797.8583984c.109375.109375.2197266.2197266.2197266.3515625,0,.2197266-.2197266.2197266-.3291016.2197266h-4.7314453Zm-1.4306641,3.6972656v-3.6972656h-2.640625v3.6972656h2.640625Zm0,4.2021484v-3.6748047h-2.640625v3.6748047h2.640625Zm0,4.3564453v-3.828125h-2.640625v3.828125h2.640625Z"/>
        <path class="cls-1" d="m186.6992188,23.8496094l.6376953-.5273438c.1318359-.1103516.2636719-.1982422.3955078-.1982422.0878906,0,.2421875.0878906.3085938.1542969l.9453125.8134766c.1113281.0878906.2421875.2207031.2421875.3525391,0,.2636719-.2421875.4179688-.7255859.7480469-.0224609,1.2099609-.0439453,3.7402344,0,7.7011719,0,1.2763672.0878906,6.9091797.0878906,8.0527344,0,.7265625-.5058594,1.1884766-1.078125,1.1884766-.6826172,0-.6376953-.5058594-.5947266-1.2763672h-13.6630859c.0224609.2646484,0,.6162109-.0224609.7265625-.0664062.4833984-.703125.7480469-1.0996094.7480469-.4628906,0-.5722656-.3085938-.5722656-.6826172,0-.2861328.109375-1.6064453.109375-1.8701172.0664062-1.4736328.0878906-2.5527344.0878906-10.4736328,0-4.0263672-.0429688-5.1269531-.21875-6.3583984l1.8916016.9013672h13.2685547Zm-13.4443359.5283203v15.9521484h13.6630859v-15.9521484h-13.6630859Zm11.3759766,10.6933594c.0654297.0664062.1308594.1542969.1308594.2646484,0,.2861328-.2412109.3300781-.4179688.3300781-.0878906,0-.21875,0-.3955078-.0224609-.7041016.2861328-.9248047.3525391-1.6728516.5947266.9248047.3300781,2.8828125,1.0556641,2.8828125,2.2001953,0,.3955078-.2851562.7255859-.6816406.7255859-.2636719,0-.375-.0654297-1.2324219-1.0117188-.7480469-.8144531-1.7167969-1.6064453-2.6621094-2.1347656,0,.4179688.0664062,2.4648438.0664062,2.6845703,0,.6601562-.6171875.9902344-1.0126953.9902344-.3525391,0-.484375-.3076172-.484375-.6601562,0-.6601562.0888672-3.5419922.0888672-4.1367188-.7050781.8359375-2.6855469,2.7060547-5.5234375,3.6083984l-.0878906-.1318359c1.9140625-1.2763672,3.7841797-2.9042969,5.0166016-4.6425781h-1.2978516c0,.59375-.484375.8359375-.8808594.8359375-.5722656,0-.5722656-.3955078-.5722656-.6376953,0-.1103516.0878906-1.9140625.0878906-2.2666016,0-.6816406-.0214844-1.1445312-.1533203-1.7382812l1.6503906.6601562h4.9951172l.3955078-.3740234c.1103516-.1103516.2197266-.2197266.3076172-.2197266s.2207031.0878906.3085938.1757812l.7695312.6816406c.1103516.0888672.1757812.1982422.1757812.3085938,0,.0878906-.1308594.2197266-.5058594.5498047,0,.2861328.0449219,1.5400391.0449219,1.7822266,0,.4619141-.1757812.5947266-.3525391.7265625l1.0126953.8574219Zm-2.1132812-8.3388672l.4628906-.6601562c.109375-.1757812.2197266-.2636719.3300781-.2636719.0878906,0,.2197266.0654297.4179688.2197266l.7695312.6601562c.1103516.0878906.2421875.1982422.2421875.3300781,0,.1982422-.1972656.2421875-.3515625.2421875h-3.7851562v1.6279297h3.0371094l.6376953-.7480469c.1318359-.1542969.2197266-.2636719.3525391-.2636719.1308594,0,.2636719.0878906.4179688.2197266l.8798828.7480469c.1318359.1103516.2197266.1982422.2197266.3300781,0,.2197266-.1972656.2421875-.3300781.2421875h-9.109375c-.2197266,0-1.5839844,0-2.5957031.1982422l-.4404297-.8808594c1.1220703.1103516,2.2666016.1542969,3.3876953.1542969h2.1572266v-1.6279297h-1.4970703c-.3730469,0-1.5390625,0-2.5957031.1982422l-.4394531-.8808594c1.3632812.1103516,2.9697266.1542969,3.3876953.1542969h1.1445312c-.0439453-.7919922-.2646484-1.5185547-.3964844-1.9580078l2.0458984.5283203c.1328125.0439453.2871094.0878906.2871094.2636719,0,.2421875-.2207031.3740234-.5507812.5722656v.59375h1.9140625Zm.0224609,6.46875v-2.0898438h-5.1923828v2.0898438h5.1923828Zm-1.9580078.5283203c-.0224609.9462891-.0224609,1.5400391-.0224609,2.0683594.3076172.0439453.5947266.0878906,1.2548828.2861328.4394531-.3740234,1.2539062-1.2763672,1.5615234-1.7822266-.5058594.1318359-.8359375-.1103516-.8359375-.5722656h-1.9580078Z"/>
        <path class="cls-1" d="m55.2050781,63.421875c-1.0117188.2636719-1.8046875,1.0556641-2.0898438,2.0683594-4.3125-1.1005859-7.1074219-3.3232422-7.9648438-4.1591797-.4179688.3740234-2.1787109,1.8925781-4.5117188,3.1689453l1.1230469.6376953h6.5566406l.5058594-.484375c.1542969-.1318359.2636719-.2421875.375-.2421875.0878906,0,.21875.0888672.3955078.2207031l1.0126953.7480469c.109375.0654297.21875.1982422.21875.2861328,0,.2421875-.2851562.4394531-.6601562.7041016-.0214844.9238281-.0429688,1.2539062-.0214844,1.9365234,0,.4833984.1542969,2.7939453.1542969,3.0576172,0,.3525391,0,1.3427734-1.078125,1.3427734-.5283203,0-.6162109-.3525391-.6162109-1.0566406h-7.0410156c-.0224609.3740234-.0439453,1.1005859-1.1435547,1.1005859-.5068359,0-.5722656-.2861328-.5722656-.5722656,0-.0224609.0214844-.0664062.0654297-.6376953.0878906-.96875.1318359-3.2792969.1318359-4.6875,0-.6152344,0-1.1435547-.0664062-2.0019531-1.1660156.59375-2.9472656,1.3642578-5.3027344,1.8046875l-.0429688-.1542969c3.5195312-1.4960938,6.7988281-3.5644531,9.5703125-6.1826172-.6601562-.8144531-1.8037109-2.3544922-2.4414062-4.2246094-2.0244141,2.7724609-2.7070312,3.6738281-5.1054688,4.90625l-.1308594-.1542969c2.5517578-2.3974609,4.9941406-6.8427734,5.390625-8.0966797.1308594-.3964844.1308594-.7041016.109375-1.1220703l2.1777344,1.3417969c.1113281.0664062.2421875.2207031.2421875.3525391,0,.1757812-.109375.3515625-.9238281.3740234-.2421875.3300781-.7695312,1.0556641-1.1660156,1.5839844h5.3691406l.9453125-.8144531c.2207031-.1972656.375-.3076172.5058594-.3076172.1113281,0,.2646484.0878906.484375.2861328l1.1660156.9902344c.1113281.0878906.1992188.2421875.1992188.3740234,0,.4394531-.4628906.4833984-1.4306641.5722656-1.1669922,1.4521484-2.6845703,3.3222656-3.6308594,4.2021484,1.4746094,1.1445312,4.2685547,2.5742188,9.2636719,2.7060547l-.0224609.1328125Zm-6.6230469,2.2441406h-6.9960938v5.4570312h6.9960938v-5.4570312Zm-6.6005859-9.8574219c.5498047,1.1435547,1.3857422,2.3759766,2.8818359,3.828125,1.3203125-1.3857422,1.9150391-2.3105469,2.9042969-3.828125h-5.7861328Z"/>
        <path class="cls-1" d="m64.7070312,69.8681641c-2.265625,1.2548828-5.4345703,2.046875-7.4375,2.1787109l-.0214844-.1318359c3.0146484-.9248047,6.0068359-2.9707031,6.6230469-3.8730469l1.6503906,1.1884766c.1972656.1318359.2421875.2197266.2421875.3515625,0,.3525391-.4628906.3525391-1.0566406.2861328Zm10.7158203-15.4023438c0,.4404297.1103516,2.4423828.1103516,2.8603516,0,.5068359-.4628906.8583984-.96875.8583984-.6816406,0-.6816406-.4619141-.6816406-.9462891h-12.8496094c0,.8144531-.9238281.8808594-1.078125.8808594-.5507812,0-.5722656-.3300781-.5722656-.5722656,0-.4179688.109375-2.2890625.109375-2.6845703,0-.9677734-.0878906-1.5839844-.1972656-2.4863281l1.8037109.9677734h12.6513672l.5947266-.59375c.1103516-.1103516.1982422-.1542969.2861328-.1542969.109375,0,.1757812.0439453.3300781.1542969l.9453125.6816406c.1542969.1103516.2646484.2207031.2646484.3525391,0,.1757812-.4619141.484375-.7480469.6816406Zm-11.1123047-.59375h-3.2773438v2.8388672h3.2773438v-2.8388672Zm8.890625,6.2929688c-.0224609.3740234-.0449219.9023438-.0449219,1.671875,0,2.046875.1103516,4.2470703.1757812,5.390625.0224609.4628906.0224609.5283203.0224609.5722656,0,.7265625-.7919922.9023438-1.1005859.9023438-.6152344,0-.59375-.3740234-.5722656-.8798828h-8.8447266c.0224609.6376953-.8798828.8134766-1.1660156.8134766-.1982422,0-.5068359-.0878906-.5068359-.5273438,0-.1103516.0234375-.4179688.0449219-.6386719.109375-1.3417969.109375-3.6523438.109375-4.6865234,0-3.0146484-.0429688-3.4101562-.2636719-4.5322266l2.0019531.9677734h8.3398438l.6152344-.59375c.1542969-.1542969.2421875-.2207031.3525391-.2207031.0888672,0,.1542969.0224609.3076172.1328125l.9248047.6152344c.1533203.1103516.2646484.2207031.2646484.3525391,0,.2197266-.3300781.4404297-.6601562.6601562Zm-1.5195312-.4179688h-8.8671875v2.15625h8.8671875v-2.15625Zm0,2.6845703h-8.8671875v2.1337891h8.8671875v-2.1337891Zm0,2.6621094h-8.8671875v2.2001953h8.8671875v-2.2001953Zm-2.5957031-11.2216797h-3.2783203v2.8388672h3.2783203v-2.8388672Zm5.7207031,18.4824219c-.5498047,0-.8144531-.2421875-1.6054688-1.0117188-.6171875-.5722656-2.3330078-1.8701172-4.0273438-2.3984375l.0439453-.1757812c2.3544922-.0439453,6.4472656.8574219,6.4472656,2.7724609,0,.3740234-.3300781.8134766-.8583984.8134766Zm-.9238281-18.4824219h-3.3007812v2.8388672h3.3007812v-2.8388672Z"/>
        <path class="cls-1" d="m87.1035156,67.1396484c-.0214844.1103516-.0439453.1767578-.0439453.2861328,0,.1757812.1767578,1.0126953.1767578,1.1884766,0,.5722656-.3535156.7480469-.6826172.7480469-.7705078,0-3.8955078-1.1005859-4.2685547-7.3710938-.1328125-2.1787109-.2207031-3.5644531-.3525391-4.0488281-.1982422-.7919922-.5498047-1.3857422-.7705078-1.8037109,1.1230469.0654297,2.7734375,1.0341797,2.7734375,2.4638672,0,.1542969,0,.2861328-.0878906.7265625-.1328125.8134766-.2871094,1.8916016-.2871094,3.0585938,0,2.7060547,1.3203125,4.3125,1.9140625,4.3125.2421875,0,.4628906-.2861328.5292969-.3964844.9902344-1.4736328,2.6171875-3.8066406,3.5644531-5.3027344l.1757812.0664062c-.3085938.6601562-2.5966797,5.8310547-2.640625,6.0722656Zm10.8916016-1.3642578c-.2646484,0-.3525391-.0878906-1.2099609-.9013672-.59375-.5507812-1.7822266-.7705078-2.3320312-.8808594v-.1318359c.3076172-.0439453,1.8037109-.1757812,1.9580078-.2197266.2861328-.0664062.4833984-.2421875.4833984-.5722656,0-.6816406-1.1435547-3.9169922-3.8720703-5.2802734.1533203-.0224609.1982422-.0449219.3740234-.0449219,2.4648438,0,5.3691406,4.0488281,5.3691406,6.6015625,0,.7695312-.4179688,1.4296875-.7705078,1.4296875Z"/>
        <path class="cls-1" d="m108.2675781,64.2792969c0,2.6630859,0,3.125.0429688,4.4013672.0224609.7695312.0888672,2.0019531.0888672,2.7714844,0,.9023438-.9462891,1.0126953-1.1445312,1.0126953-.4833984,0-.59375-.2861328-.59375-.6162109,0-.0878906.0439453-.9023438.0439453-1.0556641.0878906-1.6503906.0878906-2.2451172.1318359-5.765625-1.6064453.8369141-2.2441406,1.078125-2.7060547,1.2548828-.0224609.3955078-.0664062.7695312-.4179688.7695312-.2421875,0-.375-.2421875-.4404297-.3740234l-1.0341797-1.9804688c1.3642578.0664062,1.7382812.0439453,4.6210938-.8359375,0-1.9365234.0214844-4.1142578,0-5.7871094h-1.9804688c-.6601562,2.6630859-1.6064453,4.2695312-1.9589844,4.8632812l-.1308594-.0439453c.8359375-3.2568359.9892578-6.6894531.9892578-7.6357422,0-.8134766-.0878906-1.0996094-.2197266-1.4960938l2.1123047.5068359c.1757812.0439453.3740234.0878906.3740234.3300781,0,.3076172-.3085938.4394531-.6601562.5712891-.109375,1.0341797-.2207031,1.6943359-.3740234,2.3769531h1.8261719c-.0439453-3.1025391-.1103516-4.0048828-.5947266-5.1054688l2.4208984.7041016c.1318359.0449219.3300781.1542969.3300781.3085938,0,.2636719-.3740234.4619141-.7041016.6376953-.0214844.4619141-.0214844,2.7949219-.0214844,3.4550781h.4394531l.6162109-.8359375c.1103516-.1328125.2197266-.2861328.3300781-.2861328.1318359,0,.2861328.1318359.3955078.2412109l.8808594.8369141c.0878906.0878906.1972656.1972656.1972656.3300781,0,.1972656-.1972656.2412109-.3300781.2412109h-2.5292969c0,1.4082031-.0224609,3.8730469,0,5.28125.4394531-.1542969,2.4863281-.8583984,2.8818359-1.0117188l.0664062.1533203c-.6162109.4404297-1.2978516.8798828-2.9482422,1.7822266Zm12.9814453-5.9628906c-.1757812,4.5986328-.3525391,8.7792969-1.7382812,11.6396484-.8359375,1.7382812-2.4208984,2.0244141-3.4111328,2.2226562-.1533203-.9902344-.5058594-1.6064453-1.8691406-2.5966797l.0654297-.1533203c1.4521484.4179688,2.2880859.4619141,2.6630859.4619141.5273438,0,.8789062,0,1.4960938-1.5625.7695312-2.0244141,1.3857422-6.8427734,1.2324219-10.6494141h-1.2548828c-.6376953,4.9726562-2.7509766,11.3759766-9.109375,13.7734375l-.0654297-.1533203c4.6640625-3.4990234,6.6445312-7.2167969,7.5683594-13.6201172h-1.2324219c-.9023438,4.6425781-3.3886719,8.6474609-6.578125,10.1435547l-.0664062-.1318359c2.7070312-2.7070312,4.4453125-6.4248047,5.0390625-10.0117188h-1.1005859c-.7041016,1.5839844-1.671875,3.1240234-2.9697266,4.3789062l-.1103516-.1103516c2.15625-4.0488281,2.8388672-8.0527344,2.8388672-8.9775391,0-.2421875-.0224609-.4179688-.1113281-.7480469l2.2011719.8798828c.2197266.0888672.3300781.2207031.3300781.3525391,0,.2861328-.4179688.3955078-.7705078.484375-.5712891,1.7597656-.9462891,2.6621094-1.1660156,3.2119141h6.3369141l.5273438-.5498047c.1328125-.1542969.2421875-.2421875.3300781-.2421875.0888672,0,.2421875.0878906.3964844.1982422l1.0351562.7695312c.1533203.1103516.2412109.1767578.2412109.3085938,0,.3300781-.5058594.5722656-.7480469.6816406Z"/>
        <path class="cls-1" d="m134.2714844,57.5683594h-5.3681641l1.2763672.5507812c.1757812.0878906.3300781.2197266.3300781.3300781,0,.1972656-.1982422.3076172-.6826172.5498047-.0224609.59375-.0224609.7919922-.0654297,2.0898438h1.4511719l.3300781-.4394531c.1328125-.1767578.2207031-.3085938.3525391-.3085938.0888672,0,.1767578.0664062.3740234.2197266l.9023438.7050781c.1972656.1533203.2861328.3076172.2861328.3955078,0,.1318359-.1103516.2197266-.2421875.3076172-.1533203.1103516-.2197266.1542969-.3525391.2646484-.0878906.8798828-.2197266,4.8183594-.3300781,5.6328125-.3730469,3.1240234-.8134766,3.4326172-1.3857422,3.828125-.7041016.5068359-1.2978516.5722656-1.6943359.6162109-.2421875-.8583984-.3515625-1.2324219-1.4082031-2.1777344l.0664062-.1328125c.6376953.1542969,1.2753906.2861328,1.9140625.2861328.3515625,0,.5058594-.0439453.7265625-.59375.6152344-1.4960938.6376953-6.46875.6376953-6.7548828,0-.5058594-.0224609-.8144531-.0439453-1.3203125h-1.6289062c-.3300781,4.0927734-.9238281,7.3925781-4.3554688,10.4736328l-.1113281-.1318359c1.9804688-3.0371094,3.0585938-7.5478516,3.0585938-11.6181641,0-.7480469-.0214844-2.0019531-.2421875-2.7724609-.3955078,0-1.5175781.0224609-2.4199219.1982422l-.4394531-.8798828c1.2539062.109375,2.5292969.1542969,3.6962891.1542969,0-2.7285156-.2861328-3.8066406-.5068359-4.6435547l2.3554688.6162109c.2421875.0664062.3515625.2207031.3515625.3525391,0,.1982422-.3085938.3740234-.7265625.59375.0224609.5722656.0224609.8798828.0224609,3.0810547h1.7382812l.6601562-.7050781c.1982422-.1972656.2412109-.2636719.3525391-.2636719.109375,0,.1757812.0439453.3955078.2197266l.8583984.7041016c.109375.0888672.2197266.1767578.2197266.3300781,0,.1982422-.1982422.2421875-.3525391.2421875Zm9.8574219,13.9501953c-.6152344.2421875-1.2089844.3300781-4.5322266.3300781-3.1025391,0-3.5205078,0-3.9824219-.3076172-.6376953-.4179688-.6376953-1.1669922-.6376953-2.3330078,0-.8359375.0429688-4.5322266.0429688-5.3027344-.4394531.1542969-.8574219.3300781-1.2539062.5283203l-.6601562-.7265625c.7705078-.1318359,1.1445312-.2197266,1.9140625-.4179688,0-2.2441406-.0878906-2.5742188-.2851562-3.2119141l1.9804688.59375c.1308594.0439453.2851562.1103516.2851562.2646484,0,.1972656-.5058594.5712891-.6152344.6591797v1.3427734l2.1113281-.6162109c0-2.7939453-.1972656-3.5429688-.3515625-4.1806641l1.9355469.59375c.1328125.0439453.3535156.1103516.3535156.3300781,0,.1542969-.375.4404297-.6171875.6386719v2.2441406l1.8486328-.5283203.5058594-.7041016c.2197266-.3076172.2421875-.3515625.3300781-.3515625.0664062,0,.1542969.0439453.3740234.1533203l.9238281.5068359c.2421875.1318359.3085938.2861328.3085938.3740234,0,.1972656-.4619141.5273438-.7041016.7041016.0224609.9677734.0439453,3.1464844.0439453,4.0917969,0,.6386719,0,2.2451172-1.8476562,2.5966797-.3085938-1.3417969-.96875-1.7158203-1.2773438-1.9140625v-.1757812c.0449219,0,1.1660156.0878906,1.2324219.0878906.484375,0,.484375-.1318359.5058594-1.2099609.0224609-1.6064453.0449219-2.2666016,0-3.71875l-2.2441406.6376953c0,.9902344.1103516,5.3027344.1103516,6.1835938,0,.9013672-.7705078.9013672-.9248047.9013672-.59375,0-.6152344-.4179688-.6152344-.6162109,0-.3076172.0878906-1.6494141.0878906-1.9355469.0439453-1.1660156.0214844-2.15625.0214844-4.1591797l-2.1113281.6162109c-.0224609,1.5625-.0449219,4.1806641-.0449219,4.9726562,0,1.6064453.0224609,1.7822266.3085938,1.8925781.2636719.0878906,1.9804688.0878906,2.3984375.0878906.9238281,0,3.3662109,0,3.8945312-.3515625.4394531-.2861328.5722656-.6826172,1.1875-2.5527344l.1542969.0214844c.0664062.484375.2861328,1.9804688.4404297,2.2226562.0439453.0664062.1982422.2421875.3076172.3740234.0664062.0664062.0664062.2197266.0664062.2636719,0,.4404297-.5507812.9462891-.96875,1.1005859Zm.3525391-14.0595703h-8.0537109c-.7910156,1.1435547-1.671875,2.0898438-2.6621094,3.0800781l-.1542969-.1103516c1.8486328-2.9697266,3.3007812-6.7763672,3.234375-8.2949219l2.15625,1.1660156c.1328125.0664062.2421875.1542969.2421875.3300781,0,.2646484-.21875.3300781-.8574219.3300781-.5058594,1.0341797-1.0117188,2.0683594-1.5839844,2.9707031h5.1269531l.9013672-.9902344c.1318359-.1542969.2197266-.2636719.3525391-.2636719.1318359,0,.2636719.109375.3955078.2412109l1.0126953.96875c.1318359.1318359.2197266.1982422.2197266.3515625,0,.1982422-.1982422.2207031-.3300781.2207031Z"/>
        <path class="cls-1" d="m156.0292969,56.8867188h-5.1699219c-.1992188,0-1.5625,0-2.5742188.1982422l-.4414062-.8583984c1.453125.109375,2.9707031.1318359,3.3886719.1318359h2.4208984l.7255859-.8359375c.1542969-.1982422.2421875-.2421875.3300781-.2421875.1328125,0,.2207031.0664062.4179688.2197266l1.0126953.8144531c.1318359.0878906.2197266.2421875.2197266.3515625,0,.1542969-.1318359.2207031-.3300781.2207031Zm-1.2324219,2.75h-2.9042969c-.5498047,0-1.6054688.0224609-2.5742188.1982422l-.4394531-.8798828c1.4960938.1318359,3.0585938.1533203,3.3662109.1533203h.4404297l.5498047-.7041016c.1533203-.1972656.2197266-.2636719.3525391-.2636719.109375,0,.21875.0664062.4179688.2197266l.9023438.7041016c.109375.0878906.21875.1982422.21875.3525391,0,.1318359-.1308594.2197266-.3300781.2197266Zm.1328125-5.5449219h-2.9267578c-.2861328,0-1.5185547,0-2.5966797.1982422l-.4394531-.8798828c1.4746094.1318359,3.0136719.1542969,3.3886719.1542969h.484375l.59375-.7265625c.1318359-.1757812.2197266-.2421875.3076172-.2421875.1103516,0,.2421875.0664062.4179688.2207031l.8798828.703125c.1328125.1103516.2207031.2421875.2207031.3300781,0,.1982422-.1328125.2421875-.3300781.2421875Zm.0664062,11.6621094c0,.4179688.0214844,2.5302734.0429688,3.4980469.0224609.1767578.0878906.9023438.0878906,1.0566406,0,.7041016-.703125.9462891-1.0332031.9462891-.59375,0-.5722656-.484375-.5722656-1.1005859h-2.8613281c.0449219,1.2978516.0888672,2.15625-1.0332031,2.15625-.5058594,0-.6162109-.2861328-.6162109-.5498047,0-.1103516.0224609-.3964844.0439453-.5283203.0878906-1.0341797.1542969-3.9824219.1542969-4.3789062,0-2.0019531-.0664062-2.4863281-.1542969-3.0361328l1.8261719,1.0126953h2.4648438l.5273438-.5947266c.1757812-.1982422.2861328-.2636719.375-.2636719.0878906,0,.1972656.0439453.4394531.2197266l.8144531.59375c.109375.0888672.1972656.1767578.1972656.2861328,0,.2646484-.2421875.4189453-.703125.6826172Zm-.1992188-3.4101562h-2.7285156c-.3955078,0-1.5175781,0-2.5742188.1972656l-.4394531-.8798828c1.3642578.1103516,2.7285156.1542969,3.3671875.1542969h.3955078l.5283203-.6826172c.1308594-.1757812.2421875-.2421875.3515625-.2421875.1328125,0,.2421875.0664062.3964844.1982422l.8144531.6826172c.1308594.109375.21875.2421875.21875.3515625,0,.1542969-.1308594.2207031-.3300781.2207031Zm-1.2539062,3.0136719h-2.9042969v4.2685547h2.9042969v-4.2685547Zm12.6074219,6.4472656c-2.7275391-.7265625-4.2675781-2.0244141-5.2138672-3.0585938-1.9580078,1.9140625-4.5107422,3.0361328-7.1953125,3.5644531v-.1542969c4.0048828-1.7597656,6.0283203-4.0703125,6.3583984-4.421875-1.4296875-2.0029297-1.7382812-3.7851562-1.8691406-4.6425781-.8144531.0654297-1.0351562.109375-1.3427734.1757812l-.4179688-.8798828c1.4736328.1318359,2.9931641.1533203,3.3662109.1533203h2.9707031l.6162109-.6162109c.1533203-.1533203.2646484-.2197266.3955078-.2197266.1103516,0,.1982422.0439453.3964844.2197266l.8808594.7929688c.1308594.1318359.2412109.2636719.2412109.3955078,0,.2636719-.1533203.3740234-1.1220703.6386719-.3740234.9453125-1.0117188,2.4199219-2.4423828,4.1142578,1.7607422,1.2978516,3.9384766,1.8486328,6.1162109,2.0019531v.1318359c-.8359375.3740234-1.4082031.9902344-1.7382812,1.8046875Zm-1.6269531-11.5957031c-2.7285156,0-2.7285156-.1542969-2.7285156-2.7939453v-2.9931641c0-.0439453,0-.109375-.0224609-.1972656h-2.1123047c-.109375,3.8496094-.7265625,5.6542969-3.1904297,7.1503906l-.1103516-.109375c1.5410156-1.8486328,1.8261719-4.0273438,1.8261719-5.8310547,0-1.1884766-.1308594-2.0029297-.2197266-2.6181641l1.6943359.8798828h2.1123047l.4619141-.5058594c.1542969-.1767578.2636719-.2646484.3740234-.2646484s.2421875.0878906.3740234.1982422l.8583984.7041016c.1318359.1103516.2197266.2421875.2197266.3515625,0,.1767578-.1542969.3085938-.7919922.6601562-.0224609.8369141-.0439453,2.3984375-.0439453,3.3007812,0,.484375.1328125.6162109.9238281.6162109.3964844,0,1.078125,0,1.3652344-.2197266.3300781-.2646484.4179688-.6601562.9013672-2.7070312l.1318359-.0214844c.1103516.7255859.375,2.2880859.8359375,2.5517578.375.2207031.4179688.3085938.4179688.4628906,0,1.3857422-1.8037109,1.3857422-3.2773438,1.3857422Zm-5.0390625,2.8603516c-.2861328,0-.6816406,0-.9462891.0224609.6376953,2.2001953,1.6503906,3.34375,2.2001953,3.8945312,1.4082031-1.9150391,1.8046875-3.3447266,1.9804688-3.9169922h-3.234375Z"/>
      </g>
      <g>
        <path class="cls-1" d="m34.4501953,142.90625c4.7998047-4.75,10.3007812-13.3007812,11.7001953-16.6005859.4003906-1,.6005859-1.6005859.9501953-2.9501953l4.0507812,3.1494141c.2001953.1503906.2998047.4003906.2998047.6503906,0,.7001953-.7998047.7001953-1.9501953.9003906-.7998047,1.1494141-1.7998047,2.5498047-3.6005859,4.9003906.6005859.5.8505859.6494141.8505859,1,0,.2998047-.2001953.5996094-1.2998047,1.3994141-.1503906,2.1503906-.1503906,4.1005859-.1503906,5.6503906,0,2.1503906.1503906,11.8007812.1503906,13.7509766,0,2.6005859,0,4-2.2001953,4-.9003906,0-1.7509766-.2998047-1.7509766-1.3994141,0-.6503906.3007812-3.5.3007812-4.0507812.1494141-3.0498047.0996094-4.3496094.2001953-15.7509766-3.6005859,3.6503906-6.3505859,5.1503906-7.3505859,5.7001953l-.2001953-.3496094Zm.2001953-14.6503906c7-6.5507812,11.0507812-13.1015625,11.6005859-15.2011719l3.75,2.7001953c.0996094.0996094.4003906.3496094.4003906.5996094,0,.5498047-.2001953.6005859-2.1005859,1-4.3505859,5.8007812-9.1503906,9.0009766-13.4003906,11.3007812l-.25-.3994141Zm39.8525391,2.6494141l1.7998047-2.5c.3994141-.5996094.5996094-.6494141.75-.6494141.2998047,0,.5.1992188.9501953.5498047l2.9501953,2.5c.2998047.25.5.4501953.5.75,0,.5-.4003906.5498047-.75.5498047h-17.8017578l4.6503906,1.5c.3007812.1005859.6503906.25.6503906.6005859,0,.6494141-1.2001953,1.3496094-1.5498047,1.5v4.9501953h5.1503906l1.7998047-2.1503906c.4003906-.4501953.5-.5996094.7998047-.5996094.25,0,.4003906.0996094.9501953.5498047l2.5,2.1005859c.25.1992188.5.3994141.5.75,0,.4492188-.3994141.5498047-.75.5498047h-10.9501953c0,.7001953-.0507812,10.75-.0507812,11,1.1503906.1503906,3.8505859.5507812,7.4511719.5507812,4.5996094,0,6.9003906-.6503906,8.0498047-.9003906l.0507812.2001953c-.8007812.6503906-2.4501953,2-2.9003906,4.8505859-.7998047.0498047-1.6503906.1494141-2.8505859.1494141-16.1005859,0-18.7509766-9.0507812-19.9013672-13.1503906-1.25,3.4501953-3.5996094,9.4501953-10.0498047,12.9003906l-.1503906-.2001953c7.4003906-8.3505859,8.1503906-18.0507812,8.1503906-20.1513672,0-1.1494141-.0996094-1.75-.2001953-2.25l5.1005859,1.6503906c.2998047.0996094.5498047.25.5498047.7001953,0,.25-.0996094.4003906-.25.5498047-.2001953.1503906-1.25.6503906-1.4501953.75-.5,2.3505859-.8994141,3.5507812-1.3496094,4.9003906,2.2001953,4.9003906,4.9003906,7.4003906,6.4501953,8.3007812,0-13.1513672,0-14.0009766-.0996094-16.0507812-.0507812-.6005859-.3505859-3.0507812-.4003906-3.5507812h-5.25c-1.25,0-3.6503906.0498047-5.9003906.4501953l-1-2c3.4501953.2998047,7,.3496094,7.7001953.3496094h4.8505859c0-2.9501953,0-6.0996094-.0507812-8.7998047h-3.8496094c-.9003906,0-3.4501953,0-5.8505859.4492188l-1-1.9501953c3.1005859.25,6.2001953.3007812,7.7001953.3007812h3c-.0996094-4.8007812-.1494141-5.2001953-.8994141-7.7509766l5.2001953,1.5498047c.4003906.1005859.7001953.2509766.7001953.6005859s-1.25,1.4501953-1.5,1.6503906v3.9501953h4.9003906l1.9492188-2.4003906c.3007812-.3505859.4501953-.6005859.8007812-.6005859.3496094,0,.5.1503906.8994141.5009766l2.6503906,2.3994141c.25.25.5.4501953.5.8007812,0,.4492188-.4501953.5-.75.5h-11.0009766v8.7998047h7.9013672Z"/>
        <path class="cls-1" d="m135.5527344,131.6552734h-22.3007812l1.75.4003906c1.0498047.25,1.25.25,1.25.7001953,0,.3994141-.1503906.5996094-1.25,1.2001953,0,1.3994141.1992188,7.7001953.1992188,8.9501953,0,3,0,4.5-5.25,6-.5498047-2.0996094-2.0498047-3.5-4.25-4.5996094v-.2998047c.6503906,0,3.5498047.1992188,4.1503906.1992188,1.7998047,0,1.7998047-.0498047,1.8496094-1.8496094.0498047-2.3505859,0-8.0507812-.0498047-10.7011719h-13.6005859c-1.25,0-3.6503906.0507812-5.9003906.4501953l-1-2c3.4003906.2998047,6.9501953.3496094,7.7001953.3496094h2.3505859c0-8.8496094,0-9.7998047-.75-12.6005859l4.8994141,1.3505859c.75.2001953.9501953.3994141.9501953.8496094,0,.4003906-.1494141.5498047-1.5498047,1.5v8.9003906h6.8505859c0-11.25,0-12.5-.1005859-14.2001953-.0498047-1.1005859-.1992188-2.25-.5498047-4.9003906l4.6005859,1.25c.5498047.1503906.9501953.2998047.9501953.8496094,0,.3505859,0,.5507812-1.5,1.4003906v6.4501953h7.2001953l1.9501953-2.8496094c.2001953-.25.5-.6503906.7998047-.6503906.25,0,.6005859.2998047.9003906.5498047l3.2001953,2.8505859c.2998047.2998047.5.4501953.5.75,0,.5-.4003906.5498047-.75.5498047h-13.8007812v7.9501953h13.75l2.3505859-3c.2998047-.3994141.5996094-.6494141.7998047-.6494141.25,0,.6005859.25.9003906.5498047l3,3c.3505859.3496094.5.5498047.5.75,0,.5-.3994141.5498047-.75.5498047Zm-28.4013672,6.0507812c-.2001953.0996094-.7998047.25-1.25.4003906-3.3505859,5.5996094-8.0009766,9.8505859-13.5507812,13.1005859l-.2001953-.25c5.3505859-5.6503906,9-12.3007812,9.7001953-13.9511719.4003906-.9003906.6503906-1.7998047.9501953-3l3.9003906,2.0498047c.4501953.25.8496094.4501953.8496094,1.0498047,0,.25-.1494141.5009766-.3994141.6005859Zm15.3007812,8.9003906c-8.0009766,7.0009766-15.9013672,11.5507812-28.1015625,11.9511719l-.0498047-.3505859c7.4501953-1.8496094,15.0507812-4.75,22.2011719-11.3505859,1.6494141-1.5,3.4003906-3.1503906,4.4501953-4.9501953l3.0498047,3c.4003906.4003906.6005859.6503906.6005859.9501953,0,.5996094-.2001953.5996094-2.1503906.75Zm8.7001953,1.2998047c-1.4501953,0-2.1494141-1.0996094-3.0996094-2.6494141-3.1503906-5.1503906-5.7011719-7.5009766-9.0507812-9.9013672l.2001953-.2998047c8.9501953,2.1503906,13.9501953,7.6503906,13.9501953,10.7011719,0,1.0498047-.7998047,2.1494141-2,2.1494141Z"/>
        <path class="cls-1" d="m184.0029297,116.0546875l1.2998047-1.4501953c.2001953-.2001953.5498047-.5.75-.5.25,0,.5.2001953.75.4003906l2.3496094,1.75c.1503906.1494141.4501953.4501953.4501953.7001953,0,.1992188-.2001953.5-.2998047.5996094-.2001953.2001953-.8496094.75-1.2998047,1.1503906-.0498047,4-.1005859,11.5.0498047,17.3007812.4003906,17.0507812.4501953,18.9511719.4501953,19.2011719,0,1.3496094-.7001953,2.2998047-2.1005859,2.2998047-1.8496094,0-1.8496094-1.0996094-1.7998047-2.0498047h-31.4023438c.3505859,2.5498047-1.25,3.2001953-2.3994141,3.2001953-1.4003906,0-1.4003906-1.0498047-1.4003906-1.5996094,0-1.3505859.3496094-17.5517578.4003906-19.9013672,0-2,.0498047-3.9501953.0498047-5.9501953,0-7.5507812-.1005859-11.4013672-.4501953-14.5009766-.0996094-.8505859-.2998047-2.0009766-.4003906-2.6503906l4.4003906,2h30.6025391Zm-30.8525391,1.2001953v37.0019531h31.4521484v-37.0019531h-31.4521484Zm18.1513672,9.8007812c.4501953,1.2001953,1.2998047,2.7998047,2.8505859,4.6503906h3.5l1.4501953-2.0009766c.3496094-.5.5498047-.6992188.7998047-.6992188s.7001953.3496094.9003906.5498047l2.0996094,2c.3496094.2998047.5498047.5.5498047.7998047,0,.5-.5.5498047-.7998047.5498047h-7.4501953c2.5,2.6005859,5.3505859,4.7011719,9.3007812,6.0009766v.25c-1.8505859.3496094-2.9501953,1.5498047-3.7509766,2.4501953-1.2001953-.9501953-4.7001953-3.75-7.7001953-8.7011719h-7.8007812c-.5498047.9003906-1.2998047,2.1503906-2.8994141,4.0507812,3.3994141.25,6.3496094.25,7,.25h1.75l.9501953-1c.25-.2998047.5-.5498047.7001953-.5498047s.3994141.1992188.7001953.3994141l1.7001953,1.2998047c.2998047.2001953.4492188.5507812.4492188.7509766,0,.2998047-.3994141.6992188-.9492188,1.2998047,0,.5498047.0498047,3.0996094.0498047,3.7001953,0,1.2001953-.8007812,1.8496094-2,1.8496094-.6005859,0-1.4003906-.3496094-1.3007812-1.5h-6.0498047c-.25,5.1005859.2001953,5.2001953,1.2001953,5.3505859.75.0996094,5.25.0996094,6.3496094.0996094,3.8505859,0,4.8505859-.6992188,5.4003906-2.1494141.4501953-1.2001953.8505859-2.4501953,1.0507812-3.3007812h.25c.1494141,1.1503906.7998047,3.7001953,1.5,4.0009766.7998047.3496094,1.0498047.6494141,1.0498047,1.0996094,0,.3496094-.0996094.7001953-1.0498047,1.7001953-1.1503906,1.1503906-3.25,1.4501953-8.5507812,1.4501953-1.9003906,0-4.5498047,0-6.4003906-.1005859-1.75-.0996094-2.7001953-.3994141-3.2998047-.8994141-.8007812-.7001953-.8007812-1.7001953-.8007812-6.0507812,0-1.7001953-.0498047-3.1503906-.25-4.0996094l4.1005859,1.6992188h5.5507812v-3.8496094h-2.9003906c-.4003906,0-3.3505859,0-5.9003906.4501953l-.7001953-1.4003906c-3.6005859,4.1503906-6.7001953,5.7001953-8.0507812,6.3505859l-.0996094-.25c3.7998047-3.4501953,6.6503906-7.9003906,8.25-10.6513672h-1.3994141c-1.2001953,0-3.6503906,0-5.9003906.4501953l-1-2c2.4501953.2001953,5.25.3505859,7.7001953.3505859h1.2998047c1-1.8505859,1.4003906-2.6503906,2.3007812-4.6503906h-2.7001953c-1.2509766,0-3.6503906.0498047-5.9003906.4492188l-1-2c2.4492188.2001953,5.25.3505859,7.7001953.3505859h2.4003906c1.1992188-3.1503906,1.5996094-5.1503906,1.5996094-5.9003906,0-.5-.0996094-1.5-.2001953-1.9501953l4.3505859,2.2001953c.3496094.1494141.5996094.4501953.5996094.7001953,0,.5996094-.5.75-1.6494141,1.1494141-.4003906,1.1503906-.8007812,2.3007812-1.4501953,3.8007812h2.5498047c1.75-3.3007812,2.7001953-5.0009766,2.75-6.8007812l3.7509766,1.5c.25.1005859.4492188.4003906.4492188.6005859,0,.5498047-.5498047.75-1.7001953,1-.6494141.5-3.9501953,3.1503906-4.75,3.7001953h3.4003906l1.3496094-1.8007812c.3007812-.3496094.5-.6494141.8007812-.6494141.2998047,0,.7001953.3496094.8994141.5498047l1.8007812,1.7998047c.25.25.5.5.5.75,0,.5-.5.5507812-.75.5507812h-8.5507812Zm-12.6503906-8.2011719c2.9501953.8505859,5.7001953,2.4501953,5.7001953,4.6503906,0,1.2001953-.8505859,1.75-1.6005859,1.75-1.25,0-1.4501953-.8496094-2.2998047-2.8994141-.3505859-.8007812-.9501953-2.2001953-1.9501953-3.2509766l.1503906-.25Zm9.6005859,8.2011719c-1.2509766,2.6494141-1.9003906,3.8994141-2.3007812,4.6503906h6.4501953c-1.3496094-2.4501953-1.75-4.0009766-1.8994141-4.6503906h-2.25Z"/>
      </g>
    </g>
  </g>
</svg>