<?xml version="1.0" encoding="UTF-8"?>
<svg id="_レイヤー_2" data-name="レイヤー 2" xmlns="http://www.w3.org/2000/svg" viewBox="0 0 232.5 191.5">
  <defs>
    <style>
      .cls-1 {
        fill: none;
        stroke: #4977bc;
        stroke-miterlimit: 10;
        stroke-width: .5px;
      }

      .cls-2 {
        fill: #4977bc;
        stroke-width: 0px;
      }
    </style>
  </defs>
  <g id="layout">
    <g>
      <rect class="cls-1" x=".25" y=".25" width="232" height="191"/>
      <g>
        <path class="cls-2" d="m21.1054688,24.8798828c-2.8984375,3.0429688-4.609375,4.5742188-6.8955078,5.6542969-1.0087891.4863281-3.2949219,1.4941406-5.2578125,1.6748047l-.0722656-.1445312c1.5126953-.4501953,5.2041016-2.1962891,7.3105469-3.9794922,2.3759766-2.0166016,3.5283203-3.6005859,3.7265625-3.9072266h-4.0869141c-.6123047.6669922-.9902344,1.0449219-1.4765625,1.5126953,1.2246094.3242188,2.2148438.5947266,2.2148438,1.65625,0,.5585938-.4501953.7744141-.7207031.7744141-.5039062,0-.6835938-.4140625-1.0263672-1.2246094-.2333984-.5761719-.4492188-.8095703-.6474609-1.0253906-.7929688.7197266-2.3232422,2.015625-4.6992188,2.9707031l-.0908203-.1259766c2.6835938-1.7646484,5.9238281-5.1318359,6.3564453-6.96875l1.5839844.6845703c.1259766.0537109.2167969.1435547.2167969.2519531,0,.1796875-.1445312.2705078-.7568359.3603516-.1982422.2519531-.3056641.3779297-.5761719.7021484h3.78125l.7021484-.5224609c.1083984-.0722656.1796875-.1435547.2519531-.1435547s.1445312.0537109.234375.1259766l1.0439453.7744141c.0898438.0712891.2167969.2158203.2167969.3056641,0,.1982422-.1982422.3242188-1.3330078.59375Zm2.4853516,6.6445312c-1.7832031,2.1425781-3.9257812,3.9433594-5.3125,4.8076172-2.1064453,1.3144531-5.4013672,2.4306641-8.3359375,2.5205078l-.0361328-.1621094c2.6650391-.59375,5.7617188-1.4580078,8.6425781-3.8535156,1.5488281-1.2958984,3.0068359-2.8261719,3.7626953-4.1230469h-4.0146484c-.7558594.6845703-1.4765625,1.2607422-2.2509766,1.7822266.1445312.0361328,2.4130859.6484375,2.4130859,1.8730469,0,.4677734-.3779297.8466797-.8105469.8466797-.4316406,0-.4677734-.1259766-.9003906-1.1708984-.1796875-.4316406-.3242188-.6123047-.9541016-1.3867188-1.1884766.8105469-3.3125,1.9267578-5.6894531,2.3955078l-.1259766-.1259766c2.9707031-1.1523438,5.5634766-3.0429688,7.7783203-5.3125,1.1699219-1.2236328,1.3144531-1.5839844,1.4941406-2.0703125l1.4589844.7744141c.1074219.0537109.2158203.1259766.2158203.2519531,0,.234375-.3242188.2705078-.8105469.3066406-.2880859.3417969-.6298828.7373047-1.3505859,1.4042969h3.6376953l.5576172-.4140625c.0722656-.0546875.1806641-.1621094.2705078-.1621094s.1435547.0712891.2333984.1435547l1.0810547.8828125c.0898438.0712891.1796875.1621094.1796875.2880859,0,.1621094-.1259766.2695312-1.1337891.5039062Z"/>
        <path class="cls-2" d="m36.0625,30.5341797h-3.5644531v1.2246094c.3056641.0898438,3.0429688.9902344,3.0429688,2.3945312,0,.3779297-.2529297.7382812-.7382812.7382812-.4326172,0-.5048828-.1259766-1.0263672-1.1162109-.1621094-.3242188-.6484375-1.2607422-1.2783203-1.8007812,0,.3242188.0175781,5.7978516.0175781,5.9238281-.0361328.59375-.5039062.7197266-.8818359.7197266-.3789062,0-.46875-.1982422-.46875-.5761719,0-.5039062.1083984-2.71875.1259766-3.1689453.0361328-.9902344.0546875-1.8007812.0546875-2.5927734-1.0449219,1.9091797-2.8271484,3.8896484-4.8076172,4.8613281l-.0361328-.1435547c1.890625-1.8730469,4.0869141-5.4560547,4.4472656-6.4638672h-1.5488281c-.3242188,0-1.2597656,0-2.1240234.1621094l-.3603516-.7207031c1.1162109.0898438,2.2324219.1259766,2.7724609.1259766h1.6386719c-.0361328-1.6386719-.0537109-1.8183594-.2519531-2.7724609l1.6386719.4863281c.234375.0712891.3056641.2158203.3056641.3242188,0,.1972656-.1259766.2880859-.5039062.59375v1.3681641h1.6923828l.4501953-.7021484c.0537109-.0712891.1796875-.2333984.2705078-.2333984.1074219,0,.1972656.0712891.3417969.1972656l.9003906.7021484c.1074219.0722656.1796875.1621094.1796875.2705078,0,.1796875-.1621094.1982422-.2880859.1982422Zm-.59375-7.0400391c-.1083984,0-.2705078-.0185547-.4326172-.0546875-.7021484.1445312-3.7626953.7929688-4.3925781.9003906.3417969.1259766,2.2685547.8828125,2.2685547,2.1074219,0,.5400391-.4140625.7197266-.7021484.7197266-.5224609,0-.5585938-.1435547-1.0263672-1.5302734-.234375-.7207031-.46875-.9541016-.7382812-1.2783203-.7568359.1074219-1.4228516.1621094-2.0527344.1621094-.6484375,0-1.0800781-.0546875-1.4228516-.0908203v-.0898438c2.1972656-.3417969,6.7519531-1.4941406,7.6162109-2.4306641l1.0625,1.0625c.0722656.0722656.1621094.1621094.1621094.2705078,0,.1796875-.1621094.2519531-.3417969.2519531Zm-6.1582031,4.2851562c-.5576172,0-.6484375-.4326172-.7382812-.828125-.1796875-.7382812-.5214844-1.6748047-1.0078125-2.2324219l.1074219-.0722656c.7382812.3056641,2.4130859.9902344,2.4130859,2.2861328,0,.46875-.2880859.8466797-.7744141.8466797Zm6.8964844-2.1972656c-.9726562.9003906-1.4228516,1.3144531-2.8808594,2.1787109l-.0722656-.0537109c.3603516-.4140625,1.4580078-1.8544922,1.890625-3.6914062l1.4765625.9189453c.0722656.0537109.1621094.1435547.1621094.2695312,0,.1621094-.0546875.1806641-.5761719.3779297Zm6.1757812,7.4003906c-2.1972656,2.7373047-5.1132812,4.9160156-8.6425781,5.4560547l-.0185547-.1083984c2.953125-1.1337891,5.7441406-3.8349609,7.1660156-5.7431641.46875-.6308594.5761719-.9003906.703125-1.5126953l1.3681641,1.2783203c.1074219.0898438.1435547.1796875.1435547.2880859,0,.2158203-.2158203.2519531-.7197266.3417969Zm-.9003906-8.3544922c-1.6748047,1.6025391-3.5654297,3.1513672-6.5,4.0332031l-.0361328-.0712891c1.890625-1.2070312,5.1318359-3.8710938,5.8515625-5.90625l1.3505859,1.2421875c.0722656.0722656.1259766.1445312.1259766.2880859,0,.3066406-.234375.3427734-.7919922.4140625Zm.3056641,4.0517578c-1.5664062,1.7099609-3.2402344,3.1328125-6.2832031,4.1953125l-.0361328-.0546875c2.8984375-1.9619141,4.7353516-4.3212891,5.0771484-4.8251953.4326172-.6123047.4863281-.9365234.5400391-1.2607422l1.4589844,1.2792969c.1074219.1074219.1259766.1972656.1259766.2880859,0,.2519531-.0898438.2519531-.8828125.3779297Z"/>
        <path class="cls-2" d="m55.125,25.9785156c-.2880859.1445312-1.6923828.5400391-3.7275391,1.0263672-.4677734.9365234-2.4306641,5.1132812-2.8984375,5.9238281-.4140625.7021484-.7919922,1.3681641-1.1523438,1.3681641-.1259766,0-.5039062-.0722656-.5039062-.6835938,0-.5048828.2519531-.828125.4316406-1.0810547,1.296875-1.7099609,2.4492188-4.0869141,2.9892578-5.2568359-.3964844.0898438-.9365234.2333984-1.6201172.2333984-1.0625,0-1.9628906-.5576172-1.8193359-1.6376953.4326172.6113281,1.0263672.7197266,1.7470703.7197266.6484375,0,1.3857422-.1259766,2.1064453-.2880859.4140625-1.0263672.7558594-1.9082031.7558594-2.2871094,0-.1972656-.1074219-.6298828-1.0615234-.8818359.2695312-.234375.5214844-.3603516.8818359-.3603516.7021484,0,1.8007812.7568359,1.8007812,1.2246094q0,.1796875-.4501953.828125c-.2519531.3603516-.3964844.6123047-.6660156,1.1347656.359375-.1259766.9716797-.3427734,1.3496094-.5224609.7929688-.3603516.8828125-.4140625,1.0986328-.4140625.234375,0,1.0263672.2519531,1.0263672.59375,0,.1806641-.1435547.2880859-.2880859.3603516Zm4.5009766,4.4833984c-.1074219,0-.3056641-.0175781-.6298828-.1982422-.6123047-.3242188-.828125-.4501953-1.5302734-.4501953-1.890625,0-2.1611328,1.0263672-2.1611328,1.8730469,0,1.0439453.1982422,2.0527344.3066406,2.6103516,1.4404297.3066406,3.4208984,1.0625,3.4208984,2.2324219,0,.2705078-.1796875.5947266-.5039062.5947266-.2167969,0-.9365234-.5039062-1.3867188-.828125-.7197266-.5039062-1.0439453-.6298828-1.4042969-.7568359-.0185547.3789062-.0537109,1.1347656-.6845703,1.7109375-.7382812.6845703-1.7646484.7558594-2.1787109.7558594-1.4941406,0-2.7900391-.8095703-2.7900391-1.9257812,0-1.3505859,1.6376953-1.9990234,3.3847656-1.9990234.3955078,0,.6660156.0361328.9365234.0537109-.0546875-.6298828-.1269531-1.4765625-.1269531-1.890625,0-1.9804688,1.9091797-2.7548828,3.1513672-2.9882812.1445312-.0361328.3056641-.0722656.3056641-.2880859,0-.234375-.6474609-.9003906-2.4658203-1.3681641.2695312-.0908203.6113281-.1806641,1.1523438-.1806641,2.2324219,0,3.6728516,1.6748047,3.6728516,2.5205078,0,.3242188-.1806641.5224609-.46875.5224609Zm-6.5,4.4833984c-.6835938,0-2.3583984.1445312-2.3583984,1.1162109,0,.7568359,1.1523438.9541016,1.7646484.9541016.6298828,0,1.9990234-.1621094,1.9443359-1.890625-.3417969-.0898438-.6298828-.1796875-1.3505859-.1796875Z"/>
        <path class="cls-2" d="m76.1318359,27.3828125c-.3242188.1806641-.3417969.2167969-.5576172.8105469-1.1884766,3.2226562-2.3232422,5.0234375-3.9433594,6.5175781-.9189453.828125-2.8447266,2.3046875-4.9521484,2.7910156l-.0175781-.1259766c2.1601562-1.1699219,4.2851562-3.3486328,5.203125-4.609375.8466797-1.1337891,2.0712891-3.3125,2.7910156-6.1035156-3.7089844.2158203-6.9677734.7919922-7.5625,1.0439453-.1259766.0537109-.7021484.3603516-.828125.3603516-.1621094,0-1.4404297-.8466797-1.4404297-2.0166016,0-.3242188.0722656-.5224609.1621094-.7021484.3964844.6298828.9902344,1.1884766,1.7832031,1.1884766.2519531,0,6.8056641-.5400391,7.6699219-.7929688.1435547-.0351562.6298828-.4316406.7558594-.4316406.1982422,0,1.5126953,1.2421875,1.5126953,1.5664062,0,.1796875-.1982422.3056641-.5761719.5039062Zm1.6748047-1.2060547c-.9365234,0-1.6923828-.7558594-1.6923828-1.7109375,0-.9355469.7558594-1.6923828,1.6923828-1.6923828s1.7099609.7568359,1.7099609,1.6923828c0,.9550781-.7734375,1.7109375-1.7099609,1.7109375Zm-.0185547-2.7548828c-.5761719,0-1.0263672.4677734-1.0263672,1.0263672,0,.5761719.4501953,1.0439453,1.0263672,1.0439453s1.0449219-.4677734,1.0449219-1.0439453c0-.5585938-.46875-1.0263672-1.0449219-1.0263672Z"/>
        <path class="cls-2" d="m94.4384766,29.09375c-.3427734.1796875-.3789062.2519531-.6123047.7919922-2.9169922,6.9863281-7.7607422,7.8867188-8.7509766,7.9765625l-.0361328-.1259766c1.1162109-.46875,6.1582031-3.3134766,7.6347656-9.0205078-.5224609.0361328-5.7080078.5039062-6.8603516,1.0078125-.1083984.0537109-.5400391.3242188-.6484375.3242188-.4501953,0-1.7646484-1.0625-1.7646484-2.1425781,0-.1621094.0185547-.3056641.1259766-.6123047.3066406.4677734.9189453,1.1699219,1.8730469,1.1699219.8642578,0,6.9501953-.4677734,7.2197266-.59375.1621094-.0722656.6669922-.6484375.8105469-.6484375.1982422,0,1.5302734.9550781,1.5302734,1.3691406,0,.2333984-.2333984.359375-.5214844.5039062Zm-2.1611328-3.4931641c-1.3867188.0722656-4.3037109.3242188-4.7177734.3964844-.8818359.1259766-.9716797.1435547-1.2597656.1435547-.5761719,0-1.4404297-.8105469-1.4404297-1.9443359.7919922.7382812,1.3505859.8457031,2.3408203.8457031,1.2060547,0,3.5283203-.2519531,4.2851562-.59375.3603516-.1621094.4140625-.1982422.5761719-.1982422.3242188,0,1.4765625.2519531,1.4765625.8105469,0,.3603516-.234375.4863281-1.2607422.5400391Z"/>
        <path class="cls-2" d="m105.9023438,27.4912109c-.3066406,0-.5224609-.2158203-1.0986328-.7919922-1.2607422-1.2783203-2.2685547-1.7470703-2.953125-2.0527344,2.1611328-.1445312,4.7177734.6298828,4.7177734,2.1240234,0,.3964844-.3066406.7207031-.6660156.7207031Zm1.5664062,6.1757812c-.3779297.2880859-2.0712891,1.5126953-2.3769531,1.8183594-.0898438.0898438-.4863281.5400391-.5761719.6298828-.0722656.0722656-.2158203.1083984-.3056641.1083984-.6308594,0-1.8193359-1.5126953-1.8193359-2.3583984,0-.3242188.1083984-.5947266.1806641-.7929688.4140625.8105469.9365234,1.1884766,1.3144531,1.1884766.59375,0,3.3847656-2.0703125,4.1591797-2.6640625,2.8984375-2.2148438,4.2851562-3.7636719,5.7431641-5.4384766l.0908203.0546875c-.4326172,1.3144531-2.4492188,4.4111328-6.4101562,7.4541016Z"/>
        <path class="cls-2" d="m131.7167969,34.2792969c-.0361328,0-.9365234-.1621094-1.4052734-.234375-.59375-.1074219-1.6376953-.1982422-2.71875-.1982422-1.65625,0-5.3115234.3066406-6.7333984.7568359-.7382812.2333984-.8105469.2519531-.9726562.2519531-.4677734,0-1.65625-.8828125-1.65625-2.1064453,0-.1982422.0361328-.3066406.0722656-.46875.6474609.7919922,1.1162109,1.1162109,2.1240234,1.1162109.1083984,0,4.9873047-.4140625,5.9238281-.4501953,1.0986328-.0537109,2.6826172-.1259766,3.2412109-.3056641.59375-.1796875.6484375-.1982422.7558594-.1982422.3789062,0,1.8193359.6298828,1.8193359,1.3330078,0,.2695312-.1621094.5039062-.4501953.5039062Zm-3.2412109-7.0761719c-.3964844.0361328-1.8007812.1259766-2.7734375.1796875-1.0439453.0546875-2.0703125.1083984-3.2226562.3779297-.1259766.0361328-.2158203.0361328-.3242188.0361328-.4501953,0-1.5664062-.3955078-1.65625-1.7646484.3242188.2167969.9541016.6308594,2.2148438.6308594.59375,0,3.1865234-.1259766,4.4833984-.4863281.1621094-.0361328.9003906-.3242188,1.0625-.3242188.3417969,0,1.4404297.2705078,1.4404297.828125,0,.4326172-.3242188.46875-1.2246094.5224609Z"/>
        <path class="cls-2" d="m141.9023438,27.4912109c-.3066406,0-.5224609-.2158203-1.0986328-.7919922-1.2607422-1.2783203-2.2685547-1.7470703-2.953125-2.0527344,2.1611328-.1445312,4.7177734.6298828,4.7177734,2.1240234,0,.3964844-.3066406.7207031-.6660156.7207031Zm1.5664062,6.1757812c-.3779297.2880859-2.0712891,1.5126953-2.3769531,1.8183594-.0898438.0898438-.4863281.5400391-.5761719.6298828-.0722656.0722656-.2158203.1083984-.3056641.1083984-.6308594,0-1.8193359-1.5126953-1.8193359-2.3583984,0-.3242188.1083984-.5947266.1806641-.7929688.4140625.8105469.9365234,1.1884766,1.3144531,1.1884766.59375,0,3.3847656-2.0703125,4.1591797-2.6640625,2.8984375-2.2148438,4.2851562-3.7636719,5.7431641-5.4384766l.0908203.0546875c-.4326172,1.3144531-2.4492188,4.4111328-6.4101562,7.4541016Z"/>
        <path class="cls-2" d="m154.734375,37.5556641c3.8710938-2.1601562,7.5439453-6.1035156,9.21875-10.3525391-.7197266.0722656-1.9443359.2695312-2.7001953.3603516-.0908203.0175781-.4863281.0712891-.5761719.0712891-.3066406,0-.7207031-.1972656-.9189453-.3056641-1.1523438,1.4580078-2.2324219,2.8447266-4.7714844,4.1767578l-.0898438-.1435547c2.953125-2.7011719,4.6992188-5.9238281,4.6992188-6.5175781,0-.1806641-.0361328-.3242188-.9902344-.9003906.4326172-.1445312.828125-.1445312.8828125-.1445312.7197266,0,2.0341797.828125,2.0341797,1.296875,0,.1982422-.0722656.2519531-.4140625.5761719-.2519531.2333984-.3603516.3779297-.8818359,1.0615234.7919922.0908203,3.0605469-.1611328,3.5283203-.3232422.1621094-.0546875.7929688-.5400391.9550781-.5400391.1611328,0,1.4941406,1.0615234,1.4941406,1.421875,0,.1445312-.0537109.1796875-.5585938.4140625-.4140625.1982422-.5761719.3417969-.9716797,1.1162109-1.6025391,3.0966797-3.1152344,4.8076172-4.6279297,6.0683594-.7382812.6123047-2.8447266,2.25-5.2753906,2.7900391l-.0361328-.1259766Zm12.6757812-11.8115234c0,.2529297-.1259766.5224609-.4677734.5224609-.2158203,0-.3427734-.0898438-.5761719-.3603516-.6484375-.7558594-1.0800781-1.2958984-2.0888672-1.9804688,1.6386719.1445312,3.1328125.8466797,3.1328125,1.8183594Zm1.7285156-.8457031c0,.4677734-.3056641.4677734-.4316406.4677734-.1982422,0-.234375-.0361328-1.0087891-.7744141-.1435547-.1435547-.8642578-.8457031-1.8359375-1.2783203,1.3857422.0361328,3.2763672.3603516,3.2763672,1.5849609Z"/>
        <path class="cls-2" d="m179.3603516,36.6015625c-.4863281.5761719-1.2246094,1.1523438-1.7460938,1.1523438-.4140625,0-.4863281-.2880859-.5400391-.59375-.1259766-.7568359-.1621094-.9003906-1.3330078-2.5927734l.0546875-.0722656c1.5664062,1.0800781,1.9082031,1.2060547,2.2324219,1.2060547s.5576172-.2333984.7021484-.5214844c.8457031-1.6748047,1.2597656-3.5117188,1.2597656-5.3837891,0-.7021484,0-1.9628906-1.2060547-1.9628906-.4316406,0-.7919922.0898438-1.1884766.1806641-1.0439453,2.5205078-1.7460938,4.1767578-3.7626953,8.0839844-.234375.4501953-.6298828,1.1523438-1.0263672,1.1523438-.3603516,0-.5761719-.4316406-.5761719-.8466797,0-.4316406.1796875-.6835938.3964844-.9902344,1.1699219-1.6738281,2.1425781-3.0605469,3.7988281-7.0576172-.6845703.2519531-1.8730469.7197266-2.5390625,1.1523438-.2695312.1796875-.4863281.3242188-.7558594.3242188-.5400391,0-1.4951172-.7568359-1.4951172-1.65625,0-.3066406.1083984-.5048828.2167969-.7207031.3242188.6123047.7197266.9365234,1.2236328.9365234.4326172,0,3.0976562-.7382812,3.6914062-.8828125.2705078-.7197266.8105469-2.1787109.8105469-2.8261719,0-.7207031-1.0625-1.1884766-1.3144531-1.2783203.2158203-.1269531.4316406-.2880859.9003906-.2880859.9541016,0,2.0527344.828125,2.0527344,1.2783203,0,.2519531-.1445312.5214844-.2705078.7382812-.3964844.7197266-.7021484,1.3681641-1.0439453,2.1425781.3242188-.0722656.6123047-.1083984.9716797-.1083984,2.1074219,0,2.1972656,1.6923828,2.1972656,3.1152344,0,2.1240234-.7207031,5.1669922-1.7109375,6.3193359Zm7.2919922-4.2314453c-.1796875,0-.8457031-.3955078-.9902344-.4501953-.7558594-.3417969-1.2421875-.4677734-2.4482422-.6298828v-.1435547c.2695312-.0185547,2.25-.1806641,2.25-.7929688,0-.1796875-.828125-1.9619141-3.3662109-3.5283203,1.8359375.0712891,5.0048828,2.1601562,5.0048828,4.5908203,0,.1445312,0,.9541016-.4501953.9541016Zm-.9179688-5.4912109c-.1621094,0-.4316406-.234375-.8642578-.59375-.6845703-.5947266-1.4228516-1.0986328-2.2509766-1.3505859.234375-.0361328.3789062-.0722656.7207031-.0722656.9541016,0,2.8808594.4326172,2.8808594,1.4765625,0,.2519531-.1621094.5400391-.4863281.5400391Zm1.7646484-1.4042969c-.234375,0-1.0263672-.7207031-1.2060547-.8466797-.6484375-.4501953-1.3691406-.7919922-2.125-.9716797.2880859-.0546875.6123047-.1259766,1.1162109-.1259766.3242188,0,2.5927734.0712891,2.5927734,1.4404297,0,.2333984-.0898438.5039062-.3779297.5039062Z"/>
        <path class="cls-2" d="m204.9404297,24.3945312h-3.2050781c0,.9541016,0,12.0996094-.0175781,12.3330078-.1083984,1.0263672-1.1699219,1.5126953-1.9990234,1.6748047-.0898438-.5761719-.1611328-.9726562-2.3222656-2.0703125v-.1083984c.234375.0361328,1.6923828.1621094,2.1425781.1621094.4677734,0,.7919922,0,.8642578-.2880859.0537109-.234375.0537109-3.8173828.0537109-4.3935547,0-1.1699219-.0537109-6.265625-.0175781-7.3095703h-8.8046875c-.1796875,0-1.2958984,0-2.125.1621094l-.359375-.7207031c1.2597656.1083984,2.6103516.1259766,2.7724609.1259766h10.5869141l.828125-.9541016c.0908203-.1083984.1982422-.234375.2880859-.234375.0908203,0,.1982422.0898438.3242188.1982422l1.0986328.9541016c.0898438.0898438.1796875.1621094.1796875.2705078,0,.1796875-.1621094.1982422-.2880859.1982422Zm-7.9042969,3.5107422c0,.5224609.0185547,2.1962891.0185547,2.7363281,0,.3964844.0537109,2.1435547.0537109,2.5029297,0,.9189453-.6484375.9541016-.8466797.9541016-.5400391,0-.5214844-.4501953-.5214844-1.0263672h-2.6474609c.0361328.9726562.0908203,1.7109375-.8642578,1.7109375-.3417969,0-.5761719-.1621094-.5761719-.5585938,0-.1435547.0546875-.828125.0546875-.9716797.0537109-1.8730469.0537109-3.2587891.0537109-4.7900391,0-1.1337891-.0175781-1.5302734-.2695312-2.3398438l1.6738281.9003906h2.4667969l.4863281-.46875c.1435547-.1435547.234375-.2158203.3056641-.2158203.0722656,0,.1259766.0175781.3066406.1621094l.7197266.5761719c.1445312.1259766.2167969.1796875.2167969.3056641,0,.1621094-.2880859.3242188-.6308594.5224609Zm-1.2958984-.4501953h-2.6474609v5.1855469h2.6474609v-5.1855469Z"/>
        <path class="cls-2" d="m214.7841797,27.5996094c-.4501953,0-.6835938-.4501953-.7919922-.703125-.0537109-.1259766-.234375-.6660156-.2880859-.7734375-1.5126953.3779297-3.4755859.828125-4.9697266,1.0263672-.1074219.2519531-.234375.4853516-.4316406.4853516-.1259766,0-.2167969-.1259766-.2705078-.2695312l-.5224609-1.6923828c.9189453.3056641,1.8007812.3056641,2.359375.3056641.1982422-.3603516,1.2236328-2.5205078,1.1884766-3.9609375l1.7460938.9003906c.1083984.0537109.2158203.1435547.2158203.3056641,0,.1259766,0,.234375-.828125.3242188-.7021484,1.1347656-1.890625,2.4130859-1.9082031,2.4306641.2158203,0,2.5380859-.0361328,3.3125-.0898438-.4677734-.9179688-.7558594-1.1884766-1.0439453-1.4589844l.0175781-.0712891c1.7285156.4140625,2.8808594,1.5839844,2.8808594,2.4306641,0,.3242188-.1796875.8105469-.6660156.8105469Zm-.6123047,1.8720703v6.0322266c0,1.5302734-.0175781,2.0341797-.5039062,2.484375-.1259766.1083984-.5224609.4677734-1.3144531.5761719-.2695312-1.0263672-.8457031-1.4042969-1.2958984-1.6923828l.0351562-.1083984c.6669922.0898438,1.296875.1445312,1.4228516.1445312.1083984,0,.3779297,0,.4140625-.2167969.0185547-.2158203.0537109-2.2324219.0537109-2.3398438h-3.0605469c.0175781.59375.0537109,2.5927734.0537109,3.1142578,0,.8828125-.6298828.9726562-.828125.9726562-.5039062,0-.5576172-.3779297-.5576172-.5761719,0-.0537109.0175781-.0722656.0175781-.1806641.1445312-2.2324219.1621094-4.4824219.1621094-6.7158203,0-2.1601562-.0898438-2.6826172-.1435547-3.0605469l1.4755859.7744141h2.7011719l.4677734-.5224609c.0722656-.0722656.1259766-.1259766.2167969-.1259766.0712891,0,.1074219.0175781.2519531.1083984l.828125.5576172c.1435547.0898438.1621094.2158203.1621094.2519531,0,.1259766-.1621094.3242188-.5585938.5224609Zm-1.1884766-.3603516h-3.0605469v2.1611328h3.0605469v-2.1611328Zm0,2.5927734h-3.0605469v2.2148438h3.0605469v-2.2148438Zm6.3378906,6.5185547c-3.1328125,0-3.1328125-.234375-3.1328125-1.9628906,0-.7382812,0-4.375-.0175781-4.9335938-.0361328-.7197266-.0722656-.9179688-.1982422-1.2421875l1.8369141.5400391c.1074219.0361328.2519531.1259766.2519531.2705078,0,.1435547-.1259766.359375-.6845703.5214844,0,.3779297-.0361328,2.0527344-.0361328,2.4130859.7568359-.3417969,2.6826172-1.3867188,3.4570312-2.7011719l1.3144531,1.2246094c.0898438.0898438.1083984.1435547.1083984.2158203,0,.1083984-.0537109.2519531-.2519531.2519531-.1445312,0-.3603516-.0351562-.46875-.0712891-1.3320312.7734375-3.2949219,1.2236328-4.1591797,1.3681641-.0175781.4316406-.0361328,2.3945312.0361328,2.6103516.1083984.2880859.4140625.3603516,1.5126953.3603516,2.3408203,0,2.7548828,0,3.2773438-2.9345703h.1259766c.2519531,1.8544922.2695312,2.0527344.5214844,2.25.3066406.2167969.3066406.234375.3066406.3964844,0,1.4228516-2.5029297,1.4228516-3.7998047,1.4228516Zm3.1513672-8.625c-.5585938.2705078-1.2607422.2880859-2.484375.2880859-3.7451172,0-3.7451172-.0537109-3.7636719-2.2685547-.0537109-4.1230469-.0537109-4.5917969-.2158203-5.3837891l1.8544922.5947266c.1259766.0351562.2705078.0898438.2705078.2519531,0,.2880859-.4863281.4863281-.7207031.5761719-.0361328.7021484-.0361328,1.8720703-.0361328,2.6103516.46875-.1982422,2.7373047-1.1337891,3.5830078-2.5390625l1.2246094,1.2246094c.0722656.0722656.1259766.1445312.1259766.2519531,0,.1259766-.1083984.2519531-.3242188.2519531-.0537109,0-.1074219,0-.3056641-.0712891-2.0888672.8095703-3.6376953,1.0976562-4.3037109,1.1523438,0,.5761719,0,1.6201172.0185547,1.7285156.0351562.1621094.1435547.3242188.3955078.3779297.234375.0361328,1.8730469.0722656,2.1425781.0722656,1.1523438,0,1.4765625-.1083984,1.7285156-.5947266.2519531-.5039062.4863281-1.3144531.5947266-1.9628906h.1259766c.0537109.5048828.2333984,2.0712891.4863281,2.2509766.1435547.0898438.3056641.1982422.3056641.3964844,0,.1796875-.1621094.5400391-.7021484.7919922Z"/>
      </g>
      <g>
        <g>
          <path class="cls-2" d="m44.34375,139.8164062h-11.8447266c-.5605469,0-1.4560547.0634766-2.0644531.1923828l-.3681641-.6884766c1.2001953.0957031,2.3525391.1123047,2.6572266.1123047h4.0976562c0-2.3857422-.0322266-4.7539062-.0488281-7.1396484h-3.28125c-.5761719,0-1.4560547.0644531-2.0644531.1767578l-.3837891-.6884766c1.2001953.0957031,2.3681641.1279297,2.6728516.1279297h3.0566406c-.015625-4.0820312-.1279297-4.4501953-.3681641-5.234375l1.6005859.4482422c.1601562.0478516.2724609.1445312.2724609.2558594,0,.1445312-.1601562.2880859-.6083984.5449219,0,1.1357422-.015625,2.2568359-.015625,3.3925781v.5927734h3.3613281l.5439453-.7685547c.0322266-.0322266.1601562-.1914062.2402344-.1914062.0957031,0,.2402344.1113281.3037109.1591797l.9130859.7685547c.0800781.0644531.1601562.1279297.1601562.2402344,0,.1445312-.1289062.1757812-.2402344.1757812h-5.2822266c.015625,1.6494141.015625,1.8085938.015625,3.3134766v3.8261719h4.6582031l.6884766-.7851562c.1601562-.1757812.1914062-.1914062.2558594-.1914062.0800781,0,.2558594.1279297.3037109.1601562l.8486328.7841797c.1123047.0957031.1601562.1435547.1601562.2558594,0,.1445312-.1279297.1601562-.2402344.1601562Z"/>
          <path class="cls-2" d="m51.8759766,131.9726562h-2.0800781c0,1.7929688-.0166016,3.5859375-.0166016,5.3789062.4326172-.1445312,2.0175781-.640625,2.2568359-.7363281l.0644531.1279297c-.7041016.4804688-1.6650391.9287109-2.4326172,1.2802734-1.1845703.5283203-1.5849609.7363281-1.9853516.9287109-.1601562.4316406-.1923828.4804688-.3359375.4804688-.0957031,0-.1757812-.0800781-.2080078-.1445312l-.7363281-1.2001953c1.0244141-.0800781,1.1845703-.1279297,2.5927734-.5126953v-5.6025391h-.2236328c-.5761719,0-1.4570312.0644531-2.0654297.1923828l-.3681641-.6884766c.9765625.0800781,1.8251953.1123047,2.6572266.1123047-.015625-2.4970703-.015625-2.5927734-.0322266-3.3291016-.03125-.7841797-.1435547-1.1367188-.2392578-1.4404297l1.4560547.5283203c.2080078.0800781.2402344.0800781.2402344.1757812,0,.1601562-.3837891.4804688-.5605469.6240234-.0634766,1.6171875-.0634766,2.1611328-.0634766,3.4414062h.7998047l.3681641-.4160156c.0966797-.1123047.1601562-.1923828.2402344-.1923828s.2246094.1123047.2880859.1601562l.4804688.4160156c.0800781.0800781.1601562.1601562.1601562.2568359,0,.1435547-.1445312.1591797-.2568359.1591797Zm7.1074219,8.1318359c-.2880859.0478516-3.2333984.0478516-3.7773438.0478516-1.7128906,0-1.9052734,0-2.3212891-.1923828-.4482422-.2080078-.4960938-.5917969-.4960938-1.0722656,0-.8798828.015625-4.7216797.015625-5.5058594-.7197266.3359375-1.328125.6884766-1.7119141.9599609l-.625-.4960938c.3203125-.0957031,1.0566406-.3515625,2.3369141-.8798828,0-.4482422.0322266-2.4492188.0322266-2.8496094,0-.6240234-.0478516-.9765625-.2402344-1.7607422l1.3769531.4960938c.0957031.0322266.2080078.0800781.2080078.1923828,0,.0957031-.0644531.1445312-.5283203.5761719-.015625.4804688-.0322266,2.5771484-.0322266,2.9931641l1.9853516-.8642578c.015625-3.8417969-.0478516-4.2099609-.2880859-5.265625l1.4560547.4794922c.0966797.0322266.2402344.0966797.2402344.1923828s-.0634766.1601562-.1601562.2558594c-.1279297.1445312-.3837891.3847656-.4316406.4160156-.0166016.6728516-.0322266,1.1523438-.0166016,3.5859375l1.8730469-.8164062.3203125-.5439453c.1279297-.1767578.1435547-.1923828.1914062-.1923828.0800781,0,.1601562.0478516.2089844.0800781l.7041016.4160156c.0322266.0322266.1279297.0800781.1279297.1923828,0,.1435547-.0478516.1757812-.4160156.5117188-.0644531,2.9296875-.0800781,4.1621094-.2402344,4.8818359-.2402344,1.1533203-1.0722656,1.4091797-1.4726562,1.5371094-.2246094-.7207031-.7519531-.9287109-.9443359-1.0087891l.015625-.1279297c.2558594.0478516.4003906.0800781.5927734.0800781.7041016,0,.8798828-.3359375.9599609-.5439453.2724609-.65625.2724609-3.2333984.2724609-4.0820312,0-.2236328-.0322266-.6083984-.0478516-.9121094l-2.1455078.9443359c0,.4638672.0166016,2.5126953.0166016,2.9453125,0,.2558594.0957031,2.5771484.0957031,2.8007812,0,.2080078,0,.7207031-.7041016.7207031-.1923828,0-.3046875-.0322266-.3046875-.2402344,0-.1601562.0488281-.8642578.0644531-.9921875.015625-.7841797.015625-1.7773438.0322266-4.8984375l-1.9853516.8642578c0,.6728516-.015625,5.7626953,0,5.9228516.0478516.3359375.3525391.3837891.4804688.4003906.0957031.015625,2.1289062.015625,2.4169922.015625,2.1933594,0,2.3212891-.0478516,2.5449219-.1445312.3046875-.1113281.4326172-.3515625.65625-.8798828.1123047-.2880859.1601562-.4160156.5283203-1.5205078h.1445312c0,.1923828.015625,1.0722656.03125,1.2646484.0166016.1914062.0644531.5917969.3046875.7519531.1279297.0800781.1435547.0957031.1435547.1757812,0,.2246094-.3037109.9287109-1.4882812,1.0888672Z"/>
          <path class="cls-2" d="m44.2001953,145.7158203h-6.4189453c-.3525391.65625-1.2490234,1.8085938-1.9365234,2.6728516h6.0019531l.4482422-.4482422c.1445312-.1445312.1923828-.1923828.2880859-.1923828.0800781,0,.1923828.0966797.2724609.1601562l.6240234.4960938c.0478516.0478516.1445312.1445312.1445312.2402344,0,.0800781-.0488281.1279297-.0966797.1601562-.0800781.0644531-.4960938.2880859-.5761719.3359375-.015625.0478516,0,4.8505859.0644531,7.5712891,0,.1923828.0478516,1.1044922.0478516,1.2480469,0,.1601562-.0166016.2880859-.1279297.4003906-.0966797.0966797-.2880859.1923828-.4804688.1923828-.4160156,0-.4160156-.1445312-.4160156-1.1689453h-9.4599609v.6884766c0,.2246094-.2880859.5761719-.671875.5761719-.3681641,0-.3681641-.2880859-.3681641-.4003906,0-.1914062.03125-1.1201172.03125-1.34375.0166016-1.8730469.1123047-4.8662109.1123047-6.7392578,0-1.1845703-.015625-1.6328125-.1923828-2.4648438l1.4091797.6884766h2.7373047c.2714844-.6240234.7998047-2.0332031.9599609-2.6728516h-4.0332031c-.3369141,0-1.296875.03125-2.0654297.1757812l-.3837891-.6884766c.8320312.0644531,1.8408203.1279297,2.6728516.1279297h9.4277344l.65625-.6396484c.1279297-.1289062.2402344-.2402344.3203125-.2402344s.2236328.1279297.2880859.1757812l.8164062.671875c.0478516.0488281.1435547.1445312.1435547.2402344,0,.1767578-.1591797.1767578-.2392578.1767578Zm-9.2197266,3.0566406h-2.4169922v8.2275391h2.4169922v-8.2275391Zm3.5849609,0h-2.7529297v2.3847656h2.7529297v-2.3847656Zm0,2.7695312h-2.7529297v2.4003906h2.7529297v-2.4003906Zm0,2.7851562h-2.7529297v2.6728516h2.7529297v-2.6728516Zm3.4736328-5.5546875h-2.6416016v8.2275391h2.6416016v-8.2275391Z"/>
          <path class="cls-2" d="m51.6201172,145.3310547c-.1435547,0-.4003906-.015625-.5761719-.0322266-.2402344.0966797-.5439453.2089844-1.5683594.4648438v2.9453125h.5917969l.4003906-.4804688c.0957031-.1123047.1923828-.2080078.2558594-.2080078.0644531,0,.1767578.0634766.3046875.1757812l.5595703.4804688c.0966797.0800781.1601562.1601562.1601562.2402344,0,.1435547-.1279297.1757812-.2402344.1757812h-2.0322266v1.4882812c1.328125.3681641,2.1123047,1.5048828,2.1123047,1.96875,0,.3046875-.2392578.5126953-.5117188.5126953-.2880859,0-.3203125-.0800781-.6240234-.8486328-.4003906-1.0244141-.7207031-1.2958984-.9765625-1.4404297v1.6162109c0,.8652344.0478516,5.2509766.0478516,5.4423828,0,.4160156,0,.5761719-.0800781.7207031-.0957031.1923828-.3681641.3203125-.6083984.3203125-.3203125,0-.3359375-.2080078-.3359375-.3369141,0-.0957031.0644531-1.1523438.0800781-1.3603516.1123047-2.2568359.1279297-2.9765625.1279297-6.3066406-.7041016,1.6171875-1.5048828,2.9453125-3.1210938,4.3544922l-.1123047-.1123047c1.4726562-1.6972656,2.609375-4.6103516,3.0898438-6.0341797-.8642578,0-1.6650391.0800781-2.2255859.1914062l-.3837891-.6875c1.4082031.1113281,2.4970703.1113281,2.7373047.1113281v-2.7529297c-.8808594.1757812-1.7607422.3359375-2.6572266.3525391l-.015625-.1279297c.9121094-.2246094,2.9609375-.9765625,3.1044922-1.0244141,1.1689453-.4482422,1.3291016-.625,1.6171875-.9931641l1.0078125.8486328c.0800781.0644531.0966797.1279297.0966797.1923828,0,.1435547-.1767578.1435547-.2246094.1435547Zm3.1054688,12.4052734c-.1757812,0-.2880859-.015625-.4003906-.0322266-1.1523438.5927734-2.8486328,1.0087891-3.5527344,1.0722656l-.0644531-.0957031c1.1201172-.5439453,1.96875-1.0566406,2.4970703-1.4082031.1923828-.1279297.7197266-.4482422.8320312-.7363281l.9921875.7519531c.0800781.0644531.1445312.1279297.1445312.2236328,0,.1445312-.0478516.2246094-.4482422.2246094Zm5.6347656-7.9394531h-5.9550781c-.4960938,0-1.3925781.0644531-2.0488281.1923828l-.3837891-.6884766c.8964844.0644531,1.7763672.1123047,2.6572266.1123047h.4794922v-1.4248047h-.2714844c-.4960938,0-1.4091797.0644531-2.0654297.1923828l-.3681641-.6884766c1.0566406.0800781,1.7451172.1123047,2.7050781.1123047v-1.3125h-.9121094c-.4960938,0-1.4082031.0634766-2.0644531.1914062l-.3681641-.7041016c.8798828.0800781,1.7763672.1279297,2.6572266.1279297h.6875c-.015625-.8320312-.015625-.9277344-.2392578-1.7128906l1.4082031.4482422c.0800781.0322266.2236328.0800781.2236328.2089844,0,.1113281-.0800781.1914062-.2558594.2880859-.1279297.0634766-.1923828.0957031-.2724609.1435547v.6240234h2.0654297l.3681641-.5595703c.0634766-.0966797.1279297-.2246094.2236328-.2246094.0966797,0,.2080078.1123047.3046875.1923828l.65625.5595703c.0957031.0800781.1601562.1445312.1601562.2402344,0,.1445312-.1445312.1767578-.2402344.1767578h-3.5380859v1.3125h1.5693359l.4003906-.4960938c.0634766-.0644531.1435547-.2080078.2392578-.2080078.0966797,0,.1923828.1279297.2724609.2080078l.4638672.4638672c.0800781.0800781.1601562.1435547.1601562.2724609,0,.1279297-.1279297.1435547-.2402344.1435547h-2.8652344v1.4248047h2.9941406l.3837891-.5126953c.0800781-.0957031.1435547-.1914062.2558594-.1914062.0957031,0,.1923828.0800781.2880859.1757812l.5439453.5283203c.1123047.0957031.1601562.1435547.1601562.2558594,0,.1279297-.1435547.1279297-.2392578.1279297Zm-1.8095703,1.953125c-.03125.6396484.0800781,3.4570312.0800781,4.0332031,0,.2724609,0,.6728516-.5917969.6728516-.3046875,0-.3046875-.2080078-.3046875-.4003906h-4.0976562c.0166016.0957031,0,.2558594-.0634766.3037109-.1601562.1445312-.4003906.2246094-.5761719.2246094-.1445312,0-.2724609-.0478516-.2724609-.2724609,0-.0478516.0478516-.7363281.0478516-.8642578,0-.6240234.0322266-3.3291016.0322266-3.8730469,0-.3203125,0-.4804688-.1435547-1.1367188l1.0556641.5117188h3.90625l.2880859-.3359375c.0322266-.0478516.1113281-.1601562.1757812-.1601562s.1601562.0966797.2246094.1445312l.65625.5283203c.0634766.0634766.1113281.1113281.1113281.2080078,0,.1757812-.3037109.3037109-.5283203.4160156Zm-.7998047-.4160156h-4.1142578v1.1523438h4.1142578v-1.1523438Zm0,1.5361328h-4.1142578v1.2001953h4.1142578v-1.2001953Zm0,1.5849609h-4.1142578v1.2167969h4.1142578v-1.2167969Zm1.5683594,4.5136719c-.3037109,0-.4638672-.1923828-.9287109-.7363281-.0634766-.0644531-.5761719-.5439453-.8798828-.8164062-.5126953-.4482422-.7041016-.5117188-.9287109-.6083984v-.1279297c1.0244141.1279297,2.1933594.6240234,2.59375.8642578.2236328.1279297.671875.3847656.671875.8808594,0,.3037109-.2236328.5439453-.5283203.5439453Z"/>
        </g>
        <g>
          <path class="cls-2" d="m177.6992188,154.9033203c-.9121094.3359375-1.8242188.671875-2.7363281.9921875-.0966797.3037109-.1445312.4804688-.3369141.4804688-.0634766,0-.1279297-.0166016-.2558594-.2880859l-.5605469-1.1367188c.4169922.015625.6728516.015625,1.2490234-.1123047.4960938-.1113281.640625-.1279297,1.0878906-.2236328,0-.4160156.0166016-5.3779297,0-5.7304688-.3037109,0-1.2158203.0478516-1.9199219.1923828l-.3681641-.7050781c.6240234.0644531,1.3603516.0966797,2.2880859.1289062,0-.4648438-.03125-2.4492188-.03125-2.8496094-.0166016-.7207031-.0800781-.9921875-.1445312-1.296875l1.2802734.3847656c.1767578.0478516.3369141.0957031.3369141.2402344,0,.1601562-.0488281.1914062-.5126953.5117188,0,.3203125-.0322266,2.7851562-.0322266,3.0097656h.7207031l.5117188-.6083984c.0966797-.1123047.1767578-.2080078.2568359-.2080078s.1914062.0957031.2880859.2080078l.5439453.5595703c.0800781.0966797.1601562.1601562.1601562.2724609,0,.1445312-.1445312.1601562-.2402344.1601562h-2.2568359c-.0322266,2.4492188-.0322266,3.2167969-.0478516,5.5537109,1.1523438-.2236328,1.2802734-.2714844,2.1767578-.4472656.6083984-.1289062.7363281-.1767578.9921875-.2246094l.0166016.1123047c-.4169922.1914062-.8964844.4316406-2.4658203,1.0244141Zm10.6767578-1.9365234h-4.4179688c.0322266,2,.0478516,2.625.0644531,3.5371094.015625.4960938.0634766,1.2646484.0634766,1.7607422,0,.5439453-.5595703.6884766-.7685547.6884766-.3681641,0-.3681641-.3369141-.3681641-.5283203,0-.2080078.0966797-3.2333984.0966797-3.8417969,0-.2402344.015625-1.3603516.015625-1.6162109h-2.2724609c-.4804688,0-1.3925781.0478516-2.0654297.1757812l-.3681641-.6884766c.8330078.0800781,1.8251953.1279297,2.6572266.1279297h2.0488281c.0166016-1.5205078.0478516-5.890625.0478516-6.7705078h-1.7441406c-.4804688,0-1.3925781.0478516-2.0654297.1757812l-.3681641-.6884766c.8330078.0644531,1.8251953.1289062,2.6572266.1289062h4.4023438l.4316406-.5761719c.0800781-.1123047.1445312-.2246094.2402344-.2246094s.1923828.0957031.2880859.1601562l.8320312.6083984c.1123047.0800781.1767578.1279297.1767578.2402344,0,.1601562-.1767578.1757812-.2568359.1757812h-3.7773438c0,2.2568359,0,4.609375.0322266,6.7705078h2.4814453l.5761719-.7841797c.0634766-.0800781.1279297-.1923828.2236328-.1923828.0966797,0,.1757812.0800781.3046875.1767578l.9121094.7675781c.0800781.0644531.1601562.1289062.1601562.2402344,0,.1767578-.1767578.1767578-.2402344.1767578Zm-7.1865234-2.1289062c-.3525391,0-.4169922-.2568359-.5927734-1.0732422-.1757812-.7519531-.5283203-1.9199219-1.0566406-2.3681641l.0478516-.0800781c1.5214844.8164062,2.2089844,2.0644531,2.2089844,2.8164062,0,.5126953-.3837891.7050781-.6074219.7050781Zm5.9697266-2.6894531c-.5761719.8798828-1.7929688,2.4169922-2.3525391,2.9130859l-.0644531-.0322266c.1601562-.2880859,1.3925781-2.7685547,1.5371094-4.1289062l1.2158203.6396484c.0644531.0322266.1923828.1279297.1923828.2558594,0,.2080078-.1279297.2402344-.5283203.3525391Z"/>
          <path class="cls-2" d="m203.7998047,158.2001953c-.640625.0800781-1.3291016.0966797-2.2890625.0966797-5.3945312,0-6.5146484-.3847656-7.6347656-1.3125-.3203125-.2724609-1.2011719-1.0244141-1.7929688-2.4013672-.3359375,1.6650391-.9443359,2.8652344-2.2412109,4.1777344l-.0957031-.0644531c1.0566406-1.8242188,1.7285156-3.8730469,1.7285156-5.9863281,0-.8476562-.0800781-1.1357422-.1757812-1.4560547l1.1044922.2236328c.2080078.0478516.3515625.0644531.3515625.2402344,0,.1279297-.0478516.1601562-.4160156.4804688-.015625.4960938-.0322266.9443359-.1757812,1.8720703.4160156,1.0566406.9765625,1.6015625,1.2646484,1.8730469v-3.2646484c0-1.5693359-.0478516-2.0175781-.1123047-2.4970703h-.8642578c-.5605469,0-1.4404297.0634766-2.0488281.1914062l-.3837891-.6884766c1.2001953.0966797,2.3681641.1123047,2.65625.1123047h.7363281c-.015625-.3837891,0-2.1123047,0-2.4648438h-.3837891c-.5761719,0-1.4570312.0644531-2.0644531.1757812l-.3847656-.6875c1.0087891.0800781,2.0654297.1279297,2.8330078.1279297,0-1.2167969-.015625-1.3447266-.1914062-2.7695312l1.1845703.3203125c.2880859.0800781.3681641.1123047.3681641.2558594,0,.1601562-.0488281.1923828-.4970703.5126953v1.6806641h1.1845703l.3847656-.5283203c.0800781-.1123047.1435547-.2080078.2558594-.2080078.0800781,0,.2236328.1279297.2724609.1757812l.6240234.5283203c.0957031.0800781.1601562.1279297.1601562.2402344,0,.1435547-.1279297.1757812-.2402344.1757812h-2.6572266v2.4648438h1.2802734l.4003906-.5917969c.1279297-.1767578.1923828-.1923828.2558594-.1923828.0966797,0,.2568359.1279297.2880859.1601562l.6884766.5917969c.0957031.0800781.1601562.1445312.1601562.2568359,0,.1435547-.1279297.1601562-.2402344.1601562h-3.4892578l.7519531.2558594c.3203125.1123047.3847656.1601562.3847656.2558594,0,.1601562-.0478516.1923828-.4648438.4960938-.015625.7363281-.015625.8320312-.015625,1.6484375h1.0244141l.3837891-.5595703c.0966797-.1445312.1601562-.2080078.2568359-.2080078.0634766,0,.1113281.015625.2880859.1601562l.7041016.5761719c.0634766.0634766.1601562.1279297.1601562.2402344,0,.1435547-.1445312.1757812-.2402344.1757812h-2.5615234v3.3613281c1.4892578.8798828,3.0898438.8798828,4.2099609.8798828.2402344,0,4.6103516-.03125,6.1308594-.6240234l.0478516.1279297c-.2558594.1445312-.5761719.3359375-.8642578,1.2324219Zm-.2558594-11.8769531c-.1445312,1.5693359-.1923828,2.0810547-.4482422,2.8339844-.5283203,1.5683594-1.28125,1.5683594-1.7773438,1.5839844,0-.3037109-.0478516-.4638672-.2558594-.6884766-.0644531-.0800781-.3681641-.4160156-.8964844-.6875l.0478516-.1279297c.3681641.1279297.8007812.3037109,1.28125.3037109.6074219,0,.9121094-.5126953,1.0556641-1.6171875.0966797-.671875.1767578-1.4082031.1279297-2.0166016h-2.4326172c-.3515625,2.9619141-1.1845703,4.59375-3.7617188,5.3466797l-.03125-.0966797c2.5927734-1.6806641,2.8007812-3.8095703,2.9130859-5.25-.8164062,0-1.6328125.0966797-2.1611328.1923828l-.3681641-.6884766c1.2001953.0966797,2.3525391.1123047,2.6572266.1123047h3.1054688l.2392578-.2880859c.1601562-.1923828.1601562-.2080078.2246094-.2080078.0800781,0,.1279297.0478516.2236328.1123047l.640625.4160156c.0800781.0478516.1601562.1113281.1601562.2236328,0,.1445312-.0800781.2402344-.5439453.5439453Zm-.3203125,5.9072266c0,.4638672.0634766,2.7529297.0634766,3.28125,0,.3681641-.2880859.5761719-.5439453.5761719-.4003906,0-.3681641-.3359375-.3525391-.640625h-3.96875c.015625.2402344.0478516.7685547-.5605469.7685547-.3525391,0-.3525391-.2080078-.3525391-.3847656,0-.3359375.0800781-2.0166016.0800781-2.4003906,0-.4160156-.015625-1.4091797-.1279297-2.2246094l.9287109.3681641h3.7773438l.3037109-.3203125c.1289062-.1445312.1601562-.1767578.2080078-.1767578.0488281,0,.2246094.1123047.3046875.1923828l.4160156.3046875c.1279297.0957031.1923828.1591797.1923828.2714844,0,.1279297-.0322266.1445312-.3681641.3847656Zm-.8164062-.2724609h-4.0019531v3.1054688h4.0019531v-3.1054688Z"/>
        </g>
        <g>
          <path class="cls-2" d="m103.7128906,78.7988281c-4.703125-1.9921875-8.015625-5.640625-9.3359375-8.4492188h-.1445312c-3,4.5371094-8.2558594,9.0966797-11.7617188,10.0087891l-.0957031-.1435547c4.1054688-2.8798828,6.9609375-5.6884766,9.7929688-10.3925781.5527344-.8886719.5761719-1.1044922.6484375-1.5126953l2.2558594,1.2246094c.1210938.0712891.1914062.1435547.1914062.3115234,0,.1201172-.0957031.3359375-.5039062.4326172,2.28125,3.2402344,6.8417969,5.9765625,10.921875,6.3359375v.1923828c-.2636719.1435547-1.4394531.8154297-1.96875,1.9921875Zm.0488281,10.5371094h-16.3457031c-.2402344,0-1.7285156,0-2.8320312.2158203l-.4804688-.9599609c1.65625.1435547,3.4804688.1679688,3.6972656.1679688h5.1835938v-4.6328125h-3.5039062c-.5996094,0-1.7519531,0-2.8320312.2158203l-.4804688-.9599609c1.4882812.1201172,2.9765625.1679688,3.6953125.1679688h3.1210938v-4.3203125h-2.1835938c-.6015625,0-1.7519531.0244141-2.8320312.2158203l-.4570312-.9599609c1.6328125.1445312,3.3359375.1679688,3.671875.1679688h6.0722656l.9375-1.1757812c.1425781-.1679688.2402344-.2636719.3359375-.2636719.1425781,0,.2402344.0478516.4082031.1914062l1.5839844,1.2001953c.0722656.0478516.2402344.1923828.2402344.3603516,0,.2402344-.2167969.2636719-.3613281.2636719h-5.7363281v4.3203125h3.5761719l.8652344-1.1279297c.0957031-.1435547.2402344-.2880859.359375-.2880859.0957031,0,.1914062.0244141.4550781.2402344l1.4179688,1.1279297c.1191406.0957031.2382812.1923828.2382812.3603516,0,.2158203-.1914062.2636719-.359375.2636719h-6.5527344v4.6328125h5.8574219l1.1523438-1.2958984c.0703125-.0722656.1914062-.2167969.3105469-.2167969.1210938,0,.2402344.1201172.4335938.2646484l1.4628906,1.2001953c.1210938.0957031.2402344.2158203.2402344.359375,0,.2402344-.2167969.2646484-.359375.2646484Z"/>
          <path class="cls-2" d="m130.1621094,88.8798828h-17.0898438c.0234375.5996094-.1679688,1.4394531-1.3925781,1.4394531-.5996094,0-.6484375-.3115234-.6484375-.5761719,0-.0957031.0976562-2.015625.1210938-2.3994141.1445312-3.0966797.2148438-13.2255859.2148438-13.4414062,0-2.8808594-.0703125-3.6005859-.3105469-4.8242188l2.4472656,1.2236328h12.8886719l1.0078125-1.1523438c.1445312-.1435547.2402344-.2880859.3613281-.2880859.1191406,0,.2636719.1201172.4550781.2646484l1.3925781,1.1279297c.1210938.0957031.2402344.2158203.2402344.3603516,0,.2392578-.2167969.2636719-.3847656.2636719h-16.3203125c0,1.34375-.0957031,7.2490234-.0957031,8.4492188,0,2.7597656,0,7.7285156.0234375,8.9765625h13.8007812l1.1035156-1.2480469c.1679688-.1923828.265625-.2880859.3847656-.2880859.0957031,0,.2890625.1201172.4316406.2402344l1.5117188,1.2480469c.0976562.0957031.2402344.2158203.2402344.359375,0,.2402344-.2148438.2646484-.3828125.2646484Zm-3.8652344-14.6171875c-1.2949219,2.1835938-2.4238281,3.8154297-3.4550781,5.0878906,1.6308594,1.4160156,3.8398438,3.6005859,3.8398438,5.2089844,0,.6240234-.4316406.9833984-.9355469.9833984-.6484375,0-.8886719-.4560547-1.3457031-1.2958984-.5761719-1.1044922-1.4394531-2.3759766-2.5429688-3.6962891-3.7929688,4.3447266-6.4570312,5.4248047-7.7539062,5.9287109l-.0722656-.1923828c2.953125-1.9921875,5.953125-5.7841797,6.7929688-6.8642578-1.9199219-2.0400391-3.8886719-3.5048828-5.4960938-4.6806641l.0957031-.1679688c3.0253906,1.1523438,5.5683594,3.2167969,6.2167969,3.7441406,1.4648438-1.9921875,2.9765625-4.34375,3.1445312-6.3603516l2.1367188,1.4638672c.0957031.0722656.2402344.1923828.2402344.3603516,0,.3837891-.4082031.4316406-.8652344.4804688Z"/>
          <path class="cls-2" d="m156.7539062,70.9501953h-9.4101562v3.4560547h2.3046875l.4804688-.5996094c.0957031-.1201172.1914062-.2167969.2871094-.2167969s.1933594.0722656.3613281.2167969l1.0078125.8398438c.1191406.0957031.2402344.2158203.2402344.359375,0,.1923828-.3125.4082031-.7207031.7207031,0,.8154297,0,1.7041016.0234375,4.0322266,0,.7197266.0957031,4.2246094.0957031,4.9921875,0,.984375-.8144531,1.1523438-1.0800781,1.1523438-.5507812,0-.671875-.3603516-.671875-.671875,0-.2402344.0253906-.4082031.0488281-.6240234h-6.3125c.0234375.4082031.0957031,1.5361328-1.0566406,1.5361328-.6953125,0-.6953125-.4804688-.6953125-.7685547,0-.1914062.046875-1.1279297.046875-1.34375.0253906-.5761719.0722656-3.6005859.0722656-6.3603516,0-1.5126953,0-3.1689453-.2148438-4.2011719l2.0625.9365234h2.2089844v-3.4560547h-6.4316406c-.1933594,0-1.7050781,0-2.8339844.2158203l-.4785156-.9365234c1.2480469.0966797,2.4707031.1445312,3.6953125.1445312h13.7539062l.9589844-1.1757812c.1445312-.1679688.265625-.2880859.3847656-.2880859s.2402344.1201172.4550781.2636719l1.5371094,1.1523438c.1191406.0957031.2402344.2402344.2402344.359375,0,.2646484-.2167969.2646484-.359375.2646484Zm-1.4648438,4.2724609c-.0234375,3.2402344-.0234375,9.6005859.1914062,13.3691406,0,.1914062.0253906.3359375.0253906.4082031,0,1.2958984-1.0566406,1.2958984-1.1777344,1.2958984-.6464844,0-.7441406-.4082031-.7441406-.6962891,0-.1679688.0253906-.984375.0253906-1.1523438h-14.0664062c.0253906.8398438.0488281,1.7763672-1.1269531,1.7763672-.7441406,0-.7441406-.5283203-.7441406-.7441406,0-.0722656.046875-.7441406.046875-.8398438.0253906-.3837891.1210938-7.0810547.1210938-9.0488281,0-4.3447266-.0957031-5.2324219-.4082031-6.2402344l2.5195312.6953125c.1679688.0478516.2890625.1445312.2890625.3847656,0,.2636719-.1679688.359375-.7207031.6953125,0,.8408203-.0234375,2.4248047-.0234375,4.6328125,0,.9599609,0,1.3681641.0234375,5.0166016,0,.4316406.0234375,2.6640625.0234375,3.0957031h14.0664062c.0234375-7.4638672.046875-11.4726562-.0957031-13.2490234-.0488281-.5517578-.1933594-.8642578-.3125-1.2001953l2.4472656.6484375c.2167969.0478516.3613281.1435547.3613281.3359375,0,.3125-.4082031.6240234-.7207031.8164062Zm-9.4570312-.2402344h-2.4238281v4.1044922h2.4238281v-4.1044922Zm0,4.6806641h-2.4238281v4.3681641h2.4238281v-4.3681641Zm3.9121094-4.6806641h-2.4003906v4.1044922h2.4003906v-4.1044922Zm0,4.6806641h-2.4003906v4.3681641h2.4003906v-4.3681641Z"/>
        </g>
        <g>
          <path class="cls-2" d="m108.9794922,113.9570312c0,3.6894531-1.9794922,6.3896484-3.1494141,7.6494141-1.6201172,1.7099609-3.1503906,3.0605469-5.3105469,4.5-.2695312.3603516-.2695312.7197266.1806641.9003906,2.8798828.6298828,7.8291016,1.8896484,10.8896484,5.6689453,1.5292969,1.890625,2.5195312,4.6806641,2.5195312,8.2802734,0,7.3798828-5.2197266,14.8496094-12.9599609,19.3486328-4.5888672,2.7001953-9.71875,3.7802734-13.3193359,3.7802734-4.9492188,0-9.0888672-1.9794922-9.0888672-4.5,0-.5400391.359375-1.5302734.7197266-2.0693359.7197266-1.0800781,1.7099609-1.7099609,2.4296875-1.7099609.3603516,0,1.4404297.6298828,2.1601562,1.2597656,2.9697266,2.609375,6.2998047,3.2392578,9.0898438,3.2392578,1.8896484,0,5.1289062-.7197266,7.4697266-2.609375,4.2294922-3.3300781,5.8496094-8.6396484,5.8496094-12.2392578,0-3.6904297-.9902344-7.3798828-3.2402344-9.8095703-2.25-2.4306641-4.859375-3.0605469-8.0996094-3.0605469-1.4404297,0-4.7695312.5400391-7.0195312,1.5302734-.4501953.1796875-.8105469-.2705078-.7197266-.7197266,0-.7207031.8095703-1.890625,1.3496094-2.3398438,1.1699219-.8105469,2.5195312-1.5302734,4.4101562-2.5205078,6.7490234-3.4199219,8.6396484-7.0195312,8.6396484-11.3388672,0-4.9501953-3.9599609-8.9101562-8.7304688-8.9101562-3.5996094,0-7.0195312,1.5302734-9.8994141,5.0400391-.9902344,1.2597656-1.6201172,1.6201172-1.8896484,1.6201172-.5400391,0-.8095703-.3603516-.8095703-1.2607422,0-.9892578,1.9794922-4.1396484,4.9492188-6.7490234,3.0595703-2.7001953,6.8398438-4.2304688,11.0693359-4.2304688,8.5498047,0,12.5097656,6.9296875,12.5097656,11.25Z"/>
          <path class="cls-2" d="m159.1083984,130.7861328c0,14.4892578-5.2197266,24.0292969-10.2597656,27.2685547-2.609375,1.7099609-5.5791016,2.6103516-8.2792969,2.5205078-13.4990234-.2705078-18.4492188-16.9189453-18.4492188-28.4384766,0-14.4902344,5.2197266-23.3994141,10.8896484-26.9990234,2.4296875-1.5302734,4.859375-2.4306641,8.2792969-2.4306641,14.2197266,0,17.8193359,18.4492188,17.8193359,28.0791016Zm-24.8388672-21.9589844c-2.1601562,3.2402344-4.5898438,8.9091797-4.5898438,22.2294922,0,9.9892578,2.9697266,27.0888672,12.1494141,27.0888672,3.0595703,0,5.5800781-3.8701172,5.8496094-4.3203125,2.0703125-3.9599609,3.5097656-10.9794922,3.5097656-22.4990234,0-14.7597656-4.3193359-22.4990234-6.7490234-24.2089844-1.4404297-.9902344-2.8798828-1.7099609-4.6796875-1.7099609-2.0703125,0-3.6005859.8095703-5.4902344,3.4199219Z"/>
        </g>
      </g>
    </g>
  </g>
</svg>