<?xml version="1.0" encoding="UTF-8"?>
<svg id="_レイヤー_2" data-name="レイヤー 2" xmlns="http://www.w3.org/2000/svg" viewBox="0 0 232.5 191.5">
  <defs>
    <style>
      .cls-1 {
        fill: none;
        stroke: #4977bc;
        stroke-miterlimit: 10;
        stroke-width: .5px;
      }

      .cls-2 {
        fill: #4977bc;
        stroke-width: 0px;
      }
    </style>
  </defs>
  <g id="layout">
    <g>
      <rect class="cls-1" x=".25" y=".25" width="232" height="191"/>
      <g>
        <path class="cls-2" d="m22.3652344,31.1279297c.828125.7021484,1.2246094,1.6025391,1.2246094,2.6650391,0,2.2148438-1.8183594,3.7988281-4.1953125,3.7988281-1.9453125,0-3.5830078-1.0976562-3.5830078-2.5380859,0-.7929688.5224609-1.1523438,1.0263672-1.1523438.6113281,0,.8828125.5214844.8828125.8994141,0,.2705078-.0546875.4326172-.109375.5761719-.0351562.1083984-.0527344.234375-.0527344.4150391,0,.6835938.7734375,1.1875,1.6191406,1.1875,1.3867188,0,2.7910156-1.3681641,2.7910156-3.1865234,0-1.8544922-1.3671875-3.2949219-2.8085938-3.2949219-.1074219,0-.6113281.0722656-.7207031.0722656-.2695312,0-.3955078-.1621094-.3955078-.3789062,0-.2333984.1806641-.4140625.4140625-.4140625.1083984,0,.6484375.1083984.7744141.1083984,1.5117188,0,2.4667969-1.3505859,2.4667969-2.8085938,0-1.4042969-.8457031-2.7011719-2.2685547-2.7011719-.9541016,0-1.4580078.6845703-1.4580078,1.2060547,0,.0908203.0351562.1806641.0527344.2705078.0371094.1259766.0546875.3056641.0546875.4326172,0,.5576172-.4140625.9902344-.9179688.9902344-.59375,0-.9003906-.5224609-.9003906-.9902344,0-.9902344,1.1523438-2.5214844,3.4570312-2.5214844,2.2148438,0,3.6015625,1.4404297,3.6015625,3.0253906,0,.6298828-.234375,1.2421875-.6669922,1.8359375-.7382812.9726562-1.5478516,1.2792969-2.2861328,1.53125.828125.2519531,1.3681641.4316406,1.9980469.9716797Z"/>
        <path class="cls-2" d="m30.6445312,23.421875l.3613281-.3417969c.1621094-.1621094.2333984-.1806641.2871094-.1806641.0722656,0,.1269531.0185547.3242188.1445312l.703125.4677734c.1621094.1083984.2695312.2158203.2695312.3603516,0,.1796875-.3242188.3964844-.6660156.59375,0,.6308594.0351562,3.8535156.0175781,3.9257812-.1259766.4677734-.7207031.4677734-.7382812.4677734-.4677734,0-.4492188-.2519531-.4492188-.6298828h-.5585938v3.1689453h.359375l.4511719-.6845703c.1074219-.1621094.2148438-.2333984.2871094-.2333984.0898438,0,.1621094.0712891.3242188.1972656l.7929688.6845703c.1074219.0898438.1796875.1621094.1796875.2705078,0,.1611328-.1621094.1972656-.2695312.1972656h-2.125v3.7275391c1.9804688-.4863281,2.7363281-.7207031,3.3847656-.9179688v.1796875c-1.7285156.9003906-2.0703125,1.0263672-6.5175781,2.6650391-.0898438.0361328-.1621094.0898438-.2519531.1074219-.3066406.4863281-.3242188.5400391-.4863281.5400391-.1083984,0-.234375-.1259766-.2705078-.2158203l-.7919922-1.6923828c.3066406.0722656.5761719.1083984.8828125.1083984.1972656,0,.2871094,0,.5214844-.0361328,0-4.3037109,0-5.0595703-.0361328-5.5634766-.0361328-.3789062-.1083984-.6308594-.2333984-1.0449219l1.6386719.4140625c.2148438.0546875.3046875.1445312.3046875.2880859,0,.1445312-.0527344.1806641-.5214844.4863281v5.2041016c.6835938-.1445312.9003906-.1806641,1.1884766-.2529297v-7.5976562h-1.0810547c.0185547.3603516.0185547.3955078-.0351562.4863281-.1445312.2695312-.7558594.4140625-.8652344.4140625-.3769531,0-.3769531-.3964844-.3769531-.5048828,0-.1074219.0351562-.59375.0351562-.6835938.0371094-1.2783203.0371094-2.5390625.0371094-3.7988281,0-.1445312,0-.9912109-.109375-1.5126953l1.4951172.7919922h2.5380859Zm-2.71875.4316406v3.9433594h2.8457031v-3.9433594h-2.8457031Zm10.4257812.7382812l.5214844-.4492188c.1621094-.1445312.2167969-.1806641.3242188-.1806641.0722656,0,.1269531.0361328.2705078.1445312l.9541016.8095703c.0898438.0722656.1621094.1806641.1621094.3427734,0,.2695312-.1074219.2880859-1.0976562.4316406-.8466797,1.5664062-1.7832031,2.6826172-1.9628906,2.8994141,1.3144531,1.1699219,3.078125,1.5664062,4.8251953,1.7822266v.1259766c-.6660156.2880859-.8466797.4863281-1.3505859,1.4404297-.7021484-.2880859-2.6640625-1.1162109-4.0683594-2.6826172-.5585938.6123047-1.53125,1.5478516-2.7910156,2.3222656l1.3681641.5761719h3.1328125l.3603516-.4316406c.1074219-.1445312.1796875-.1982422.2519531-.1982422s.1621094.0361328.3964844.1982422l.7197266.4863281c.1621094.1074219.2333984.1796875.2333984.2695312,0,.1083984-.0898438.1796875-.5576172.5400391,0,.6484375.0908203,3.7451172.0908203,4.4472656,0,.3427734-.1269531.828125-.8105469.828125-.4863281,0-.4863281-.1621094-.4863281-.9716797h-3.6015625c.0175781.3417969.0722656,1.0976562-.7919922,1.0976562-.4863281,0-.5224609-.3955078-.5224609-.5576172,0-.1806641.0546875-1.0800781.0546875-1.2783203.0722656-1.6748047.0898438-2.953125.0898438-3.4570312,0-.3964844-.0361328-1.0449219-.0722656-1.4765625-.8828125.5039062-1.421875.7197266-1.890625.8818359l-.0537109-.1796875c1.65625-1.0087891,3.0605469-2.3769531,4.2490234-3.9248047-.5400391-.8105469-.8828125-1.53125-1.2421875-2.8457031-.8642578,1.3867188-1.890625,2.6835938-3.2050781,3.6376953l-.1074219-.1259766c1.0800781-1.2607422,3.0429688-4.3574219,3.2226562-6.8964844l1.6386719.8466797c.1435547.0722656.2333984.1621094.2333984.2695312,0,.1621094-.5039062.3242188-.7558594.4140625-.2705078.5224609-.3056641.6123047-.4326172.8642578h2.7011719Zm.4863281,7.9951172h-3.6015625v4.3027344h3.6015625v-4.3027344Zm-3.4394531-7.5625c-.0537109.0898438-.0537109.1083984-.0898438.1621094.3242188.8642578.7558594,1.7460938,1.4404297,2.6103516.9541016-1.3320312,1.2607422-2.0878906,1.5478516-2.7724609h-2.8984375Z"/>
        <path class="cls-2" d="m43.890625,37.7001953c1.0097656-2.4667969,1.3144531-5.2939453,1.3144531-5.5273438,0-.1982422-.0175781-.4140625-.0527344-.6123047l1.5839844.59375c.0722656.0361328.1972656.0898438.1972656.234375,0,.1621094-.0527344.1982422-.4667969.4863281-.3789062,1.1523438-1.1708984,3.4384766-2.4492188,4.8789062l-.1269531-.0537109Zm7.1669922-12.4414062c.0712891.0537109.1259766.1259766.1259766.2519531,0,.2158203-.1796875.2695312-.7558594.3955078-.6132812.828125-1.5664062,2.0888672-3.1699219,3.8896484.0898438-.0185547,1.3144531-.0537109,2.2519531-.1445312-.1269531-.3056641-.3427734-.7558594-.6484375-1.2783203l.0898438-.1259766c.9726562.4140625,2.1962891,1.2070312,2.1962891,2.1425781,0,.4140625-.2519531.8105469-.7197266.8105469-.4511719,0-.4863281-.1435547-.828125-1.2958984-.2705078.0898438-.5761719.1796875-1.2792969.3779297.0185547,2.484375,0,3.7626953.0371094,5.2929688,0,.3242188.0527344,1.7109375.0527344,1.9990234,0,.2695312,0,.9902344-.8095703.9902344-.5048828,0-.5048828-.4140625-.5048828-.5585938,0-.828125.1445312-6.265625.1621094-7.4541016-.4492188.1083984-1.0253906.2519531-2.3046875.5048828-.2519531.2695312-.2695312.3056641-.4140625.3056641-.125,0-.2148438-.1259766-.2519531-.2519531l-.3779297-1.5302734c.3964844.1074219.8642578.2695312,1.6748047.2695312.1074219,0,1.0800781-.0361328,1.2246094-.0537109,1.1875-1.7646484,2.71875-4.4472656,2.7011719-5.5458984l1.5478516,1.0087891Zm-6.4638672-.1806641c.3779297.0361328,1.0800781.1083984,1.8730469.5761719,0-.0175781.8994141-2.3769531.7734375-3.5292969l1.7285156.9003906c.1074219.0546875.1796875.1445312.1796875.234375,0,.1796875-.1621094.2519531-.7910156.5039062-.6484375.8828125-.8828125,1.1523438-1.6386719,2.0527344.2333984.1806641.7910156.5947266.7910156,1.2783203,0,.4863281-.3232422.828125-.6835938.828125-.4501953,0-.6123047-.3779297-.7382812-.6474609-.1972656-.46875-.6835938-1.3505859-1.5488281-2.0712891l.0546875-.1259766Zm4.1591797,6.9501953c1.2060547.4326172,2.1240234,1.2783203,2.1240234,2.0166016,0,.4140625-.2333984.7744141-.6835938.7744141-.5039062,0-.59375-.2880859-.8642578-1.2607422-.1435547-.5039062-.3603516-1.0625-.6845703-1.421875l.1083984-.1083984Zm2.7900391.3066406c-.4492188,0-.7558594.0351562-.8994141.0712891l-.2529297-.5761719c.6669922.0546875,1.2070312.0722656,1.3691406.0722656h.5585938l.3417969-.4140625c.0351562-.0361328.1259766-.1445312.234375-.1445312.0722656,0,.1972656.0908203.2695312.1621094l.7207031.6845703c.0722656.0722656.1972656.1796875.1972656.3056641,0,.1445312-.0537109.2167969-.59375.4150391-.8642578,1.8896484-2.1972656,3.6181641-4.2128906,4.609375l-.0371094-.1083984c2.0898438-1.9990234,2.7734375-4.0332031,3.1152344-5.0771484h-.8105469Zm3.7460938-2.359375l.3242188.1083984c.125.0361328.3955078.1435547.3955078.3242188,0,.2158203-.3232422.3955078-.4677734.4677734,0,.6660156.7021484,1.9628906,1.0439453,2.4667969,1.0263672-.9365234,1.6572266-1.7099609,1.9443359-2.4482422l1.2421875,1.2421875c.0371094.0361328.0908203.1435547.0908203.2333984,0,.0361328-.0185547.234375-.2880859.234375-.0546875,0-.2880859-.0175781-.46875-.0361328-.8632812.3964844-1.5292969.6484375-2.4121094.9541016,1.0439453,1.4765625,2.5927734,2.5214844,4.3574219,2.9355469v.1435547c-1.2607422.3066406-1.5126953.7021484-1.8183594,1.1523438-1.8183594-1.3857422-3.0253906-3.1503906-3.65625-5.3476562,0,.6660156.109375,3.6015625.109375,4.1953125,0,.4326172,0,1.6748047-1.8007812,1.9990234-.1992188-.5761719-.3964844-1.1347656-1.8554688-1.7470703l.0185547-.1435547c.2880859.0361328,1.4951172.1083984,1.7285156.1083984.7197266,0,.7382812-.1445312.7382812-.6845703v-4.8613281c0-.6123047,0-.9902344-.0537109-1.296875h-1.4414062c.0185547.4863281-.2871094.7382812-.7197266.7382812-.3955078,0-.5761719-.1435547-.5761719-.4677734,0-.2519531.0908203-2.6113281.0908203-3.0966797,0-.9550781-.0185547-2.7548828-.1621094-3.5830078l1.4570312.7734375h1.0810547c.0712891-.3056641.1621094-.8457031.1621094-1.4941406,0-.3242188-.0185547-.4677734-.0908203-.8818359l1.6933594.5400391c.1445312.0537109.3066406.1259766.3066406.3056641,0,.234375-.1806641.2880859-.6484375.3779297-.3603516.4863281-.6132812.7568359-.9726562,1.1523438h2.4492188l.4863281-.5576172c.0527344-.0722656.2148438-.1982422.3046875-.1982422.0908203,0,.1992188.0722656.2714844.1259766l.8457031.6298828c.1074219.0722656.234375.1982422.234375.3066406,0,.1621094-.0722656.1982422-.6660156.6298828,0,.7382812.1621094,4.2128906.1621094,4.609375,0,.5400391-.3613281.7919922-.8476562.7919922-.4853516,0-.4853516-.2880859-.4667969-.7021484h-2.125Zm-2.2871094-5.203125v2.1601562h4.4121094v-2.1601562h-4.4121094Zm4.4121094,4.7714844v-2.1787109h-4.4121094v2.1787109h4.4121094Z"/>
        <path class="cls-2" d="m69.3632812,27.6708984l.6132812-.828125c.0898438-.1259766.1972656-.234375.2871094-.234375.1083984,0,.2519531.1259766.3417969.1982422l.9189453.8105469c.1083984.0898438.1806641.1796875.1806641.2880859,0,.1796875-.1621094.1982422-.2714844.1982422h-3.546875c0,.359375.0185547.7744141.0185547,1.1337891.7744141.3242188,2.9345703,1.5302734,2.9345703,2.8095703,0,.359375-.1972656.9179688-.7734375.9179688-.3066406,0-.4863281-.1083984-.7929688-.9726562-.2519531-.7021484-.7919922-1.7460938-1.3681641-2.3408203.0185547,1.1162109.0537109,6.0322266.0712891,7.0224609,0,.1796875.0546875.9726562.0546875,1.1347656,0,.5576172-.6308594.7919922-1.0263672.7919922-.2880859,0-.4501953-.2158203-.4501953-.5039062s.1074219-1.5849609.1259766-1.8369141c.0361328-1.0800781.0722656-3.1513672.0908203-6.0322266-.9902344,1.8007812-2.7558594,3.7636719-4.5380859,4.7714844l-.0712891-.0898438c1.78125-1.890625,3.5820312-4.9511719,4.3388672-6.8056641h-1.4580078c-.3242188,0-1.2246094,0-2.1074219.1621094l-.359375-.7207031c1.3320312.1083984,2.5019531.1259766,2.7724609.1259766h1.4228516v-2.8447266c-1.9990234.4140625-3.3320312.46875-3.9804688.4863281v-.1083984c2.2695312-.5576172,4.25-1.2958984,5.7089844-2.0341797.4492188-.234375.7558594-.46875.9003906-.7382812l1.2949219,1.2060547c.0722656.0546875.1445312.1445312.1445312.234375,0,.1259766-.1074219.2158203-.2695312.2158203-.1083984,0-.5761719-.0537109-.8652344-.0898438-.59375.234375-1.0976562.3964844-1.8183594.5761719v3.0966797h1.4765625Zm4.7539062-3.1142578c.0722656.0175781.3066406.1259766.3066406.2695312,0,.1259766-.0546875.1621094-.5585938.6298828-.0175781.3427734-.0175781.7021484-.0175781,1.3144531,0,1.6748047.0898438,5.1679688.1074219,6.3740234,0,.234375.0175781.5400391.0175781.6845703,0,.7197266-.7011719.9179688-.9355469.9179688-.3242188,0-.4511719-.1621094-.4511719-.4501953,0-.1074219.0185547-.2695312.0185547-.359375.1259766-1.2431641.1083984-4.8076172.1083984-6.2480469,0-2.3769531-.0175781-2.7734375-.2890625-3.7089844l1.6933594.5761719Zm3.8886719-1.2431641c.1269531.0361328.2705078.0908203.2705078.2705078,0,.1435547-.0722656.1982422-.6123047.59375-.0361328,1.2246094,0,6.1044922.0361328,7.5087891.0361328,1.3681641.0898438,3.8886719.0898438,4.1230469,0,.9541016,0,2.125-2.5751953,2.484375-.0712891-.4677734-.1621094-1.1162109-1.6201172-1.7822266l.0185547-.0898438c.3964844.0361328,1.5839844.1074219,2.015625.1074219.8828125,0,.8828125-.2519531.8828125-1.0439453,0-2.0527344-.0722656-9.2724609-.1074219-10.9287109-.0185547-1.0087891-.1445312-1.4404297-.2705078-1.8554688l1.8720703.6123047Z"/>
        <path class="cls-2" d="m93.7011719,23.4755859l.6308594-.5400391c.1425781-.1259766.2148438-.1621094.2695312-.1621094.0898438,0,.2158203.0722656.2880859.1259766l.8994141.6484375c.109375.0722656.1806641.1982422.1806641.2705078,0,.1972656-.2333984.3779297-.7568359.6835938-.0351562.6845703-.0351562.7568359-.0351562,2.6826172,0,1.3691406.0537109,7.3828125.0537109,8.6074219,0,1.0800781,0,2.1064453-2.1064453,2.5380859-.3417969-1.2060547-1.2597656-1.6386719-1.6923828-1.8359375l.0361328-.1445312c.5761719.0722656,1.1523438.1259766,1.7285156.1259766.7197266,0,.7197266-.1435547.7197266-1.421875,0-.3603516,0-2.2509766.0185547-2.5214844h-4.2851562c0,1.0449219.0175781,2.6289062.0722656,4.1054688.0175781.2519531.0175781.5039062.0175781.5947266,0,.3779297,0,1.0976562-1.0087891,1.0976562-.5400391,0-.5576172-.3779297-.5576172-.6123047,0-.1435547.0175781-.59375.0351562-.7558594.1445312-2.1787109.1621094-3.7988281.1621094-4.4296875h-3.9785156c-.234375,1.4951172-.8105469,3.7636719-3.6738281,5.7441406l-.1435547-.1445312c2.7001953-2.484375,2.8271484-6.8232422,2.8271484-11.6669922,0-1.8183594,0-1.8730469-.2890625-3.8349609l1.7832031.8457031h8.8046875Zm-9.0214844,4.6279297c0,1.0439453-.0898438,3.0605469-.2148438,3.9970703h3.9248047l.0361328-3.9970703h-3.7460938Zm0-4.1953125v3.7626953h3.7460938v-3.7626953h-3.7460938Zm9.2558594,8.1923828l.0175781-3.9970703h-4.2675781l-.0351562,3.9970703h4.2851562Zm.0175781-4.4296875l.0175781-3.7626953h-4.2851562v3.7626953h4.2675781Z"/>
        <path class="cls-2" d="m115.140625,24.3945312h-3.2050781c0,.9541016,0,12.0996094-.0175781,12.3330078-.109375,1.0263672-1.1708984,1.5126953-2,1.6748047-.0898438-.5761719-.1621094-.9726562-2.3222656-2.0703125v-.1083984c.234375.0361328,1.6933594.1621094,2.1425781.1621094.46875,0,.7929688,0,.8652344-.2880859.0527344-.234375.0527344-3.8173828.0527344-4.3935547,0-1.1699219-.0527344-6.265625-.0175781-7.3095703h-8.8046875c-.1796875,0-1.296875,0-2.125.1621094l-.359375-.7207031c1.2597656.1083984,2.6113281.1259766,2.7734375.1259766h10.5859375l.828125-.9541016c.0908203-.1083984.1992188-.234375.2890625-.234375s.1972656.0898438.3242188.1982422l1.0976562.9541016c.0898438.0898438.1796875.1621094.1796875.2705078,0,.1796875-.1621094.1982422-.2871094.1982422Zm-7.9042969,3.5107422c0,.5224609.0175781,2.1962891.0175781,2.7363281,0,.3964844.0546875,2.1435547.0546875,2.5029297,0,.9189453-.6484375.9541016-.8476562.9541016-.5390625,0-.5214844-.4501953-.5214844-1.0263672h-2.6464844c.0351562.9726562.0898438,1.7109375-.8652344,1.7109375-.3417969,0-.5761719-.1621094-.5761719-.5585938,0-.1435547.0546875-.828125.0546875-.9716797.0546875-1.8730469.0546875-3.2587891.0546875-4.7900391,0-1.1337891-.0185547-1.5302734-.2714844-2.3398438l1.6757812.9003906h2.4667969l.4853516-.46875c.1435547-.1435547.234375-.2158203.3056641-.2158203.0722656,0,.1269531.0175781.3066406.1621094l.7207031.5761719c.1435547.1259766.2158203.1796875.2158203.3056641,0,.1621094-.2880859.3242188-.6298828.5224609Zm-1.296875-.4501953h-2.6464844v5.1855469h2.6464844v-5.1855469Z"/>
        <path class="cls-2" d="m131.7177734,25.5820312c-2.3046875,0-2.9892578,0-4.1953125.7207031-1.6748047.9902344-3.0429688,3.3125-3.0429688,5.3652344,0,3.0068359,3.1689453,3.7089844,4.7900391,4.0693359.2695312.0546875,1.0253906.2158203,1.0253906.9902344,0,.46875-.4492188.5048828-.6835938.5048828-1.8544922,0-6.0136719-1.3691406-6.0136719-5.3300781,0-.7744141.1445312-2.3222656,1.4765625-4.0332031.5039062-.6484375.9355469-1.0263672,2.484375-2.2509766-1.9082031.2529297-5.7617188,1.5849609-6.3740234,1.9267578-.7744141.4501953-.8642578.4863281-1.1523438.4863281-.4501953,0-1.3144531-.5400391-1.3144531-1.5839844,0-.46875.1259766-.703125.2529297-.9189453.3417969.5400391.6113281.9541016,1.4042969.9541016.359375,0,.828125-.0898438,2.6464844-.5214844,2.1425781-.5224609,5.5996094-1.296875,7.7421875-1.8183594.1796875-.0361328.4316406-.0908203.5761719-.0908203.2695312,0,1.4404297.3427734,1.4404297.9541016,0,.5761719-.5576172.5761719-1.0625.5761719Zm-.5039062,4.5742188c-.3056641,0-.3603516-.0722656-.7919922-.828125-.3603516-.6308594-.828125-1.1171875-1.6933594-1.9814453,1.2070312.2529297,2.9707031,1.0449219,2.9707031,2.1787109,0,.3066406-.1074219.6308594-.4853516.6308594Zm2.1064453-.828125c-.2695312,0-.3242188-.0908203-.8457031-.8828125-.4326172-.6298828-1.2421875-1.2958984-1.8369141-1.7285156,1.1523438.1083984,3.1689453.8466797,3.1689453,2.0351562,0,.5039062-.3789062.5761719-.4863281.5761719Z"/>
        <path class="cls-2" d="m139.6699219,37.9521484c-.5761719,0-.7197266-.4677734-.9003906-1.0625-.1074219-.3779297-.6289062-2.0703125-2.3574219-3.4570312l.0527344-.1621094c1.2617188.4140625,1.9990234.7021484,2.8632812,1.4228516.3066406.2695312,1.2246094,1.1337891,1.2246094,2.2148438,0,.5039062-.3242188,1.0439453-.8828125,1.0439453Z"/>
        <path class="cls-2" d="m157.0410156,28.5351562c-.4511719,0-1.3144531.0185547-2.1074219.1621094l-.359375-.7021484c1.2236328.1083984,2.5380859.1083984,2.7714844.1083984h.8291016v-2.6474609h-1.1337891c-.8652344,0-1.2070312.0546875-1.4951172.1083984l-.2333984-.6298828c.8095703.0712891,1.6015625.0898438,1.9619141.0898438h.9003906c0-.7021484-.0185547-1.9267578-.0361328-2.1064453-.0361328-.2705078-.1259766-.4863281-.1982422-.7207031l1.7646484.5400391c.1445312.0361328.2519531.1083984.2519531.2529297,0,.2158203-.1259766.2871094-.5585938.4853516-.0712891.3242188-.0712891.4501953-.0898438,1.5488281h.3964844l.3964844-.5585938c.1074219-.1621094.1621094-.2333984.2695312-.2333984.1269531,0,.1982422.0537109.3417969.1972656l.5410156.5585938c.1074219.1083984.1796875.1796875.1796875.2705078,0,.1435547-.1074219.1972656-.2695312.1972656h-1.8730469c0,.4150391-.0175781,2.2695312-.0175781,2.6474609h.359375c.9726562-1.296875,2.71875-3.7636719,2.8632812-4.9521484l1.3867188,1.0087891c.0898438.0537109.1621094.1435547.1621094.2519531,0,.2519531-.1992188.2705078-.6484375.3242188-.9902344,1.3867188-1.7460938,2.4306641-2.5390625,3.3671875h1.1347656l.59375-.7382812c.1259766-.1445312.1796875-.234375.2695312-.234375s.2519531.1259766.3242188.1982422l.8466797.7382812c.0898438.0722656.1621094.1621094.1621094.2880859,0,.1621094-.1435547.1796875-.2705078.1796875h-3.4023438c-.9365234,1.1162109-1.5488281,1.7646484-2.0888672,2.2871094l.2333984.1074219h2.4667969l.46875-.5214844c.0722656-.0898438.1445312-.1621094.2519531-.1621094.0722656,0,.1445312.0361328.2695312.1259766l.8466797.5761719c.2158203.1435547.2529297.234375.2529297.3242188,0,.1796875-.109375.2519531-.6484375.5576172-.0185547.6660156-.0371094,1.9628906.0175781,3.78125.0175781.2705078.0898438,1.4228516.0898438,1.65625,0,.6123047-.6298828.7382812-.9355469.7382812-.4326172,0-.4140625-.1972656-.3964844-.8457031h-2.8457031c.0185547.6123047.0371094,1.1699219-.9355469,1.1699219-.3242188,0-.4140625-.1621094-.4140625-.4316406,0-.1445312.0898438-1.1523438.0898438-1.3691406.0175781-.359375.1621094-3.2402344.1074219-4.7529297-1.421875,1.1884766-2.6464844,1.8369141-3.2763672,2.1611328l-.1259766-.1269531c.59375-.4492188,1.65625-1.2597656,3.3671875-3.0068359-.0175781-.1621094-.0361328-.3955078-.0722656-.6298828l.4316406.234375c.6308594-.6660156.9550781-1.0449219,1.6210938-1.8730469h-2.25Zm1.4394531,2.8271484v2.4306641h2.8808594v-2.4306641h-2.8808594Zm0,2.8623047v2.5029297h2.8808594v-2.5029297h-2.8808594Zm10.046875-10.6230469l.4140625-.359375c.0371094-.0361328.1269531-.1259766.234375-.1259766.0898438,0,.2167969.1435547.2695312.1796875l1.0273438.9726562c.0537109.0537109.1621094.1796875.1621094.3056641,0,.2519531-.2890625.3603516-.8466797.4501953-.9902344,1.3681641-2.6474609,3.7089844-2.7373047,3.8173828.7568359.4140625,3.6376953,2.0527344,3.6376953,4.9335938,0,1.7285156-1.0439453,2.6640625-2.7724609,2.8808594-.1992188-1.1171875-.8828125-1.6025391-1.296875-1.8554688l.0546875-.1074219c.7910156.1796875,1.2773438.234375,1.6191406.234375,1.0625,0,1.0625-1.0449219,1.0625-1.2431641,0-1.6025391-.8095703-3.2226562-2.6816406-4.7529297.7011719-1.5126953,1.6015625-3.9794922,1.8720703-4.8974609h-2.5576172c-.0527344,3.9248047-.0712891,9.3085938.0908203,13.1982422,0,.1074219.0185547.3232422.0185547.5400391.0175781.8642578-.9189453.8642578-.9902344.8642578-.3066406,0-.4511719-.1259766-.4511719-.4863281,0-.4326172.0722656-1.1523438.0722656-1.5849609.0722656-3.0605469.1074219-9.1279297.1074219-9.3085938,0-1.4765625,0-3.1689453-.3046875-4.375l1.6376953.7197266h2.3583984Z"/>
        <path class="cls-2" d="m175.328125,33.3613281c-.3417969.7919922-1.0625,1.1162109-1.4941406,1.1162109-.3964844,0-.7929688-.3242188-.7929688-.8291016,0-.3417969.0546875-.3955078.6484375-.9716797.4501953-.4326172,1.65625-1.7646484,1.7460938-3.4033203l.1269531-.0361328c.2695312.6484375.2695312,1.2070312.2695312,1.4765625,0,.0722656,0,1.4589844-.5039062,2.6474609Zm9.3984375,4.3388672c-.7382812.3242188-1.9980469.3242188-3.1152344.3242188-2.484375,0-3.2402344,0-3.4384766-1.2421875-.0722656-.4863281-.0722656-2.3408203-.0722656-3.5117188v-5.7255859c0-1.0263672-.0898438-1.2597656-.2519531-1.7285156l1.9091797.5947266c.1435547.0361328.3417969.1074219.3417969.2695312,0,.1982422-.1982422.2880859-.6660156.4863281-.0185547.8818359-.0546875,6.6259766-.0546875,7.2744141,0,1.8544922,0,2.0166016.3242188,2.1787109.234375.1074219.5761719.1435547,1.4404297.1435547,1.7285156,0,2.2333984-.0722656,2.5205078-.6123047.3417969-.6474609.6660156-2.1787109.7207031-2.5029297l.1074219.0185547c.0722656.3603516.2705078,1.9628906.4140625,2.2685547.1445312.2705078.2167969.3417969.5410156.59375.0898438.0722656.1074219.1269531.1074219.2529297,0,.1796875-.1435547.6298828-.828125.9179688Zm-2.4121094-11.7578125c-.6132812,0-.7207031-.4140625-1.0625-1.3857422-.4316406-1.2792969-.9550781-1.8554688-1.2246094-2.1425781l.0722656-.1083984c3.0253906.8457031,3.0253906,2.5205078,3.0253906,2.7548828,0,.3056641-.1992188.8818359-.8105469.8818359Zm6.2109375,8.0849609c-.6113281,0-.8095703-.5224609-1.1337891-1.4765625-.1982422-.6308594-.9541016-2.2871094-2.2509766-3.4394531l.0722656-.1259766c1.8183594.6660156,4.140625,2.3769531,4.140625,4.0693359,0,.3242188-.1972656.9726562-.828125.9726562Z"/>
        <path class="cls-2" d="m207.4443359,34.6035156c-.7382812,0-4.1591797-2.3769531-5.4560547-3.5654297-.5214844-.4677734-3.2226562-2.9169922-3.7441406-3.4033203-.0908203-.0712891-.3427734-.2519531-.6855469-.2519531-.7382812,0-2.25,1.7832031-3.0058594,2.6826172-1.0273438,1.2070312-1.1523438,1.3505859-1.4941406,1.3505859-.6484375,0-1.6572266-.7021484-1.6572266-1.5478516,0-.0722656.0185547-.1621094.0361328-.2880859.1796875.1074219.5214844.3242188.9726562.3242188.5576172,0,1.3320312-.6484375,1.9257812-1.1884766.3066406-.2705078,1.6035156-1.4589844,1.8730469-1.6748047.5214844-.4140625.9179688-.6484375,1.4042969-.6484375.6308594,0,1.0625.3417969,1.5664062.828125,3.4208984,3.1689453,4.3398438,3.6552734,7.5800781,5.3662109.3242188.1621094,1.2421875.6474609,1.2421875,1.4765625,0,.5214844-.3955078.5400391-.5576172.5400391Z"/>
        <path class="cls-2" d="m29.5136719,60.4941406c-.3789062,0-.5761719-.3066406-.7382812-.5761719-1.4404297-2.3769531-2.4306641-3.5654297-4.0332031-4.7539062-3.2050781,4.0332031-6.265625,5.1679688-7.9589844,5.5097656l-.0175781-.1445312c4.1777344-1.8359375,8.5703125-7.3457031,9.5605469-10.6943359-.6835938.0898438-3.6728516.6474609-4.6445312,1.0263672-.1621094.0712891-.828125.4316406-.9726562.4316406-.2695312,0-1.2597656-.8818359-1.2597656-1.8183594,0-.3603516.0712891-.5947266.1611328-.7744141.6845703,1.0800781.9912109,1.0986328,1.3505859,1.0986328.5039062,0,4.4111328-.3779297,5.1494141-.8105469.1259766-.0722656.6845703-.5039062.8291016-.5039062.1972656,0,1.5292969,1.1337891,1.5292969,1.4404297,0,.1982422-.125.2333984-.7011719.4501953-.1269531.0537109-.1445312.0898438-.3789062.5214844-.7919922,1.53125-1.2421875,2.4130859-2.3945312,3.9619141,2.1601562.9541016,5.1494141,3.0966797,5.1494141,4.7890625,0,.4863281-.1982422.8466797-.6298828.8466797Z"/>
        <path class="cls-2" d="m47.7832031,60.2236328c-.4677734,0-.6298828-.4677734-.7734375-.9365234-.1982422-.6660156-.3603516-1.1884766-.7207031-2.0166016-1.7109375.5947266-5.6357422,1.5126953-7.8496094,2.0166016-.3242188.0722656-.3964844.1259766-.5947266.3427734-.1621094.1972656-.2705078.2695312-.3955078.2695312-.3427734,0-1.6210938-1.3144531-1.4765625-2.6826172.5576172.59375.7382812.7382812,1.5839844.7382812.1074219,0,.4863281-.0175781.6123047-.0361328,2.3232422-4.9873047,3.4755859-7.4716797,3.4755859-8.4443359,0-.5947266-.5048828-.9003906-1.2431641-1.3144531.4140625-.1083984.7197266-.1796875.9716797-.1796875.8291016,0,2.125,1.0615234,2.125,1.7099609,0,.2158203-.0722656.3242188-.4492188.6660156-.2705078.234375-.6855469,1.296875-1.0449219,2.0166016-.6660156,1.3144531-1.9804688,3.6914062-3.2226562,5.4921875,2.484375-.2519531,2.8984375-.3066406,7.328125-.9902344-.59375-1.2246094-1.2246094-2.1074219-2.4130859-3.4931641,1.4228516.6298828,2.5927734,1.8007812,3.6191406,3.1689453.7197266.9541016,1.1337891,1.7460938,1.1337891,2.7001953,0,.6308594-.359375.9726562-.6660156.9726562Z"/>
        <path class="cls-2" d="m66.7734375,55.0205078c-.1621094,0-.59375-.0361328-.6308594-.0361328-.6474609-.0546875-.828125-.0722656-2.0332031-.0722656-5.4921875,0-7.1132812.1083984-7.9228516.3242188-.0537109.0175781-.6298828.1621094-.6845703.1621094-.4677734,0-1.4404297-1.1523438-1.4404297-1.9804688,0-.1083984.0185547-.4501953.2158203-.8642578.6132812,1.3681641,1.1708984,1.3681641,3.0429688,1.3681641,1.2421875,0,7.09375-.0175781,7.9228516-.2158203.1083984-.0185547.6298828-.1621094.7382812-.1621094s1.9082031.1982422,1.9082031.9003906c0,.5576172-.8994141.5761719-1.1162109.5761719Z"/>
        <path class="cls-2" d="m84.8994141,60.5839844c-.3955078,0-.4677734-.1259766-1.1708984-1.3505859-.0712891-.1083984-1.2421875-2.125-3.6542969-3.9794922-2.125,2.5566406-4.7890625,4.7177734-8.0488281,5.3662109v-.1083984c4.6640625-2.0527344,8.7324219-7.3642578,9.6513672-10.4794922-1.0810547.1806641-4.2675781.6669922-5.0234375,1.1347656-.3056641.1982422-.4150391.2519531-.5400391.2519531-.2519531,0-1.2607422-.9902344-1.2607422-1.7099609,0-.4501953.0722656-.6308594.1806641-.8642578.5576172.9716797.828125,1.0976562,1.2958984,1.0976562.7568359,0,4.5185547-.4501953,5.0595703-.6835938.1445312-.0546875.7558594-.5585938.9003906-.5585938.234375,0,1.5488281,1.1523438,1.5488281,1.4042969,0,.1806641-.0722656.2158203-.6669922.4863281-.1611328.0722656-.2333984.1796875-.3232422.3603516-1.0449219,1.9619141-1.3515625,2.5380859-2.5390625,4.0332031,1.5839844.7382812,5.1132812,2.7724609,5.1132812,4.7353516,0,.59375-.2880859.8642578-.5224609.8642578Zm.0185547-11.1992188c-.2167969,0-.3066406-.0898438-.9003906-.8466797-.1445312-.1796875-.7382812-.9179688-1.8369141-1.4580078.4501953-.0185547.9902344-.0185547,2.2148438.5214844.4326172.1982422.9189453.4501953.9189453,1.1884766,0,.5761719-.3242188.5947266-.3964844.5947266Zm1.8359375-1.0087891c-.2158203,0-.3056641-.0898438-1.0800781-.9003906-.5214844-.5400391-1.1347656-.9902344-1.8007812-1.3144531.5761719-.0175781,3.2412109.1806641,3.2412109,1.7109375,0,.4501953-.2705078.5039062-.3603516.5039062Z"/>
        <path class="cls-2" d="m94.5986328,56.2441406c-.2158203.9003906-.6298828,2.6289062-.6298828,3.4394531,0,.1982422.0898438,1.0625.0898438,1.2421875,0,.3066406-.0361328.6660156-.46875.6660156-.7382812,0-1.9082031-1.65625-1.9082031-5.3115234,0-1.2958984.3964844-3.7265625.703125-5.5810547.0527344-.3427734.1074219-.8105469.1074219-1.2070312,0-.6298828-.0898438-1.0976562-.6123047-1.7460938.0898438-.0361328.1621094-.0722656.3242188-.0722656.6474609,0,1.8183594,1.0087891,1.8183594,1.7109375,0,.1621094-.0361328.3242188-.2333984.8457031-.703125,1.8007812-1.2617188,3.6914062-1.2617188,5.6542969,0,1.2421875.3066406,2.6289062.5947266,2.6289062.1083984,0,.1982422-.2167969.234375-.3427734.1982422-.6123047.9541016-2.7001953,1.6025391-4.0869141l.1445312.0361328c-.109375.5039062-.3613281,1.5478516-.5048828,2.1240234Zm8.6611328,3.78125c-.4326172,0-2.8457031-.0175781-4.4121094-.5039062-1.0800781-.3417969-1.8183594-1.3867188-1.8183594-2.4492188,0-.4140625.0898438-.5761719.1796875-.7558594.4140625,1.3681641.7382812,2.4130859,4.1416016,2.4130859.3603516,0,2.1064453-.1445312,2.2861328-.1445312.6308594,0,1.3867188.2705078,1.3867188.7744141,0,.5761719-.6298828.6660156-1.7636719.6660156Zm-.1445312-9.5244141c-1.7460938.3056641-2.8808594.9003906-3.4746094,1.3320312l-.1083984-.1074219c.2705078-.2529297,1.5849609-1.4589844,1.6376953-1.5126953.0546875-.0546875.0546875-.0898438.0546875-.1445312,0-.1972656-.5585938-.1972656-.6660156-.1972656-.7207031,0-1.9082031.2871094-3.2773438.8095703.9726562-1.2958984,2.7910156-1.7646484,4.4648438-1.7646484,1.1171875,0,2.3955078.3242188,2.3955078.9550781,0,.4140625-.3779297.5214844-1.0263672.6298828Z"/>
        <path class="cls-2" d="m122.1054688,50.6269531c-.46875.0722656-.6298828.1982422-1.296875.6484375-1.1337891.7734375-2.5917969,1.7636719-3.4746094,2.1962891-.1074219.3417969-.5400391,1.9267578-.6298828,2.2324219-1.2607422,4.3398438-3.4384766,5.5634766-4.3388672,6.0683594l-.0546875-.1083984c2.7734375-2.9345703,3.7265625-7.5986328,3.7265625-8.6425781,0-.5224609-.3046875-.7382812-1.2421875-1.0800781.4511719-.1982422.6308594-.2880859.9189453-.2880859.6660156,0,1.7822266.4140625,1.7822266.9003906,0,.1074219-.0175781.2695312-.0351562.359375,1.7998047-1.421875,3.0058594-2.9160156,3.0058594-3.1503906,0-.0537109-.0175781-.1083984-.2519531-.1083984-.9355469,0-6.3730469.6123047-7.6347656,1.0263672-.1621094.0537109-.828125.3779297-.9716797.3779297-.1806641,0-1.6025391-.7382812-1.6025391-1.7285156,0-.3056641.0361328-.5761719.1259766-.8642578.6669922,1.1162109,1.4404297,1.1162109,1.8544922,1.1162109.7929688,0,7.6171875-.6835938,8.4267578-.8457031.1435547-.0175781.7568359-.2880859.8818359-.2880859.2890625,0,1.6748047,1.4580078,1.6748047,1.7646484,0,.3056641-.0712891.3056641-.8642578.4140625Z"/>
        <path class="cls-2" d="m139.5117188,51.6347656c-.4140625.1806641-.5761719.3427734-.9726562,1.1171875-1.7285156,3.3662109-3.6191406,5.6171875-6.3730469,7.328125-.9550781.59375-2.1796875,1.2236328-3.5292969,1.5302734l-.0371094-.1259766c3.9257812-2.1787109,7.5625-6.1582031,9.21875-10.3535156-.7382812.0722656-1.9619141.2519531-2.7001953.3603516-.1259766.0175781-.4863281.0722656-.5761719.0722656-.1806641,0-.5048828-.0722656-.9189453-.3066406-1.6738281,2.2148438-2.9882812,3.2412109-4.7714844,4.1777344l-.0898438-.1445312c2.953125-2.7001953,4.6992188-5.9414062,4.6992188-6.5175781,0-.1806641-.0351562-.3242188-.9902344-.9003906.4326172-.1445312.8291016-.1445312.8828125-.1445312.7207031,0,2.0351562.8291016,2.0351562,1.296875,0,.1621094-.0722656.2519531-.4140625.5761719-.1806641.1621094-.6484375.7744141-.8828125,1.0625.8105469.0898438,3.0605469-.1621094,3.5292969-.3242188.1621094-.0537109.7734375-.5400391.9541016-.5400391.1982422,0,1.4951172,1.0800781,1.4951172,1.421875,0,.1259766-.0546875.1806641-.5585938.4140625Z"/>
        <path class="cls-2" d="m159.4550781,52.7158203c-.2695312.0361328-.4140625.1435547-.6113281.3232422-1.1171875,1.0625-1.7646484,1.6025391-3.2050781,2.5576172l-.1083984-.0908203c.6484375-.7558594,1.7646484-2.2861328,2.2861328-3.4921875-.6289062.1972656-3.5996094,1.1337891-4.0507812,1.2783203-.1972656.0537109-1.0800781.3417969-1.2597656.3955078-.0546875,1.4404297-.0722656,2.5029297-.0722656,3.0615234,0,2.0703125,0,2.6464844,2.1972656,2.6464844,1.2236328,0,2.3945312-.2519531,3.0244141-.3779297.2333984-.0546875.3603516-.0722656.5039062-.0722656.3242188,0,1.0986328.1621094,1.2783203.3242188.0898438.0898438.1621094.2158203.1621094.3964844,0,.3232422-.1972656.4677734-.5761719.5761719-.4316406.1435547-1.9082031.2333984-3.2050781.2333984-1.8359375,0-3.8349609,0-4.2675781-1.7646484-.2148438-.828125-.1621094-3.6191406-.125-4.6992188-1.6386719.5224609-1.7832031.5947266-3.1152344,1.2421875-.234375.1259766-.3417969.1621094-.46875.1621094-.3964844,0-1.5302734-.8457031-1.5302734-1.7822266,0-.3417969.0722656-.6298828.1435547-.8818359.6669922.9179688.8476562,1.1875,1.5136719,1.1875.6835938,0,1.8535156-.3417969,3.4746094-.8095703.0175781-.7207031.0898438-3.8349609-.1621094-4.2851562-.0898438-.1621094-.3603516-.5410156-1.3867188-.7744141.5585938-.3427734.9902344-.4501953,1.2607422-.4501953.7197266,0,1.9619141.4140625,1.9619141.9179688,0,.1083984-.1621094.7207031-.1796875.7744141-.234375.828125-.3242188,2.5742188-.3779297,3.5107422.5400391-.1621094,4.8613281-1.4042969,5.0771484-1.5478516.0898438-.0722656.4863281-.3789062.5761719-.4501953.0722656-.0546875.1445312-.1083984.2519531-.1083984.2890625,0,1.8554688,1.1347656,1.8554688,1.5664062,0,.3066406-.0546875.3242188-.8652344.4326172Z"/>
        <path class="cls-2" d="m177.1132812,60.4941406c-.3779297,0-.5761719-.3066406-.7382812-.5761719-1.4394531-2.3769531-2.4296875-3.5654297-4.0332031-4.7539062-3.2050781,4.0332031-6.265625,5.1679688-7.9580078,5.5097656l-.0185547-.1445312c4.1777344-1.8359375,8.5712891-7.3457031,9.5615234-10.6943359-.6845703.0898438-3.6728516.6474609-4.6455078,1.0263672-.1621094.0712891-.828125.4316406-.9726562.4316406-.2695312,0-1.2597656-.8818359-1.2597656-1.8183594,0-.3603516.0722656-.5947266.1621094-.7744141.6835938,1.0800781.9902344,1.0986328,1.3496094,1.0986328.5039062,0,4.4121094-.3779297,5.1503906-.8105469.125-.0722656.6835938-.5039062.828125-.5039062.1972656,0,1.5302734,1.1337891,1.5302734,1.4404297,0,.1982422-.1259766.2333984-.7021484.4501953-.1259766.0537109-.1445312.0898438-.3789062.5214844-.7910156,1.53125-1.2421875,2.4130859-2.3945312,3.9619141,2.1611328.9541016,5.1503906,3.0966797,5.1503906,4.7890625,0,.4863281-.1982422.8466797-.6308594.8466797Z"/>
      </g>
      <path class="cls-2" d="m16.1103516,96.6933594h5.9414062v.7207031h-5.2216797v15.6650391h-.7197266v-16.3857422Z"/>
      <g>
        <path class="cls-2" d="m91.2929688,129.9345703h-5.9414062v-.7197266h5.2216797v-15.6650391h.7197266v16.3847656Z"/>
        <path class="cls-2" d="m101.7851562,128.5478516c-.3417969,0-.4853516-.2333984-.4853516-.5400391,0-.2880859.0898438-.5039062.359375-1.1523438.0908203-.2158203.3964844-.9716797.3066406-1.6201172h.1796875c.0185547.0722656.0546875.1621094.3242188.9365234.0722656.1972656.1621094.5039062.1621094.9541016,0,.1621094,0,1.421875-.8466797,1.421875Zm6.6445312-5.3652344c-.1621094,1.5849609-.5947266,3.9433594-1.0439453,5.0419922-.2529297.6298828-.6308594,1.0800781-1.8007812,1.5478516-.3603516-.8818359-1.0449219-1.3320312-1.3867188-1.4765625v-.1259766c.5039062.0898438,1.4941406.1445312,1.5664062.1445312.3779297,0,.6298828-.0185547.8828125-.7021484.5039062-1.3691406.8095703-3.5654297.7919922-4.7353516h-4.3574219c.0722656.6660156-.4140625.7919922-.59375.7919922-.4150391,0-.4150391-.3066406-.3789062-.7744141.1445312-1.4404297.0722656-7.3818359.0546875-7.5625-.0722656-.8457031-.0908203-.8818359-.1445312-1.1162109l1.2246094.5947266h3.6552734l.3955078-.4140625c.1982422-.2167969.234375-.2167969.3066406-.2167969s.0898438.0185547.3242188.1806641l.59375.4140625c.0537109.0537109.1796875.1435547.1796875.2695312,0,.1806641-.1611328.1982422-.2695312.1982422h-2.6650391v2.1064453h1.1347656l.3242188-.3242188c.1972656-.1972656.2158203-.2333984.3056641-.2333984.0722656,0,.1083984.0175781.3056641.1972656l.4326172.3242188c.0722656.0722656.1796875.1621094.1796875.2705078,0,.1796875-.1621094.1982422-.2695312.1982422h-2.4130859v2.1425781h1.2060547l.3427734-.3779297c.1796875-.1982422.1982422-.2167969.2880859-.2167969.1074219,0,.2519531.1259766.3056641.1806641l.3779297.3779297c.1621094.1621094.1621094.234375.1621094.2705078,0,.1611328-.1435547.1972656-.2695312.1972656h-2.4130859v2.0888672h1.4404297l.3964844-.4140625c.1796875-.1982422.1982422-.2158203.2880859-.2158203s.0898438,0,.3242188.2158203l.5400391.5039062c.0537109.0361328.1435547.1445312.1435547.2519531,0,.2167969-.2519531.3066406-.4677734.3964844Zm-3.546875-7.9404297h-1.8183594v2.1064453h1.8183594v-2.1064453Zm0,2.5390625h-1.8183594v2.1425781h1.8183594v-2.1425781Zm0,2.5742188h-1.8183594v2.0888672h1.8183594v-2.0888672Zm-.9541016,7.4003906c-.46875,0-.46875-.3056641-.5048828-1.5126953-.0175781-.5214844-.0361328-1.0615234-.2519531-1.421875l.0898438-.0537109c.1083984.1435547.6669922.7373047.7744141.8818359.3242188.4677734.5224609,1.0625.5224609,1.3320312,0,.4326172-.2880859.7744141-.6298828.7744141Zm1.5302734-1.2246094c-.3779297,0-.4326172-.2695312-.5048828-.8457031-.0537109-.3417969-.1435547-.9365234-.4677734-1.5849609l.0722656-.0537109c.1435547.1621094.8457031.7382812.9541016.8818359.3603516.3964844.4677734.7744141.4677734.9912109,0,.1796875-.1074219.6113281-.5214844.6113281Zm1.0625-1.3681641c-.3427734,0-.4150391-.1982422-.5947266-.8642578-.0722656-.2695312-.2158203-.5400391-.3964844-.7919922l.1445312-.0722656c.8642578.4863281,1.2783203.7207031,1.2783203,1.2421875,0,.1621094-.0898438.4863281-.4316406.4863281Zm10.2988281,4.4111328c-.6660156-.6474609-1.9267578-1.9619141-2.71875-4.1230469-.5761719-1.6025391-.8642578-3.2949219-.8642578-4.9873047h-2.0712891c-.1074219,2.6464844-.1621094,4.1054688-1.0439453,6.1220703-.8818359,2.0527344-1.9082031,2.8447266-2.3583984,3.1865234l-.1445312-.0898438c.6845703-.7207031,1.1884766-1.6748047,1.6210938-2.8808594.6298828-1.8007812.9716797-3.0605469.9716797-9.4169922,0-.828125-.0537109-1.6748047-.1074219-1.9980469,0-.1621094-.1621094-.8828125-.1806641-1.0449219l1.4404297.6845703h4.015625l.5400391-.5400391c.0361328-.0361328.1621094-.1621094.2519531-.1621094.0722656,0,.0898438.0175781.234375.1621094l.6474609.6123047c.1083984.0898438.1445312.1611328.1445312.2333984,0,.0898438-.0537109.1259766-.1796875.2167969-.0722656.0351562-.3964844.2695312-.4501953.3056641,0,.9541016-.0185547,2.5029297.0361328,3.8535156,0,.1796875.0537109.9541016.0537109,1.1337891,0,.5039062-.4326172.6484375-.6298828.6484375-.5224609,0-.4863281-.46875-.4501953-1.0263672h-2.0527344c.3056641,5.1494141,3.7626953,7.7060547,4.8613281,8.1748047v.1259766c-.7744141.1435547-1.1708984.4501953-1.5664062.8095703Zm-1.2421875-14.1162109h-4.4121094c.0722656.9726562.0361328,3.4755859.0185547,4.5732422h4.3935547v-4.5732422Z"/>
      </g>
      <g>
        <path class="cls-2" d="m54.3818359,145.4775391c0-.7558594-.1445312-.828125-1.3320312-1.3857422.1611328-.1083984.359375-.2705078.8994141-.2705078.9365234,0,1.6933594.6484375,1.6933594,1.0800781,0,.0361328-.0908203.4140625-.1806641.7929688-.0898438.3779297-.1435547.7919922-.2158203,1.3320312,1.2421875-.2705078,1.7822266-.4677734,2.8085938-.828125.1259766-.0361328.3066406-.1083984.4501953-.1083984.3242188,0,.9726562.3242188.9726562.5761719,0,.2158203-.234375.3242188-.3242188.3603516-.5585938.234375-2.125.6484375-3.9970703.9003906-.0546875.7558594-.0722656,1.8720703-.0546875,2.8808594,1.1708984-.2880859,1.5849609-.4326172,2.3769531-.7382812.0898438-.0361328.234375-.0898438.3242188-.0898438.3242188,0,.9365234.2158203.9365234.5214844,0,.2529297-.2158203.3789062-.3964844.4501953-.3242188.1083984-1.9628906.4501953-3.2226562.6845703.0361328.7382812.1982422,3.2226562.2519531,4.1230469,2.0527344.4863281,3.8349609,1.3505859,3.8349609,2.2324219,0,.3242188-.2158203.5048828-.3955078.5048828-.1445312,0-.2167969-.0546875-.8291016-.46875-.1796875-.1259766-1.3496094-.8457031-2.5380859-1.1884766-.0185547,1.0449219-.4501953,1.4589844-.7021484,1.6572266-.8105469.59375-1.9453125.6123047-2.1972656.6123047-1.8359375,0-3.0429688-.9003906-3.0429688-1.7832031,0-.5576172.3789062-.9355469.9003906-1.2421875,1.0087891-.5585938,2.7373047-.5585938,3.0791016-.5585938.4140625,0,.6845703.0185547.9541016.0361328-.0175781-.59375-.1621094-3.2402344-.1796875-3.7802734-.9179688.1259766-1.8183594.2158203-2.71875.2158203-1.0800781,0-1.7470703-.1982422-1.7470703-.828125,0-.3066406.3242188-.7568359.8828125-.8828125-.1259766.1445312-.2880859.3427734-.2880859.5585938,0,.3417969.3779297.3955078,1.2958984.3955078.7021484,0,1.5488281-.0712891,2.5566406-.2519531,0-.9902344.0185547-1.5117188.0722656-2.953125-.7197266.0722656-3.1152344.3242188-3.6367188.3242188-.46875,0-1.890625-.1259766-2.3769531-1.2060547.3056641.1259766,1.0625.4501953,2.3222656.4501953.3603516,0,1.8369141-.0898438,3.7099609-.3964844,0-.2695312.0537109-1.4765625.0537109-1.7285156Zm-1.890625,10.8574219c-1.1884766,0-2.3769531.3066406-2.3769531,1.0263672,0,.5224609.7919922.9365234,2.1611328.9365234.7558594,0,2.3583984-.2158203,2.1601562-1.7822266-.3056641-.0722656-.8095703-.1806641-1.9443359-.1806641Z"/>
        <path class="cls-2" d="m66.3857422,147.8730469c.5039062,0,.9902344-.1259766,2.9707031-.6669922,2.6835938-.7197266,8.0488281-1.8544922,8.2832031-1.8544922.2880859,0,1.2783203.3242188,1.2783203.8466797,0,.4316406-.4501953.4677734-.6845703.4677734-.1621094,0-.9365234-.0537109-1.0800781-.0537109-2.0351562,0-3.0068359.4863281-4.0332031,1.3867188-1.8369141,1.6025391-2.4130859,3.5283203-2.4130859,4.8427734,0,3.1513672,3.1875,4.0332031,4.5732422,4.2851562.4863281.0908203.7568359.1259766,1.0087891.4501953.1259766.1621094.1982422.3427734.1982422.4863281,0,.2880859-.2519531.3417969-.4501953.3417969-1.8544922,0-6.0683594-1.3681641-6.0683594-5.3828125,0-3.0976562,2.3046875-4.9335938,4.1953125-6.4277344-1.0800781.3056641-2.4121094.6298828-3.6191406.9179688-2.2861328.5576172-2.9169922.9365234-3.8164062,1.4580078-.1083984.0722656-.3066406.1806641-.5224609.1806641-.2880859,0-1.1884766-.46875-1.1884766-1.5664062,0-.2705078.0537109-.4140625.1259766-.5947266.5585938.7568359.6484375.8828125,1.2421875.8828125Zm10.2275391,1.2060547c1.2060547.7558594,1.3505859,1.2060547,1.3505859,1.6201172,0,.1806641-.0361328.5585938-.3789062.5585938-.1972656,0-.3056641-.1806641-.4316406-.3964844-.5947266-1.0986328-1.7285156-2.0527344-2.2148438-2.3769531.59375.0546875,1.1699219.2880859,1.6748047.5947266Zm3.4384766.8642578c0,.4316406-.2333984.4863281-.3242188.4863281-.1972656,0-.3232422-.1982422-.5039062-.4501953-.6123047-.8828125-1.4765625-1.5126953-2.3408203-2.1425781,1.1884766.1796875,3.1689453.9355469,3.1689453,2.1064453Z"/>
        <path class="cls-2" d="m97.9082031,150.1953125h-8.4990234v9.0205078c0,.2880859-.0898438.6845703-.6123047.6845703-.2333984,0-.4140625-.1621094-.4140625-.4326172,0-.3056641.0908203-3.0068359.0908203-3.5644531-.46875.3242188-1.0263672.6123047-4.6279297,2.2861328-.0537109.0898438-.1435547.2880859-.1796875.3427734-.0361328.0537109-.0898438.1259766-.1982422.1259766-.1259766,0-.1796875-.0908203-.2519531-.2167969l-.8105469-1.3857422c1.0800781-.0546875,1.1884766-.0546875,1.9990234-.2705078v-6.5898438c-.4501953.0175781-1.4404297.0722656-2.1425781.2158203l-.4326172-.7744141c.9365234.0722656,2.0703125.1259766,3.0068359.1259766h11.0195312l.6660156-.7558594c.0898438-.1074219.1982422-.2158203.3066406-.2158203.0898438,0,.1972656.0898438.3056641.1796875l.8818359.7568359c.0722656.0712891.1806641.1796875.1806641.2695312,0,.1982422-.1806641.1982422-.2880859.1982422Zm-3.0429688-5.0771484c0,.4853516.0898438,2.6289062.0898438,3.0605469,0,.6298828-.6298828.6845703-.7558594.6845703-.2880859,0-.3242188-.1445312-.3066406-.2880859h-7.3457031c.0175781.3056641-.3779297.4677734-.6660156.4677734-.3066406,0-.3964844-.1259766-.3964844-.4326172,0-.1259766.0537109-.6474609.0537109-.7558594.0185547-.5761719.0361328-2.0527344.0361328-2.5390625,0-.5214844-.1435547-1.1875-.234375-1.5478516l1.2431641.5761719h7.2197266l.3964844-.4863281c.0537109-.0722656.1074219-.1435547.1796875-.1435547s.1796875.0898438.2880859.1611328l.6845703.46875c.1074219.0722656.1796875.1621094.1796875.2519531,0,.1796875-.3242188.3779297-.6660156.5224609Zm-6.3564453,5.0771484h-3.1689453v1.5664062h3.1689453v-1.5664062Zm0,1.9990234h-3.1689453v1.5478516h3.1689453v-1.5478516Zm-3.1689453,1.9804688v2.3759766c1.3330078-.3417969,2.1787109-.5576172,3.1337891-.8818359l.0175781-1.4941406h-3.1513672Zm8.5888672-9.3994141h-7.3818359v1.3144531h7.3818359v-1.3144531Zm0,1.7470703h-7.3818359v1.6201172h7.3818359v-1.6201172Zm4.3935547,11.5048828c-.7919922.1621094-1.1708984.6308594-1.65625,1.2431641-.6484375-.2705078-1.890625-.8105469-3.4033203-2.1972656-.6484375.6123047-1.6201172,1.4404297-3.5292969,2.3583984l-.0537109-.1074219c1.7822266-1.296875,2.6826172-2.3769531,3.0429688-2.8085938-.9003906-1.0263672-1.7285156-2.4130859-1.9628906-4.1777344-.0898438,0-.1259766.0185547-.2880859.0537109l-.4316406-.7919922c1.1162109.0898438,2.5380859.1445312,2.9882812.1445312h1.9443359l.3242188-.3603516c.0908203-.0898438.1982422-.1621094.2705078-.1621094.1083984,0,.2158203.0898438.3242188.1982422l.7021484.6298828c.0722656.0537109.1435547.1621094.1435547.2880859,0,.234375-.1796875.2519531-.7558594.3964844-.7558594,2.0341797-1.6201172,3.0966797-2.0703125,3.6191406.6123047.4501953,2.0703125,1.3857422,4.4287109,1.6025391l-.0175781.0712891Zm-5.5458984-5.8515625c-.6845703,0-1.5126953.0898438-1.8369141.1259766.3242188.8828125.9365234,2.2509766,2.3232422,3.5292969,1.0078125-1.4404297,1.5126953-2.6464844,1.8183594-3.6552734h-2.3046875Z"/>
        <path class="cls-2" d="m107.6435547,152.2480469h-2.71875c0,.6123047-.0898438,1.4765625-.3964844,2.6464844,1.0986328.2705078,2.5390625.8105469,2.5390625,1.9267578,0,.4316406-.3417969.6298828-.5400391.6298828-.3066406,0-.4501953-.2519531-.6845703-.6660156-.4863281-.9003906-.828125-1.3681641-1.3681641-1.7099609-.3056641,1.0615234-1.1162109,3.5644531-3.7451172,4.9326172l-.0898438-.1074219c2.4667969-2.2871094,3.2763672-5.3837891,3.3125-7.6523438h-1.0078125c-.3779297,0-1.4589844.0361328-2.3232422.1982422l-.4316406-.7744141c.9365234.0722656,2.0703125.1435547,3.0068359.1435547h.7558594c0-.5761719.0361328-3.3662109.0185547-3.9970703h-1.1708984c-.9902344,1.6923828-1.6923828,2.4667969-2.0703125,2.8808594l-.1621094-.0898438c.9365234-1.5302734,1.6201172-3.1689453,2.1962891-4.8613281.5947266-1.7646484.5585938-2.125.5224609-2.5029297l1.4765625.7744141c.0898438.0537109.2519531.1259766.2519531.3056641,0,.234375-.2519531.2705078-.7197266.3427734-.1621094.4501953-.4326172,1.2236328-1.2431641,2.71875h2.7373047l.4140625-.6123047c.1259766-.1982422.1796875-.2705078.3056641-.2705078.0908203,0,.1083984.0185547.3427734.2167969l.7021484.6298828c.0898438.0722656.1796875.1435547.1796875.2695312,0,.1806641-.1982422.1982422-.2695312.1982422h-2.5214844c0,.3779297-.0175781,3.5292969-.0175781,3.9970703h1.0625l.4140625-.59375c.1074219-.1621094.1621094-.2705078.3056641-.2705078.0898438,0,.1806641.0722656.3066406.1806641l.7197266.6484375c.1083984.0898438.1806641.1611328.1806641.2695312,0,.1982422-.1982422.1982422-.2705078.1982422Zm9.0566406,6.8242188h-8.4267578c-.6298828,0-1.6386719.0712891-2.3222656.1982422l-.4140625-.7744141c1.3505859.1074219,2.6464844.1435547,2.9882812.1435547h2.9169922c.3242188-.6484375,1.6025391-3.8886719,1.6025391-5.3115234l1.4404297.7021484c.1806641.0898438.2519531.1806641.2519531.3066406,0,.2333984-.4316406.3417969-.7734375.4316406-.5410156,1.2607422-1.5126953,2.8632812-2.2695312,3.8710938h2.9892578l.6660156-.7197266c.1806641-.1982422.1982422-.234375.2880859-.234375.1083984,0,.234375.1259766.3066406.1982422l.8457031.7197266c.1083984.0908203.1806641.1445312.1806641.2705078,0,.1621094-.1621094.1982422-.2705078.1982422Zm-.5400391-13.7919922h-6.4462891c-.6298828,0-1.6386719.0712891-2.3046875.1972656l-.4316406-.7734375c1.3505859.1074219,2.6650391.1435547,2.9882812.1435547h4.2675781l.5400391-.7744141c.1259766-.1796875.1806641-.2519531.3066406-.2519531.0898438,0,.1259766,0,.3242188.1982422l.8457031.7919922c.1083984.1083984.1796875.1621094.1796875.2705078,0,.1621094-.1435547.1982422-.2695312.1982422Zm-1.4941406,2.7724609c0,1.5488281.0175781,2.2861328.0537109,3.1689453.0175781.1796875.0898438.9902344.0898438,1.1699219,0,.5947266-.7558594.6845703-.8105469.6845703-.2880859,0-.2695312-.2705078-.2695312-.4501953h-4.3398438c.0185547.3066406.0185547.3779297-.0537109.4501953-.1083984.1435547-.5576172.2158203-.6660156.2158203s-.234375-.0175781-.234375-.2880859c0-.0361328,0-.1435547.0185547-.3417969.0361328-.7744141.0712891-2.4130859.0712891-3.0791016,0-1.6201172-.0712891-2.0527344-.1972656-2.7724609l1.1162109.5576172h4.140625l.3603516-.4677734c.0898438-.1259766.1445312-.1982422.234375-.1982422.0537109,0,.0722656.0185547.2519531.1259766l.6298828.4140625c.1083984.0722656.2158203.1621094.2158203.2880859,0,.234375-.4853516.46875-.6113281.5224609Zm-4.5019531,9.4707031c-.5400391,0-.5761719-.4501953-.6484375-1.1884766-.0351562-.4316406-.1796875-1.2421875-.4853516-2.1962891l.1074219-.0537109c.5048828.3417969,1.6923828,1.3134766,1.6923828,2.5742188,0,.7919922-.5039062.8642578-.6660156.8642578Zm3.5830078-9.7226562h-4.3574219v4.3935547h4.3574219v-4.3935547Z"/>
      </g>
      <g>
        <path class="cls-2" d="m127.5498047,160.6601562c-.1591797-.4804688.4003906-1.2802734,1.0400391-1.8408203,3.6005859-3.2792969,8.8808594-9.9199219,12.7207031-14.7197266,4.4804688-5.7607422,8.2402344-12.2402344,8.2402344-17.8408203,0-6.9599609-4.3203125-9.8398438-9.2001953-9.8398438-4.5605469,0-7.9199219,2.4794922-9.8408203,4.9599609-.8798828,1.1201172-1.359375,1.6796875-1.6796875,1.6796875-.2402344,0-.8798828-.7998047-.8798828-1.1201172,0-.7197266.2402344-1.5195312,1.0400391-2.6396484,3.5996094-5.5205078,8.5605469-8.4804688,14.4003906-8.4804688,7.2001953,0,12.7998047,6.2402344,12.7998047,13.5205078,0,4.640625-3.1201172,10.2402344-6.3193359,14.0800781-4.4804688,5.2001953-8.9609375,10.5605469-14.4804688,16.640625-.2402344.1601562-.0800781.5605469.1601562.6396484,3.4394531.3203125,15.6796875.3203125,18.3203125-.0791016,2.3994141-.4003906,3.5996094-.9609375,5.5996094-3.1201172.5605469-.640625,1.2001953-1.3603516,1.6005859-1.3603516.7197266,0,1.0400391,1.0400391.2392578,2.5595703-1.4394531,3.1201172-2.1601562,5.0410156-2.4794922,7.2001953-.1601562.640625-.8798828.7207031-1.2001953.7207031-.4003906,0-16.5605469-.3203125-20.3203125-.3203125-1.8398438,0-5.2001953,0-8.0800781.2402344-.4804688.0800781-1.6005859-.3203125-1.6806641-.8798828Z"/>
        <path class="cls-2" d="m174.9091797,159.2998047c3.9199219-.8798828,5.0400391-1.7597656,5.4404297-5.1201172.3193359-2.6396484.5595703-7.9199219.5595703-22.640625,0-8.4804688-.0800781-11.2001953-.3193359-12.3203125-.1601562-.7998047-.8808594-1.5195312-1.7607422-1.6796875-1.2802734-.2402344-2.7998047-.4003906-3.5996094-.640625-1.2001953-.3193359-1.5205078-.5595703-1.5205078-1.0400391,0-.4794922.7998047-1.0400391,1.6005859-1.1992188,3.0400391-.7207031,6.0800781-1.0400391,8.3994141-2.3203125,1.6005859-.7998047,2.8808594-1.5205078,3.2802734-1.5205078.4003906,0,.640625.4003906.640625.8007812,0,1.5996094-.3203125,3.359375-.2402344,9.2001953,0,5.6796875,0,21.5996094.0800781,31.0400391,0,5.4404297.2402344,6.2402344,5.2001953,7.4404297,1.1201172.2402344,2.0800781.7197266,2.0800781,1.4404297,0,.5595703-.7207031.8798828-1.9199219.8798828-2,0-5.2802734-.3203125-7.7607422-.3203125-4.5595703,0-9.6796875.4003906-10.7998047.4003906-.8798828,0-2-.1601562-2-.8007812,0-.6396484.7998047-1.1201172,2.6396484-1.5996094Z"/>
      </g>
      <path class="cls-2" d="m206.8632812,148.0537109c-1.3320312,2.5576172-3.3662109,4.9335938-5.4375,6.2666016l-.0712891-.1259766c1.0439453-1.1708984,2.7548828-3.4570312,3.8525391-5.4560547.6660156-1.2246094.7382812-1.6923828.7568359-2.2324219l1.3681641.9003906c.1796875.1074219.2519531.1621094.2519531.2519531,0,.2333984-.4501953.3417969-.7207031.3955078Zm7.1123047,5.3837891c-.0175781.0185547-.1796875.1445312-.3955078.3066406-.0361328.6474609-.1445312,3.5283203-.1982422,4.1044922-.234375,2.1074219-.5039062,3.8173828-3.3134766,4.015625-.0537109-.8466797-.6298828-1.3505859-1.3681641-1.6025391v-.1621094c.2705078.0361328.3964844.0537109,1.4404297.1621094.2519531.0361328.46875.0361328.5947266.0361328.3056641,0,1.0263672,0,1.2421875-.5947266.4501953-1.1875.6123047-4.6806641.6123047-5.9951172,0-.2880859,0-.3242188-.0361328-.6308594h-4.0332031c-.0546875,1.1171875-.234375,2.2148438-.5224609,3.2773438-.828125,3.0605469-3.0429688,4.8613281-6.1933594,5.6533203l-.0361328-.1435547c4.5908203-2.125,5.5449219-5.4199219,5.6894531-8.7871094h-.3056641c-.6308594,0-1.6386719.0908203-2.3232422.2167969l-.4140625-.7744141c1.3505859.1074219,2.6464844.1259766,2.9892578.1259766h5.0410156l.4140625-.3779297c.1259766-.1083984.1806641-.1621094.2705078-.1621094s.1435547.0537109.2333984.1435547l.6484375.6845703c.0546875.0537109.1445312.1621094.1445312.2519531,0,.1083984-.0546875.1621094-.1806641.2519531Zm2.8271484.1259766c-2.6464844-1.1884766-4.4648438-3.6728516-5.4736328-6.6435547h-1.9267578c-.2880859,0-.7021484.0361328-.9902344.1074219l-.1796875-.59375c.3242188.0175781,1.0078125.0537109,1.2783203.0537109h1.7099609l.4140625-.4501953c.1806641-.1972656.2529297-.1972656.3242188-.1972656.1259766,0,.2519531.1074219.3066406.1796875l.6298828.59375c.0722656.0722656.1445312.1445312.1445312.2705078,0,.3417969-.5048828.4140625-1.2070312.4863281,1.0625,2.8984375,4.5556641,4.8251953,6.6806641,4.8974609v.1435547c-.9189453.2158203-1.3330078.7207031-1.7109375,1.1523438Z"/>
      <g>
        <path class="cls-2" d="m26.5,113.2304688c-.7802734,0-.9599609-.4501953-1.5898438-1.7998047-.6904297-1.4404297-.9599609-1.7998047-1.890625-2.5800781l.0605469-.1796875c4.5.75,4.6191406,2.6396484,4.6191406,3.1796875,0,.359375-.1796875,1.3798828-1.1992188,1.3798828Zm1.859375,4.7099609c-.5097656,1.6201172-.8701172,2.8798828-.8701172,3.75,0,.5097656.0302734.6298828.4804688,2.609375.1503906.6298828.4199219,1.7402344.4199219,2.6103516,0,1.4394531-.9902344,1.7392578-1.4404297,1.7392578-.5693359,0-1.3798828-.3896484-1.3798828-1.8300781,0-.4794922.2402344-2.5791016.2402344-3.0292969,0-1.0800781-.0595703-2.4902344-2.4892578-3.3896484v-.1503906c2.1591797-.2695312,2.1894531-.2695312,3.2089844-2.3701172.9306641-1.9199219,1.140625-2.3994141,4.0205078-9.4189453.0292969-.0908203.1201172-.2705078.1796875-.390625l.1796875.0302734c-.6591797,3.3300781-1.5595703,6.5996094-2.5498047,9.8398438Zm.6298828-11.25c-.75,0-.9599609-.4199219-1.5595703-1.6494141-.9902344-1.9804688-1.2597656-2.3105469-1.8896484-2.9101562l.0898438-.1503906c4.109375.8701172,4.5595703,2.640625,4.5595703,3.3603516s-.5097656,1.3496094-1.2001953,1.3496094Zm20.7294922,19.9189453c-1.4394531,1.1699219-4.2294922,1.2304688-6.9599609,1.2304688-6.8095703,0-7.1992188-.1201172-7.9794922-.4804688-1.7998047-.7792969-1.7998047-2.6992188-1.7998047-5.8496094,0-1.4101562.0595703-3.2392578.1201172-6.1796875.0302734-.75.0302734-1.2294922.0302734-1.5898438-1.2001953.4804688-1.7705078.8105469-2.1005859,1.0205078l-.9599609-.9306641c1.0800781-.2998047,2.0400391-.5693359,3.0605469-.8994141.0898438-3.390625.0292969-6.5996094-.4501953-8.3701172l3.0292969.9902344c.1201172.0302734.4501953.1796875.4501953.4501953,0,.3300781-.1796875.5097656-.8994141,1.109375,0,.1806641-.0908203,4.1103516-.1201172,5.1298828l3.75-1.3496094c-.0302734-1.140625,0-6.1796875-.0908203-7.2001953-.0898438-1.1992188-.2392578-1.7099609-.3896484-2.2792969l3.1503906.9599609c.2099609.0595703.4794922.1796875.4794922.4492188,0,.2705078-.3896484.6005859-1.0195312,1.0800781-.0302734,1.0800781-.0908203,2.8505859-.0908203,6.2402344l3.8398438-1.3798828.75-1.2001953c.1201172-.2099609.2705078-.3896484.4199219-.3896484.1503906,0,.3007812.0898438.5400391.2099609l1.5605469.8398438c.2099609.1201172.4199219.2695312.4199219.5097656,0,.2705078-.4804688.75-.9296875,1.2001953-.0302734,1.0800781,0,5.9091797-.0605469,6.8994141-.2099609,3.1796875-.9599609,4.2001953-3.3300781,4.9501953-.2695312-.9902344-1.1396484-2.1298828-2.3398438-2.8798828v-.1503906c1.0800781.1201172,2.1904297.1503906,2.3398438.1503906.5400391,0,.8701172-.1201172,1.0507812-.8105469.3291016-1.109375.359375-3.1494141.359375-4.3798828,0-1.3798828-.0302734-3.0292969-.1796875-4.3798828l-4.4404297,1.5908203c.0302734,1.7998047.1806641,9.3291016.1806641,10.6787109,0,.5703125-.0898438.7802734-.2998047.9902344-.3300781.2998047-.8408203.5703125-1.2607422.5703125-.6591797,0-.8095703-.4199219-.8095703-.8701172,0-.3896484.1503906-2.1601562.1503906-2.4902344.0292969-2.0996094,0-5.4296875,0-8.1591797l-3.7802734,1.3496094c-.0595703,2.7001953-.1201172,5.9697266-.1201172,8.0996094,0,3.2705078,0,4.0498047.9296875,4.3798828.7207031.2705078,6.0302734.3300781,6.8105469.3300781,4.7695312,0,4.9492188-.3896484,6.1796875-5.3398438h.1494141c.2099609,1.2900391.5097656,3.2998047.7802734,3.7802734.0898438.1494141.3300781.3300781.5703125.5400391.0898438.0898438.1796875.1796875.1796875.3896484,0,.4199219-.3896484,1.0498047-.8701172,1.4394531Z"/>
        <path class="cls-2" d="m62.5898438,104.0205078c-.4199219.5703125-.8701172,1.140625-2.1298828,2.6699219l.5996094.2402344c.2402344.0898438.4794922.2402344.4794922.4501953,0,.2392578-.2695312.4199219-.6894531.7792969-.0302734.5703125-.0605469,1.2001953-.0605469,2.8203125,0,.5703125.0605469,3.1201172.0605469,3.6601562,0,1.109375-.9003906,1.2900391-1.3798828,1.2900391-.75,0-.75-.4208984-.75-.9599609,0-.3300781.1201172-3.2402344.1201172-3.4804688v-2.9697266c-1.9804688,2.1601562-4.1103516,3.3896484-5.4599609,4.1396484l-.2099609-.2695312c3.1796875-2.9404297,7.3193359-8.4902344,7.7695312-10.7998047l2.4296875,1.4404297c.1503906.0898438.3603516.2695312.3603516.4199219,0,.2392578-.1201172.4199219-1.1396484.5693359Zm15.6894531,24.0888672c-1.6503906-.5996094-4.3203125-1.6494141-6.9902344-3.9296875-1.3496094.7197266-1.9794922.9599609-11.5498047,4.3203125-.0595703.3896484-.1494141.5996094-.3896484.5996094-.3300781,0-.5400391-.3896484-.6298828-.5400391l-1.3203125-2.4296875c.390625.0595703.8105469.1201172,1.3798828.1201172,1.1699219,0,2.8798828-.3300781,3.390625-.4199219v-4.2304688c-2.0400391,1.4404297-5.2802734,3.4501953-8.8203125,4.3203125l-.0898438-.2402344c2.4902344-1.2900391,8.5800781-5.4296875,10.3193359-7.9492188h-5.7890625c-.7207031,0-2.2207031.0292969-3.5400391.2695312l-.5097656-1.2001953c1.3496094.1201172,3.1494141.2099609,4.5292969.2099609h7.2900391c.1494141-2.9394531-.3300781-3.9892578-.6601562-4.7695312l3.0302734.7197266c.2099609.0605469.5693359.1806641.5693359.5107422,0,.359375-.5400391.6894531-.8701172.8398438v2.6992188h8.0400391l.9902344-1.2294922c.2099609-.2402344.3300781-.3896484.4794922-.3896484.1503906,0,.3603516.1494141.5400391.2998047l1.5605469,1.2597656c.0898438.0898438.2998047.2402344.2998047.4501953,0,.2998047-.2998047.3300781-.4501953.3300781h-11.4296875c.3603516.8398438,1.0800781,2.25,2.6699219,3.6894531,1.3798828-1.2294922,2.8203125-2.4902344,3.1796875-3.6298828l2.0400391,1.8603516c.1796875.1796875.2998047.2998047.2998047.5097656,0,.3300781-.2099609.3896484-.4492188.3896484-.1503906,0-.3007812-.0292969-.8701172-.1201172-.4804688.2099609-.6005859.2402344-3.8105469,1.3203125,1.0507812.9296875,4.4101562,3.2998047,10.0800781,3.9296875v.2402344c-.4804688.2099609-1.9199219.8701172-2.5195312,2.1894531Zm.4492188-13.0488281c-3.0595703,0-7.859375-1.9804688-9.8994141-6.9902344l-2.3398438.1503906c-.3300781.0302734-2.0996094.1494141-3.5097656.5097656l-.6601562-1.1699219c2.2197266.0595703,4.2597656-.0595703,4.5898438-.0898438l1.6201172-.0898438c-.2705078-.8105469-.6298828-2.5800781-1.3798828-6l2.9101562.6298828c.2998047.0595703.5097656.2402344.5097656.4501953,0,.4794922-.5703125.7197266-.7802734.7802734.0302734.8691406.0898438,2.1298828.75,3.9892578l5.609375-.359375,1.0205078-1.2304688c.1503906-.1796875.3300781-.3896484.4794922-.3896484.1503906,0,.3603516.1201172.5703125.2695312l1.4697266,1.1103516c.1503906.1201172.3300781.2402344.3300781.4501953,0,.2695312-.2695312.3291016-.4501953.3291016l-8.7294922.5400391c.2998047.6601562,1.140625,2.3701172,3.1796875,3.5703125,1.5605469.9296875,3.0302734,1.1699219,3.390625,1.1699219.4794922,0,.7197266-.1796875,1.0498047-.7802734.5097656-.9892578.7197266-1.6201172.8994141-2.1298828h.2402344c.0302734.2998047.2705078,2.6699219.2998047,2.8203125.0898438.2998047.2402344.5097656.5400391.8095703.0898438.0898438.0898438.2998047.0898438.390625,0,.6591797-.6591797,1.2597656-1.7998047,1.2597656Zm-11.6689453,2.6699219h-.3603516c-1.0800781,1.109375-1.859375,1.7695312-2.4296875,2.25v5.4892578c2.0693359-.3896484,5.0097656-.9296875,6.8398438-1.4394531-2.2802734-1.9804688-3.4501953-4.3505859-4.0498047-6.2998047Zm7.3496094-11.7900391c-.6005859,0-.9599609-.5693359-1.4101562-1.2900391-.4199219-.7197266-.9296875-1.2900391-1.5595703-1.7998047l.0292969-.2695312c2.9404297,0,3.9902344,1.2597656,3.9902344,2.3095703,0,.7197266-.6904297,1.0498047-1.0498047,1.0498047Z"/>
      </g>
    </g>
  </g>
</svg>