<?xml version="1.0" encoding="UTF-8"?>
<svg id="_レイヤー_2" data-name="レイヤー 2" xmlns="http://www.w3.org/2000/svg" viewBox="0 0 232.5 191.5">
  <defs>
    <style>
      .cls-1 {
        fill: #092237;
        stroke-width: 0px;
      }

      .cls-2 {
        fill: none;
        stroke: #092237;
        stroke-miterlimit: 10;
        stroke-width: .5px;
      }
    </style>
  </defs>
  <g id="layout">
    <g>
      <rect class="cls-2" x=".25" y=".25" width="232" height="191"/>
      <g>
        <path class="cls-1" d="m80.7529297,157.1572266h-37.7021484c-.6503906,0-3.4501953,0-5.9003906.4501953l-1-2c3.3496094.25,6.75.3496094,7.7001953.3496094h4.25c0-4.5,0-5-.0498047-6.2001953-.0498047-1.75-.25-2.2998047-.5996094-3.25l4.4003906,1.0498047c.5996094.1503906,1,.3496094,1,.7998047,0,.3505859-.4003906.7998047-1.4003906,1.5v6.1005859h5.7998047v-11.2509766h-8.2998047c-.9003906,0-3.4501953,0-5.9003906.4501953l-.9501953-2c3.1005859.25,6.1503906.3496094,7.6503906.3496094h19.3515625l1.5498047-2.1992188c.2001953-.3007812.4501953-.6005859.75-.6005859s.5498047.2001953.9501953.5l2.7998047,2.2001953c.2998047.2001953.5.5.5.75,0,.4003906-.2001953.5498047-.75.5498047h-14.2011719v4.7509766h5.4511719l1.25-1.8505859c.25-.3496094.5-.5996094.75-.5996094s.5996094.2001953,1,.5l2.4003906,1.8496094c.25.2001953.5.5.5.7998047,0,.3007812-.3007812.5009766-.75.5009766h-10.6015625v5.2998047h14.0517578l1.6992188-2.2998047c.3007812-.4501953.5507812-.6005859.8007812-.6005859s.5498047.1503906.9501953.5l2.7998047,2.3007812c.25.1992188.5.5.5.75,0,.3994141-.2998047.5498047-.75.5498047Zm-20.8017578-36.8027344h-8.7998047v3.3505859h4.5l.75-.9003906c.2998047-.3496094.5-.5498047.75-.5498047.2998047,0,.5498047.2001953.9003906.4501953l1.5,1.1503906c.25.1992188.4501953.3994141.4501953.6494141,0,.3007812-.1503906.75-1.2001953,1.3505859-.0498047.8994141.0996094,4.7998047,0,5.5498047-.1005859,1.2001953-1.3505859,1.5507812-2.0507812,1.5507812-1.0996094,0-1.0996094-.4003906-1.0498047-1.8505859h-4.5498047v1.2998047c1.0498047.25,6.6005859,1.4501953,6.6005859,4.5009766,0,1-.7001953,1.5498047-1.5009766,1.5498047-1,0-1.4492188-.6503906-2.0498047-1.6503906-1.0996094-1.9501953-1.7001953-3-3.0498047-3.9003906,0,1.2001953.0996094,6.5507812.0996094,7.6005859,0,1.75-2.0498047,1.8505859-2.2998047,1.8505859-1.1005859,0-1.1005859-.6005859-1.1005859-.9501953,0-.5996094.2001953-3.5.25-4.1503906.0498047-1.0498047.0498047-1.5498047.0498047-3.25-2.5498047,3.2001953-6.4501953,7.1503906-11.4501953,8.9501953l-.1503906-.25c3.1005859-2.4003906,8.2509766-8.3505859,10.3007812-11.6005859h-3.0498047c.0498047.9003906,0,1.1503906-.4501953,1.4501953-.4501953.25-1.4003906.6503906-2.0498047.6503906-.7001953,0-.9003906-.4501953-.9003906-1.0507812,0-1,.2001953-5.4501953.2001953-6.3496094,0-1.7001953-.1005859-2.4501953-.25-3.4501953l3.5,1.3496094h4.4003906c-.0498047-2.1503906-.0498047-2.25-.1005859-3.3505859h-4.2998047c-.9501953,0-3.5,0-5.9003906.4501953l-1-2c3.1503906.25,6.3007812.3505859,7.7001953.3505859h3.5c-.0498047-3.1503906-.0996094-4.2001953-.5498047-6.4003906l4.3505859,1.5c.4003906.1494141.75.3496094.75.75,0,.5-.3496094.7998047-1.5498047,1.3994141v2.7509766h4.2001953l1.1494141-1.6503906c.3007812-.4501953.5507812-.6005859.75-.6005859.3007812,0,.6503906.2001953.9501953.4501953l2,1.7001953c.25.2001953.5.5.5.7998047,0,.4003906-.3994141.5-.75.5Zm-16.2001953,4.5507812v5h4.4501953l.0498047-5h-4.5Zm11.9501953,0h-4.5498047v5h4.5498047v-5Zm22.8017578,15.1005859c-3.9003906-1.8496094-7.4003906-3.9003906-9.7509766-6.3505859-4.4003906,5.1503906-9.9003906,6.8505859-13.0507812,7.7011719l-.0996094-.2998047c4.9003906-2.5507812,8.1503906-5.2509766,11.3505859-9.7011719-1.5498047-2.3496094-2.4003906-5.0498047-2.9501953-7.8007812-2.2001953,2.9003906-3.8007812,4.1503906-4.8505859,4.9511719l-.2998047-.3007812c2.9003906-3.9003906,5.0498047-8.2998047,6.3505859-12.9501953.25-.9501953.25-1.6005859.25-2.5507812l4,2c.2998047.1503906.7001953.4003906.7001953.8007812,0,.5-.3505859.75-1.8505859,1.0498047-.6494141,1.25-1.3994141,2.6503906-3.0498047,5.25h9.9501953l1.5507812-2.1494141c.3496094-.4501953.5498047-.6503906.7998047-.6503906s.5498047.2001953,1,.5498047l2.5,2.1503906c.2998047.25.5.4501953.5.7998047,0,.3505859-.3496094.5-.7998047.5h-8.0009766l1.9501953,1.0498047c.4501953.25.8505859.5.8505859.9003906,0,.5-.5.75-1.6503906.9501953-.6503906,1.2001953-1.7001953,3.1503906-3.6005859,5.8505859,2.9501953,2.3496094,7.1005859,3.75,12.0507812,4.5498047v.25c-2.5996094,1.3505859-3.3994141,2.7001953-3.8496094,3.4501953Zm-13.9013672-17.0009766c1.1503906,3.6503906,2.7001953,5.6005859,3.5009766,6.6005859,2.25-3.75,2.75-5.9501953,2.8496094-6.6005859h-6.3505859Z"/>
        <path class="cls-1" d="m119.6523438,132.3554688h-7.8505859c.0996094,2.3505859.0996094,5.8007812.0996094,9.2509766,0,5.25,0,5.8505859.0498047,8.6503906,0,.8496094.1503906,4.5498047.1503906,5.2998047,0,2.3505859-2.2998047,2.3505859-2.7001953,2.3505859-1.2998047,0-1.5498047-.7001953-1.5498047-1.4501953,0-.7001953.1992188-3.7998047.1992188-4.4003906.25-7.4003906.3007812-17.2011719.3007812-18.4013672v-1.2998047h-4.7509766c-.2998047,11.8007812-1.75,19.0009766-11.4003906,24.8515625l-.2998047-.3496094c7.3505859-7.3505859,8-13.8007812,8.25-24.5019531h-2.2998047c-1.25,0-3.6503906.0498047-5.9003906.4501953l-1-2c3.1005859.25,6.2001953.3496094,7.7001953.3496094h1.5v-12.8007812c-1.75,0-4.1503906,0-6.5498047.4501953l-1-2c3.4501953.2998047,7.0498047.3496094,7.7001953.3496094h12.9003906l1.6005859-2.1992188c.2998047-.4003906.5-.6005859.7998047-.6005859s.5498047.2001953.9003906.5l2.3994141,2.2001953c.3007812.25.4501953.5498047.4501953.7998047,0,.4003906-.3994141.5-.75.5h-6.7998047v12.8007812h2.0996094l1.5498047-2.1494141c.3505859-.4501953.5-.6503906.8007812-.6503906.25,0,.5996094.1503906,1.0498047.5498047l2.6005859,2.1503906c.25.2001953.5.5.5.75,0,.3496094-.3505859.5498047-.75.5498047Zm-11.3007812-14.0009766h-4.7509766v12.8007812h4.7509766v-12.8007812Zm28.0009766,26.9521484c-.3496094,0-.6494141-.0498047-1.2001953-.1005859-6.6503906,6.3505859-11.2001953,10.0009766-21.3505859,12.8007812l-.1503906-.4492188c7.1503906-3.8505859,17.9013672-12.3515625,19.7011719-17.5517578l3.6503906,3.75c.25.2509766.3496094.5507812.3496094.9003906,0,.5-.5.6503906-1,.6503906Zm-3.5996094-13.7011719c-3.2001953,3.75-8.9511719,9.2509766-17.0517578,12.4511719l-.1992188-.4003906c3.5498047-2.5498047,7.7001953-6.4003906,11.8007812-11.5009766,2.7001953-3.2998047,2.9501953-4.25,3.2998047-5.5498047l3.9003906,3.5c.2001953.1503906.3496094.4501953.3496094.7998047,0,.5-.5498047.8505859-2.0996094.7001953Zm-1.3007812-14.1503906c-4.2998047,5.75-9.2998047,8.8505859-12.9003906,10.75l-.2998047-.4492188c3.7001953-3.6503906,6.4501953-7.1005859,8.1503906-9.6015625,2-2.8496094,2.2001953-3.9501953,2.4501953-5.1494141l4.1005859,2.9501953c.3496094.25.5.5.5.7998047,0,.75-1.1005859.7998047-2.0009766.7001953Z"/>
        <path class="cls-1" d="m163.8515625,131.0556641h-5.8505859v16.1005859c4.0498047-1.2001953,5.2001953-1.6494141,6.3505859-2.0498047l.1992188.4003906c-1.75,1.2998047-4.0996094,2.6494141-7.2001953,4.25-2.0498047,1.0498047-4.6503906,2.3496094-6.1503906,3.0996094-.4501953,1.0507812-.6494141,1.6005859-1.25,1.6005859-.3496094,0-.6494141-.3496094-.7998047-.5996094l-2.6005859-4.4511719c1.7001953.1005859,2.5507812.2001953,8.2011719-1.3496094,0-1.7001953.0498047-9.3007812.0498047-10.8505859v-6.1503906h-1c-.9003906,0-3.4501953,0-5.9003906.4501953l-.9501953-2c2.9501953.25,5.9501953.3496094,7.8505859.3496094,0-2.5,0-5-.0498047-7.5-.0507812-4.2011719-.1503906-5.3007812-.6503906-7.4003906l5.0507812,1.6992188c.25.1005859.6992188.3007812.6992188.75,0,.6005859-1,1.3505859-1.7001953,1.8007812-.0996094,3.5-.0996094,5.2001953-.1494141,10.6503906h1.2001953l1.5-1.6503906c.4501953-.5.5996094-.6494141.8496094-.6494141.3007812,0,.6005859.3496094.8505859.5498047l1.75,1.6503906c.25.25.4501953.4492188.4501953.75,0,.5-.4501953.5498047-.75.5498047Zm22.3505859,25.6015625c-1.1494141.2001953-10,.2001953-11.4003906.2001953-8.2001953,0-9.6503906-.4003906-9.6503906-5.8505859,0-1.9501953.1503906-10.5507812.1503906-12.3007812,0-.5-.0507812-2.75-.0507812-3.2001953-2,.9003906-3.0996094,1.4501953-4.8496094,2.6503906l-1.7001953-1.4003906c2.7001953-.9003906,5.7998047-2.25,6.5498047-2.5996094v-8.8505859c0-2.3505859-.0996094-3.4501953-.5498047-5.8007812l4.6503906,1.5996094c.3496094.1005859.75.3007812.75.7001953,0,.4501953-.4003906.8007812-1.5996094,1.6503906-.0507812,1.5-.1005859,8.0009766-.1005859,9.3007812l5.4501953-2.4501953c.0498047-5,.0498047-8.5507812-.0996094-12.0507812-.1005859-1.8505859-.4501953-3.6005859-.6005859-4.4003906l4.8007812,1.6005859c.5.1494141.8496094.3994141.8496094.75,0,.4492188-.6992188,1.0498047-1.75,1.8496094-.0996094,4.5-.0996094,5.1503906-.0996094,10.8505859l4.8505859-2.1503906,1.1992188-2c.25-.3994141.5-.8496094.8505859-.8496094.3496094,0,.6503906.2001953.9501953.3994141l2.3496094,1.4501953c.2001953.1005859.5.4501953.5.8007812,0,.5996094-.5498047,1.0996094-1.25,1.75,0,15.0009766-.0996094,18.4511719-5.9501953,20.0009766-.4501953-2.5-2.2998047-3.75-3-4.2001953v-.25c.8496094.0996094,1.1503906.0996094,1.5498047.0996094,3.5,0,4.0507812-.4501953,4.0507812-11,0-3.4003906-.0507812-3.9501953-.1005859-5.4003906l-5.9501953,2.7001953c.0498047,7.3505859.0996094,12.1503906.1503906,13.5,0,.6503906.1494141,3.6005859.1494141,4.2011719,0,2.3994141-2.0996094,2.5-2.5498047,2.5-.7001953,0-1.2001953-.25-1.2001953-1.3007812,0-.5498047.1503906-3.0996094.1503906-3.5996094.0996094-3.2001953.0996094-5.1005859.1494141-13.9013672l-5.4501953,2.4501953c-.0498047,2,0,17.3515625.0498047,17.9511719.0507812.6503906.5507812,1.2001953,1.2001953,1.4003906.6503906.2001953,7.8007812.2001953,8.7509766.2001953,5.1503906,0,6.7001953,0,7.75-1.8505859.9501953-1.75,2-5.4501953,2.2001953-6.0498047h.3505859c.0996094,1.7998047.25,4.75.9492188,5.9501953.3007812.5,1.1503906.9501953,1.1503906,1.4501953,0,.7001953-.8496094,2.8496094-4.6005859,3.5Z"/>
      </g>
      <g>
        <path class="cls-1" d="m37.7773438,29.21875c-.484375.7480469-.5058594.9462891-.5058594,1.1005859,0,.2412109.3076172,1.3203125.3076172,1.5400391,0,.7255859-.3955078,1.1435547-.9248047,1.1435547-.5488281,0-.9238281-.4179688-.9238281-1.1660156,0-.2197266.1103516-1.2099609.1103516-1.4082031,0-.8574219-.7480469-1.2099609-1.0126953-1.3417969l.0224609-.1318359c.4404297.0214844,1.1005859.0214844,1.4736328-.1542969.9902344-.4619141,3.1689453-3.3447266,4.0488281-4.4882812l.1328125.109375c-.6171875,1.4746094-1.7382812,3.2783203-2.7285156,4.796875Zm11.859375,3.5644531c-.0439453.7705078.109375,4.8632812.109375,5.6113281,0,.5273438-.6376953.7480469-1.0556641.7480469-.3740234,0-.4404297-.1328125-.4619141-.3964844h-6.953125l1.6064453,1.1220703c.1318359.0878906.2197266.1542969.2197266.3085938,0,.2197266-.4394531.2412109-.5273438.2412109-.1542969,0-.375-.0214844-.5507812-.0439453-1.4960938.8144531-4.6865234,1.9365234-6.7773438,1.9365234l-.0214844-.1318359c.7919922-.2861328,5.1269531-1.9580078,5.8964844-3.4326172h-.9902344c0,.7919922-.7910156.8583984-1.078125.8583984-.484375,0-.484375-.3300781-.484375-.5498047,0-.1542969.1328125-3.3447266.1328125-3.9833984,0-.9892578,0-3.3876953-.1328125-4.2246094l1.6728516.8369141h7.7451172l.3085938-.4404297c.0878906-.1103516.1757812-.2197266.2851562-.2197266.1103516,0,.2207031.0654297.4179688.1972656l1.0126953.6826172c.1533203.1103516.2197266.1757812.2197266.2861328,0,.1542969-.0664062.1982422-.59375.59375Zm-11.9042969-6.6669922c-.4833984,0-.703125-.3300781-1.0117188-.9238281-.7265625-1.4306641-.8144531-1.5839844-1.4521484-2.1347656l.0224609-.109375c2.265625.2861328,3.3222656,1.2314453,3.3222656,2.2441406,0,.4404297-.2636719.9238281-.8808594.9238281Zm14.4345703,5.8525391c-2.3984375-.9238281-4.7529297-2.4199219-5.9628906-6.0283203-.7705078,2.6621094-3.0576172,4.9951172-6.2041016,5.3466797l-.0888672-.1542969c3.5419922-1.671875,4.7529297-4.7519531,4.9501953-5.5888672h-1.9794922c-1.8925781,2.3769531-3.1025391,3.234375-3.8505859,3.7412109l-.0878906-.1328125c1.2099609-1.4082031,3.5859375-4.8183594,3.8945312-7.1728516l1.8925781,1.0341797c.1308594.0664062.2197266.1767578.2197266.3085938,0,.2421875-.3076172.3076172-.8144531.3955078-.2861328.4619141-.4833984.7919922-.8583984,1.2988281h6.3808594l.5947266-.6826172c.0878906-.109375.1982422-.1318359.2636719-.1318359.1318359,0,.2197266.0439453.3964844.1757812l1.4736328,1.1660156c.1103516.0888672.1757812.2207031.1757812.3740234,0,.3525391-.1308594.3525391-1.3203125.4179688-.3291016.1767578-1.5390625.8144531-2.3095703,1.2109375l-.1103516-.0664062c.1328125-.2421875.5722656-1.0996094.8583984-1.9365234h-3.3447266c1.3642578,3.2792969,4.8632812,4.2910156,7.8115234,4.5771484v.1542969c-.8583984.3300781-1.4082031.6816406-1.9804688,1.6933594Zm-3.9384766.2421875h-8.0976562v1.6728516h8.0976562v-1.6728516Zm0,2.2001953h-8.0976562v1.6289062h8.0976562v-1.6289062Zm0,2.1572266h-8.0976562v1.6494141h8.0976562v-1.6494141Zm2.640625,6.0283203c-.3964844,0-.484375-.0878906-1.2988281-.8144531-1.4960938-1.3642578-1.8037109-1.6494141-3.234375-2.3535156l.0449219-.1328125c2.7275391-.0654297,5.3681641,1.1220703,5.3681641,2.4208984,0,.3955078-.2861328.8798828-.8798828.8798828Z"/>
        <path class="cls-1" d="m75.8164062,30.4072266h-14.9833984c.1982422,6.7763672-.7041016,9.6367188-3.71875,12.0576172l-.1103516-.0878906c1.9140625-2.7070312,2.3105469-5.9414062,2.3320312-8.6699219,0-1.3632812-.109375-3.4755859-.4833984-4.8183594l2.1787109.9902344h7.0839844c.5722656-1.2539062,1.453125-3.1904297,1.6728516-4.2910156h-8.8896484c-.5722656,0-1.6054688.0224609-2.5957031.1982422l-.4179688-.8798828c1.3857422.1103516,2.75.1542969,3.3662109.1542969h4.6201172c-.0654297-1.4960938-.2421875-2.2226562-.3515625-2.640625l2.2890625.5498047c.1533203.0439453.3066406.0878906.3066406.3085938,0,.2197266-.5273438.5058594-.7695312.6376953v1.1445312h4.6425781l.9462891-1.0566406c.1767578-.1982422.2421875-.2861328.3525391-.2861328.0878906,0,.1757812.0439453.3955078.2207031l1.4082031,1.078125c.1103516.0878906.2197266.1972656.2197266.3300781,0,.2197266-.1757812.2412109-.3300781.2412109h-4.4443359l1.3427734.7480469c.1308594.0664062.1757812.1542969.1757812.2421875,0,.3085938-.3300781.3740234-.9023438.5068359-.9902344,1.1875-1.4296875,1.6494141-2.5742188,2.7939453h4.2910156l.8134766-.9902344c.1318359-.1757812.2197266-.2636719.3300781-.2636719.0878906,0,.2197266.0654297.4404297.2197266l1.4511719.9902344c.1542969.1103516.2421875.1982422.2421875.3300781,0,.1982422-.1757812.2421875-.3300781.2421875Zm.1767578,11.1113281h-12.6083984c-.2197266,0-1.5625,0-2.5957031.1982422l-.4179688-.8798828c1.5175781.1318359,3.1894531.1533203,3.3662109.1533203h3.0810547v-3.1464844h-1.453125c-.5498047,0-1.6054688.0224609-2.5742188.1982422l-.4394531-.8798828c1.4960938.1318359,3.1015625.1542969,3.3886719.1542969h1.078125v-2.7070312h-2.9931641c-.8583984,1.3642578-1.4306641,2.2666016-2.8603516,3.4990234l-.109375-.0664062c1.078125-2.0244141,2.5292969-5.0830078,2.8378906-7.0185547l1.9355469.8359375c.1992188.0878906.2207031.1757812.2207031.2421875,0,.1972656-.0878906.2421875-.7695312.5722656-.1767578.2197266-.6171875.9238281-.9023438,1.4082031h2.640625c-.0449219-2.1132812-.0449219-2.3330078-.2421875-3.3447266l2.1337891.3955078c.1103516.0224609.2861328.0664062.2861328.2646484,0,.1972656-.3515625.4179688-.7041016.6376953,0,.3085938-.0224609,1.7382812-.0224609,2.046875h3.234375l.7705078-1.0566406c.1318359-.1757812.2421875-.2861328.3525391-.2861328.109375,0,.1972656.0878906.3955078.2421875l1.2763672,1.0556641c.1757812.1328125.2207031.2421875.2207031.3300781,0,.1982422-.1992188.2421875-.3525391.2421875h-5.8974609v2.7070312h2.6191406l.6601562-.8144531c.1757812-.1982422.2197266-.2636719.3515625-.2636719.0878906,0,.1757812.0654297.3964844.2197266l1.2099609.8359375c.1757812.1318359.2197266.2197266.2197266.3076172,0,.2207031-.1972656.2421875-.3300781.2421875h-5.1269531v3.1464844h4.7529297l.9902344-.9238281c.1318359-.1103516.2861328-.2421875.3740234-.2421875.0664062,0,.1757812.0664062.3964844.2197266l1.3203125.9023438c.109375.0878906.2197266.1982422.2197266.3300781,0,.1982422-.1767578.2421875-.3300781.2421875Zm-12.3212891-11.9697266c-.5292969,0-.5722656-.1542969-1.0566406-1.4296875-.3740234-.96875-.7695312-1.6064453-1.2763672-2.1123047l.0439453-.1103516c.9023438.3076172,3.1904297,1.0996094,3.1904297,2.6181641,0,.5283203-.3525391,1.0341797-.9013672,1.0341797Z"/>
        <path class="cls-1" d="m83.6464844,28.2724609c.1328125.0664062.2646484.1318359.2646484.2421875,0,.1982422-.1533203.3525391-.5947266.6826172-.0214844,1.0117188-.0429688,3.1464844,0,5.8300781.1113281,5.5449219.0888672,5.9414062.0888672,6.2050781,0,.7041016-.5068359,1.1005859-1.1435547,1.1005859-.3964844,0-.6171875-.1982422-.6171875-.7041016,0-.2861328.1103516-1.5849609.1103516-1.8261719.0878906-2.1787109.0878906-3.5644531.1767578-10.0556641-1.2988281,2.1337891-2.6630859,3.2783203-3.2353516,3.7402344l-.1103516-.0878906c1.6728516-2.6621094,4.7753906-8.8671875,4.7753906-10.7373047,0-.2421875.0214844-.4404297,0-.5507812l2.1777344.96875c.0878906.0439453.2207031.1757812.2207031.2636719,0,.2421875-.2861328.3740234-.8144531.6162109-.3085938.6162109-1.7382812,3.4101562-2.0244141,3.9609375l.7255859.3515625Zm12.6308594,1.4746094l.4394531-.6386719c.0664062-.0878906.1982422-.2412109.3085938-.2412109.0664062,0,.1972656.0214844.3515625.1533203l.9462891.7265625c.1318359.0878906.2421875.2421875.2421875.3955078,0,.1328125-.2861328.3525391-.6601562.6601562-.0224609.7919922-.0439453,6.1171875.0439453,8.9775391,0,.2421875.0878906,1.2539062.0878906,1.4521484,0,.6601562-.8798828.9462891-1.2099609.9462891-.4404297,0-.4833984-.3300781-.4833984-.6162109,0-.1318359.0214844-.4179688.0429688-.8798828h-9.3515625c.0449219.5283203.0878906,1.3642578-1.078125,1.3642578-.4394531,0-.6152344-.1982422-.6152344-.7265625,0-.3076172.0654297-1.6503906.0654297-1.9355469.0439453-1.2988281.1318359-4.5996094.1318359-7.2832031,0-1.6064453-.0214844-2.5527344-.1542969-3.4765625l1.9804688,1.1220703h1.7167969v-4.7304688h-1.0341797c-.1982422,0-1.5615234,0-2.5966797.1972656l-.4179688-.8798828c1.6503906.1542969,3.3007812.1542969,3.3671875.1542969h7.4365234l.9023438-1.1220703c.2197266-.2646484.2861328-.2646484.3525391-.2646484.109375,0,.3066406.1542969.3955078.2207031l1.3642578,1.1220703c.109375.0878906.2197266.1982422.2197266.3300781,0,.1982422-.1982422.2421875-.3300781.2421875h-4.6865234v4.7304688h2.2226562Zm-9.2636719.5283203v9.8789062h2.0683594v-9.8789062h-2.0683594Zm5.6113281-.5283203v-4.7304688h-2.1132812v4.7304688h2.1132812Zm-2.1132812.5283203v9.8789062h2.1132812v-9.8789062h-2.1132812Zm5.875,9.8789062v-9.8789062h-2.3320312v9.8789062h2.3320312Z"/>
        <path class="cls-1" d="m107.8251953,24.1142578c-.4619141,1.078125-.8583984,1.8925781-1.4082031,2.9042969l.3300781.1757812c.1767578.0878906.3076172.2207031.3076172.3740234,0,.1982422-.3076172.4179688-.6376953.6386719-.0224609.8134766-.0439453,1.1220703-.0439453,3.5205078,0,1.5400391.0664062,8.3164062.0664062,9.703125,0,.8583984-.6171875,1.0556641-1.1005859,1.0556641-.6376953,0-.6376953-.5273438-.6376953-.8359375,0-1.078125.1318359-2.8164062.1757812-3.8945312.0439453-1.4736328.109375-3.6298828.109375-5.6103516,0-1.4521484-.0214844-2.15625-.0429688-2.640625-1.078125,1.671875-2.15625,3.0146484-3.3671875,4.0488281l-.1542969-.1318359c3.7402344-6.3154297,4.6650391-9.4179688,4.8417969-10.1435547.0878906-.4179688.1308594-.8369141.1533203-1.1884766l2.0908203,1.1660156c.2197266.1318359.2636719.2421875.2636719.3300781,0,.3740234-.6386719.484375-.9462891.5283203Zm13.421875,2.2441406h-6.0947266v2.4648438h2.4423828l.4833984-.5283203c.1542969-.1757812.2646484-.2421875.3964844-.2421875.1542969,0,.3085938.0664062.4179688.1542969l.9023438.6376953c.1318359.0878906.2636719.2636719.2636719.3740234,0,.2421875-.1542969.3964844-.7695312.7919922.0214844.8798828.0664062,4.8193359.109375,5.6328125.0224609.3300781.1103516,1.8486328.1103516,2.15625,0,.8808594-1.0126953.9902344-1.1435547.9902344-.5292969,0-.5058594-.3740234-.484375-.8583984h-4.8408203c0,.1103516.0224609.5947266,0,.7041016-.0878906.4628906-.7705078.6386719-1.0556641.6386719-.4628906,0-.4628906-.4179688-.4628906-.6601562,0-.3076172.0664062-1.6064453.0664062-1.8701172.0439453-2.046875.0664062-4.1367188.0664062-5.4570312,0-2.2441406-.0449219-2.5527344-.1328125-3.2128906l1.7607422.7490234h.4404297v-2.4648438h-3.125c-.3964844,0-1.5175781.0224609-2.5742188.1982422l-.4404297-.8583984c1.3642578.1103516,2.7285156.1318359,3.3886719.1318359h2.7509766c-.0449219-2.0898438-.0664062-2.265625-.3085938-3.5644531l2.046875.5058594c.21875.0664062.3955078.1328125.3955078.3085938,0,.1982422-.1542969.3740234-.7041016.6601562v2.0898438h3.3886719l.7265625-1.0341797c.0429688-.0654297.1972656-.2861328.3300781-.2861328.1533203,0,.2851562.1328125.4179688.2207031l1.3417969,1.078125c.0878906.0654297.2197266.1982422.2197266.3300781,0,.1972656-.1757812.2197266-.3300781.2197266Zm.2861328,14.7646484h-11.5517578c0,.4833984-.0224609,1.1660156-1.0126953,1.1660156-.5712891,0-.6152344-.5283203-.6152344-.7265625,0-.5722656.1542969-3.0146484.1542969-3.4980469.0429688-2.0683594.0429688-5.0615234.0429688-5.9189453,0-1.2324219,0-2.640625-.1533203-3.71875l1.8486328.6601562c.2197266.0878906.3955078.1757812.3955078.3515625,0,.1982422-.1982422.3740234-.5947266.6386719-.0654297,1.2099609-.0654297,5.9189453-.0654297,7.8105469v2.7070312h8.4931641l1.0117188-1.078125c.1542969-.1542969.2646484-.2646484.375-.2646484.1542969,0,.2197266.0664062.3955078.1982422l1.3857422,1.078125c.0888672.0664062.2207031.2421875.2207031.3525391,0,.1972656-.1982422.2421875-.3300781.2421875Zm-3.6523438-11.7724609h-4.8408203v2.3105469h4.8408203v-2.3105469Zm0,2.8388672h-4.8408203v2.2880859h4.8408203v-2.2880859Zm0,2.8164062h-4.8408203v2.3984375h4.8408203v-2.3984375Z"/>
        <path class="cls-1" d="m134.4462891,39.9785156c-.5947266.7041016-1.4970703,1.4082031-2.1337891,1.4082031-.5068359,0-.5947266-.3525391-.6601562-.7265625-.1542969-.9238281-.1992188-1.0996094-1.6289062-3.1679688l.0664062-.0878906c1.9140625,1.3203125,2.3320312,1.4736328,2.7285156,1.4736328.3955078,0,.6816406-.2861328.8574219-.6376953,1.0341797-2.046875,1.5410156-4.2910156,1.5410156-6.5791016,0-.8583984,0-2.3984375-1.4746094-2.3984375-.5283203,0-.96875.1103516-1.453125.2197266-1.2753906,3.0810547-2.1337891,5.1054688-4.5976562,9.8798828-.2861328.5498047-.7705078,1.4082031-1.2539062,1.4082031-.4404297,0-.7050781-.5283203-.7050781-1.0341797,0-.5283203.2207031-.8359375.484375-1.2099609,1.4296875-2.046875,2.6191406-3.7412109,4.6425781-8.625-.8359375.3076172-2.2880859.8798828-3.1015625,1.4082031-.3300781.2197266-.5947266.3955078-.9248047.3955078-.6601562,0-1.8261719-.9238281-1.8261719-2.0244141,0-.3740234.1318359-.6162109.2646484-.8798828.3955078.7480469.8789062,1.1445312,1.4960938,1.1445312.5273438,0,3.7841797-.9023438,4.5097656-1.078125.3300781-.8808594.9902344-2.6630859.9902344-3.4550781,0-.8798828-1.2978516-1.4521484-1.6054688-1.5625.2636719-.1533203.5273438-.3515625,1.0996094-.3515625,1.1660156,0,2.5078125,1.0117188,2.5078125,1.5625,0,.3076172-.1757812.6376953-.3300781.9013672-.4833984.8808594-.8574219,1.6728516-1.2753906,2.6191406.3964844-.0878906.7480469-.1318359,1.1875-.1318359,2.5742188,0,2.6855469,2.0673828,2.6855469,3.8056641,0,2.5966797-.8808594,6.3154297-2.0908203,7.7236328Zm8.9111328-5.1708984c-.2207031,0-1.0341797-.484375-1.2109375-.5498047-.9238281-.4179688-1.5175781-.5722656-2.9921875-.7705078v-.1757812c.3300781-.0224609,2.7509766-.2197266,2.7509766-.9677734,0-.2207031-1.0126953-2.3984375-4.1142578-4.3134766,2.2441406.0888672,6.1171875,2.640625,6.1171875,5.6113281,0,.1757812,0,1.1660156-.5507812,1.1660156Zm-1.1220703-6.7109375c-.1982422,0-.5283203-.2861328-1.0556641-.7265625-.8369141-.7255859-1.7382812-1.3417969-2.7509766-1.6494141.2861328-.0439453.4619141-.0878906.8798828-.0878906,1.1660156,0,3.5205078.5273438,3.5205078,1.8037109,0,.3076172-.1982422.6601562-.59375.6601562Zm2.15625-1.7158203c-.2861328,0-1.2548828-.8808594-1.4736328-1.0341797-.7929688-.5507812-1.6728516-.96875-2.5976562-1.1884766.3525391-.0664062.7480469-.1542969,1.3652344-.1542969.3955078,0,3.1679688.0878906,3.1679688,1.7607422,0,.2861328-.109375.6162109-.4619141.6162109Z"/>
        <path class="cls-1" d="m166.0605469,26.0507812h-15.6435547c-.2197266,0-1.5849609,0-2.5966797.1972656l-.4394531-.8798828c1.5175781.1318359,3.1894531.1542969,3.3886719.1542969h5.3681641c.0224609-.8798828.0439453-2.0683594-.4833984-3.3007812l2.4414062.7480469c.1103516.0439453.3300781.1318359.3300781.3300781,0,.2861328-.5722656.5058594-.703125.5498047,0,.2646484-.0224609,1.4306641-.0224609,1.6728516h5.4130859l.9902344-1.1884766c.1308594-.1757812.2636719-.2861328.3515625-.2861328.109375,0,.3085938.1542969.3964844.2421875l1.2978516,1.1660156c.1533203.1542969.2412109.2421875.2412109.3525391,0,.1982422-.1972656.2421875-.3300781.2421875Zm-1.0117188,8.2949219c-.0439453.8583984.0878906,4.5986328.0878906,5.3691406,0,.6816406,0,2.2001953-2.6835938,2.7714844-.1103516-1.1220703-1.3867188-1.9140625-1.9804688-2.1777344v-.1542969c1.2539062.1103516,2.3535156.1103516,2.4414062.1103516.7050781,0,.7050781-.2861328.7050781-1.2763672,0-.2636719-.0449219-4.203125-.0878906-5.0605469h-13.2021484c-.0224609.8134766-.0224609,1.0341797-.0224609,1.4521484,0,.8583984.0664062,4.5546875.0664062,5.3027344,0,.7041016,0,1.5625-1.1220703,1.5625-.4619141,0-.6376953-.2421875-.6376953-.6601562,0-.2207031.21875-3.8066406.21875-4.2910156,0-3.4765625,0-3.7841797-.21875-4.9287109l1.9570312,1.0341797h12.6308594l.6816406-.7480469c.0878906-.1103516.1982422-.2197266.3300781-.2197266.109375,0,.2636719.109375.3515625.1757812l.9902344.7480469c.1757812.1318359.2207031.2197266.2207031.3076172,0,.1767578-.0664062.2421875-.7265625.6826172Zm-3.1679688-5.8085938c0,.4394531.109375,2.3759766.109375,2.7724609,0,.5273438-.5722656.8798828-1.078125.8798828-.5273438,0-.5722656-.3525391-.5058594-.9462891h-7.4150391c-.0224609.484375-.0439453,1.1660156-1.1884766,1.1660156-.4179688,0-.4394531-.2636719-.4394531-.4404297,0-.1318359.0439453-.7695312.0439453-.9013672.0224609-.4179688.0439453-.9902344.0439453-1.7382812,0-.7705078-.0439453-1.9589844-.109375-2.640625l1.7597656.8583984h7.1728516l.5058594-.5722656c.0664062-.0664062.1982422-.1757812.3076172-.1757812.1113281,0,.1992188.0654297.3300781.1533203l.9902344.7480469c.0878906.0664062.1542969.1542969.1542969.2646484,0,.1542969-.0878906.2636719-.6816406.5722656Zm-1.3203125,7.7226562c0,.4179688.0878906,2.2880859.0878906,2.6621094,0,.5283203-.484375.9248047-1.0341797.9248047-.5058594,0-.5058594-.2646484-.5058594-.8583984h-4.7529297c.0439453.5058594.0878906,1.2324219-.9462891,1.2324219-.5498047,0-.5712891-.3085938-.5712891-.5283203,0-.1103516.109375-2.3544922.109375-2.8164062,0-.7480469-.0214844-1.4960938-.1972656-2.2441406l1.7597656.9238281h4.421875l.5292969-.6162109c.0878906-.109375.1757812-.2197266.2851562-.2197266.1103516,0,.2207031.0878906.3085938.1542969l.8574219.6601562c.1103516.0878906.1757812.1972656.1757812.2851562,0,.1767578-.1757812.2646484-.5273438.4404297Zm-.1328125-8.1855469h-7.4365234v2.640625h7.4365234v-2.640625Zm-1.3193359,8.0097656h-4.7529297v2.3759766h4.7529297v-2.3759766Z"/>
        <path class="cls-1" d="m182.4501953,42.3769531c-.3525391,0-.4179688-.0878906-1.4521484-1.7607422-1.2109375-1.9580078-1.7167969-2.4638672-5.8964844-6.6005859-.2207031-.2197266-.7929688-.8583984-.7929688-1.5625,0-.3515625.0664062-.7255859.8144531-1.5175781,2.2226562-2.3544922,5.5664062-5.8535156,5.5664062-6.7109375,0-.5283203-.484375-1.0126953-1.0556641-1.5849609,1.9365234-.1982422,2.9697266,1.4082031,2.9697266,2.2441406,0,.4404297-.21875.6162109-.8789062,1.1445312-.7050781.5498047-3.9824219,3.5644531-5.8095703,5.5664062-.3740234.3964844-.3740234.6826172-.3740234.8144531,0,.5498047.1542969.7041016,1.9365234,2.3320312,4.9287109,4.4453125,5.8085938,5.2148438,5.8085938,6.359375,0,.5058594-.2861328,1.2763672-.8359375,1.2763672Z"/>
        <path class="cls-1" d="m196.2431641,41.6289062c-.7041016,0-.8798828-.5722656-1.1005859-1.2988281-.1308594-.4619141-.7695312-2.5302734-2.8818359-4.2246094l.0654297-.1972656c1.5410156.5058594,2.4433594.8574219,3.4990234,1.7382812.3740234.3300781,1.4960938,1.3857422,1.4960938,2.7060547,0,.6162109-.3955078,1.2763672-1.078125,1.2763672Z"/>
        <path class="cls-1" d="m54.2353516,70.3300781c-1.3203125.2861328-1.8037109.7480469-2.4863281,1.5410156-2.7060547-1.6728516-4.5107422-4.4228516-5.6328125-7.3935547-.7480469-1.9580078-1.4960938-4.6201172-1.6064453-10.0117188-.0878906.0224609-.1318359.0224609-.2421875.0439453-.2197266,7.4814453-1.671875,14.4560547-9.5273438,17.2949219l-.0878906-.1757812c2.6845703-1.6064453,4.9726562-4.5986328,6.0068359-6.7333984,1.5849609-3.2783203,1.9365234-7.9433594,1.9365234-10.4072266,0-1.0566406-.0878906-1.3203125-.1982422-1.671875l2.6630859.6816406c.3730469.0878906.4394531.1318359.4394531.3076172,0,.3525391-.3515625.484375-.5722656.5507812.1542969,3.828125,1.3203125,8.4492188,3.3671875,11.375,2.1337891,3.0146484,4.8623047,4.0273438,5.9628906,4.4228516l-.0224609.1757812Z"/>
        <path class="cls-1" d="m75.1347656,56.0947266h-13.3554688c-.8144531,1.2978516-2.7070312,4.1142578-5.390625,5.7207031l-.1542969-.1318359c2.5527344-2.4208984,4.8847656-7.4589844,5.0390625-8.2080078.1533203-.6816406.1308594-.9677734.1308594-1.3642578l2.2226562.9023438c.1103516.0439453.3085938.1542969.3085938.3525391,0,.2421875-.3085938.3300781-.8583984.5058594-.2646484.5058594-.5058594.9462891-.9677734,1.6943359h9.9453125l.9902344-1.1884766c.1318359-.1533203.1972656-.2636719.3300781-.2636719.1318359,0,.2421875.0878906.4179688.2197266l1.4521484,1.2099609c.1103516.0888672.2197266.1767578.2197266.3300781,0,.1982422-.1757812.2207031-.3300781.2207031Zm-6.9970703,7.9873047c-.0878906.0214844-.5498047.0878906-.6376953.109375-.4628906.7265625-.9238281,1.4521484-1.6943359,2.3769531.4404297.3300781,2.3544922,1.7597656,2.3544922,3.1015625,0,.5283203-.3964844.8369141-.7705078.8369141-.5498047,0-.8134766-.4404297-1.1884766-1.078125-.0878906-.1542969-.5722656-.8144531-1.4296875-1.7382812-1.8701172,1.8261719-4.3339844,3.828125-8.2949219,4.7519531l-.0224609-.1318359c2.7509766-1.4082031,5.2373047-3.2783203,7.2832031-5.6103516-1.6943359-1.4960938-2.7939453-2.046875-3.3662109-2.3544922l.0214844-.1318359c.7929688.1533203,2.1787109.4619141,4.1152344,1.5175781,1.6279297-2.1777344,1.671875-2.8818359,1.6933594-3.5419922l2.0253906,1.2099609c.1308594.0878906.21875.1542969.21875.3525391,0,.2197266-.1533203.3076172-.3076172.3300781Zm7.7451172,8.3388672c-.6376953,0-2.265625-.6826172-3.4980469-2.2441406-1.8486328-2.3984375-1.8925781-6.4912109-1.9140625-8.3398438h-8.8671875c-.5068359,0-1.6074219.0224609-2.5742188.1982422l-.4414062-.8798828c1.8046875.1542969,3.125.1542969,3.3886719.1542969h8.0976562l.9023438-.9462891c.1542969-.1542969.2197266-.2421875.3300781-.2421875.0878906,0,.1972656.1103516.2851562.1757812l1.1005859.8798828c.1103516.0888672.1767578.1328125.1767578.2646484,0,.3076172-.5947266.5273438-.9023438.6601562-.0664062,3.3222656.3076172,4.9726562,1.3203125,6.6005859.0429688.0664062.5722656.9023438,1.078125.9023438.1757812,0,.2851562-.0664062.4394531-.2861328.7480469-1.078125,1.1884766-2.0458984,1.4296875-2.5966797l.1542969.0439453c-.109375.8583984-.3300781,2.8164062-.3300781,3.3447266,0,.2861328.0449219.5498047.1992188.8583984.0878906.1982422.2851562.5722656.2851562.7255859,0,.5507812-.3964844.7265625-.6601562.7265625Zm-3.9384766-13.3564453h-7.3935547c-.3955078,0-1.5175781,0-2.5742188.1982422l-.4394531-.8798828c1.3642578.1103516,2.7285156.1542969,3.3886719.1542969h4.3339844l.8808594-1.0566406c.1308594-.1542969.1972656-.2636719.3515625-.2636719.109375,0,.3085938.1533203.3964844.2197266l1.1660156,1.0566406c.1318359.1318359.2197266.1972656.2197266.3300781,0,.1972656-.1757812.2412109-.3300781.2412109Z"/>
        <path class="cls-1" d="m89.4121094,70.2861328l-.0214844-.1757812c4.7080078-1.671875,6.9082031-4.7744141,6.9082031-8.1191406,0-3.71875-2.9921875-5.9189453-6.8203125-5.9189453-.5507812,0-.6601562.0224609-.9023438.1318359,1.1875.6386719,1.5175781,1.4521484,1.5175781,1.7607422,0,.2421875-.0654297.3955078-.7480469,1.8261719-1.4082031,3.0146484-3.4765625,7.4365234-4.9726562,8.6689453-.1542969.1103516-.4179688.2421875-.703125.2421875-.5068359,0-.7050781-.2861328-1.3652344-1.2099609-.1542969-.2197266-1.0332031-1.0341797-1.1875-1.2324219-.2421875-.3515625-.6171875-1.1445312-.6171875-2.2441406,0-4.7304688,4.0058594-8.625,9.3740234-8.625,4.2685547,0,8.1416016,2.4863281,8.1416016,6.9082031,0,4.2695312-3.5644531,7.5478516-8.6035156,7.9873047Zm-1.7382812-13.9501953c-2.4199219.3964844-5.7871094,3.5214844-5.7871094,7.5693359,0,1.4960938.8583984,3.1464844,1.7167969,3.1464844.59375,0,1.4511719-1.5615234,1.8261719-2.3105469,2.2001953-4.421875,2.9257812-5.8525391,2.9257812-6.9970703,0-.5498047-.2636719-1.0117188-.6816406-1.4082031Z"/>
        <path class="cls-1" d="m112.1601562,72.0244141v-.1757812c.6816406-.1318359,2.4863281-.5058594,4.5322266-2.3105469,1.1435547-1.0117188,1.7382812-2.15625,1.7382812-3.7402344,0-2.8603516-2.1123047-3.7402344-3.3222656-4.0263672-.3300781.8134766-2.6181641,4.1806641-4.2021484,5.5009766.0654297.109375.1308594.2636719.1972656.4179688.3740234.7919922.4404297.9013672.4404297,1.1220703,0,.4179688-.2421875.9023438-.6826172.9023438-.5273438,0-.9023438-.5947266-1.2324219-1.3867188-1.8476562,1.3867188-3.5644531,2.1347656-4.3125,2.1347656-.6816406,0-.9023438-.3740234-1.2324219-.9462891-.0429688-.0878906-.6367188-.8583984-.703125-.9462891-.1542969-.2197266-.1982422-.484375-.1982422-.7265625,0-1.6943359,1.9580078-4.4003906,5.5888672-5.984375.0439453-.6386719.109375-1.6503906.3740234-3.3007812-1.1005859.1982422-1.8037109.3085938-2.640625.3085938-.9013672,0-2.0908203-.1767578-2.5966797-1.4746094.2871094.1103516,1.0126953.3964844,2.3984375.3964844.9023438,0,2.046875-.2207031,3.0585938-.4189453.0449219-.1757812.1757812-.8798828.2207031-1.0556641.0429688-.1757812.2197266-1.0117188.2197266-1.5400391,0-.9248047-.5722656-1.2763672-1.2978516-1.6943359.1757812-.1318359.3076172-.2197266.9453125-.2197266,1.3203125,0,2.3984375.9453125,2.3984375,1.4082031,0,.2412109-.0664062.3515625-.5273438,1.2978516-.1328125.2421875-.375.8798828-.5507812,1.4746094,1.4960938-.3964844,1.8710938-.5722656,2.8613281-1.0341797.21875-.0888672.3730469-.1767578.6152344-.1767578.5058594,0,1.3642578.484375,1.3642578.8583984,0,.3076172-.0878906.3300781-1.0126953.6376953-1.0332031.3525391-3.1015625.7705078-4.1796875.9902344-.3525391,1.4521484-.4179688,2.5087891-.4628906,3.0810547,1.5185547-.484375,2.7509766-.5507812,3.5869141-.5722656-.0439453-.3085938-.1103516-.484375-.5283203-1.2324219,1.1230469-.1318359,1.9804688.6601562,2.1787109,1.3427734,2.3330078.3740234,5.0830078,1.8037109,5.0830078,4.9726562,0,3.5419922-3.6523438,6.0507812-8.1191406,6.1162109Zm-3.4101562-9.3505859c-3.2578125,1.7822266-4.3134766,4.5761719-4.3134766,5.4560547,0,.6826172.3300781,1.1005859.9902344,1.1005859.5722656,0,2.2001953-.5283203,3.8945312-1.8925781-.2412109-.9023438-.6376953-2.4863281-.5712891-4.6640625Zm1.1875-.5283203c0,2.15625.3740234,3.4101562.5722656,4.0478516,1.6933594-1.8037109,2.7949219-4.0478516,2.9707031-4.6425781-1.453125-.0439453-2.640625.2646484-3.5429688.5947266Z"/>
        <path class="cls-1" d="m135.0400391,70.9462891c-2.1123047,0-4.2900391-.8574219-4.2900391-2.5742188,0-1.5185547,1.5175781-1.9140625,2.4199219-1.9140625,1.6503906,0,2.8828125,1.1435547,3.4550781,2.9707031,1.7597656-.3085938,2.9921875-2.2011719,2.9921875-3.8730469,0-1.7382812-1.3417969-3.2783203-3.5869141-3.2783203-4.2900391,0-7.1289062,4.1582031-7.4589844,4.6650391-.5498047.8798828-.7480469,1.2099609-1.2099609,1.2099609-.2636719,0-.7480469-.1542969-.7480469-.9248047,0-.7255859.1757812-.9013672,1.4960938-2.1777344,1.7597656-1.7382812,7.1728516-8.7578125,7.1728516-9.59375,0-.1318359-.0654297-.2197266-.2421875-.2197266-.2861328,0-1.9580078.5498047-3.1464844,1.1884766-.0439453.0214844-.9013672.4833984-.9677734.4833984-.484375,0-1.7822266-.7041016-1.7822266-2.0683594,0-.3955078.1103516-.5712891.2412109-.7255859.5068359.8359375.9023438,1.0341797,1.5195312,1.0341797,1.0556641,0,3.3876953-.6601562,4.0478516-.8798828.1533203-.0439453.8798828-.2861328.9902344-.2861328.8359375,0,1.6064453,1.0556641,1.6064453,1.5175781,0,.3525391,0,.3740234-.7929688.96875-.5712891.4394531-4.7958984,5.2802734-5.6757812,6.7109375,1.3203125-.7480469,2.9921875-1.5625,5.2802734-1.5625,3.5419922,0,4.9287109,2.1123047,4.9287109,4.1142578,0,2.5302734-2.2001953,5.2148438-6.2490234,5.2148438Zm-2.3974609-3.6083984c-.4414062,0-1.0566406.2861328-1.0566406.9238281,0,1.1445312,2.265625,1.6503906,2.9042969,1.6503906.3300781,0,.5058594-.0439453.7695312-.1318359-.4609375-1.6279297-1.8916016-2.4423828-2.6171875-2.4423828Z"/>
      </g>
    </g>
  </g>
</svg>