<?xml version="1.0" encoding="UTF-8"?>
<svg id="_レイヤー_2" data-name="レイヤー 2" xmlns="http://www.w3.org/2000/svg" viewBox="0 0 576 88">
  <defs>
    <style>
      .cls-1 {
        fill: none;
        stroke: #fff;
        stroke-miterlimit: 10;
      }

      .cls-2 {
        fill: #092237;
      }

      .cls-2, .cls-3, .cls-4 {
        stroke-width: 0px;
      }

      .cls-3 {
        fill: #fff;
      }

      .cls-4 {
        fill: #4977bc;
      }
    </style>
  </defs>
  <g id="location">
    <g>
      <g>
        <rect class="cls-4" width="576" height="88"/>
        <rect class="cls-1" x="5" y="5" width="566" height="78"/>
      </g>
      <g>
        <g>
          <path class="cls-2" d="m143.206824,39.437653h-10.7382812v5.0439453h4.7070312l1.1699219-1.2744141c.2070312-.2080078.2597656-.3115234.4160156-.3115234s.234375.078125.4941406.2861328l1.4550781,1.2216797c.2089844.1816406.2597656.3115234.2597656.4160156,0,.234375-.2070312.2861328-.3886719.2861328h-14.5605469c-.6503906,0-1.8984375,0-3.0683594.2333984l-.5195312-1.0400391c1.6640625.1308594,3.2753906.1826172,4.0039062.1826172h4.1855469v-5.0439453h-6.9414062c-.6503906,0-1.8984375.0253906-3.0683594.2333984l-.5214844-1.0136719c1.7949219.1298828,3.640625.15625,4.0058594.15625h6.5253906c0-3.8486328-.2597656-4.3681641-.625-5.0966797l3.0429688.9882812c.1035156.0253906.3125.15625.3125.3115234,0,.2607422-.1816406.4160156-.859375.8066406,0,.0517578-.0253906,2.7294922-.0253906,2.9902344h7.125l1.2207031-1.4824219c.1835938-.234375.2617188-.3125.390625-.3125.15625,0,.2871094.1044922.4941406.2861328l1.6640625,1.4560547c.1816406.1826172.234375.3125.234375.4160156,0,.234375-.234375.2607422-.390625.2607422Zm-22.1777344,16.6142578c-.625,0-.9375-.6240234-.9375-1.1699219,0-.4941406.1054688-.6503906,1.1972656-2.0283203.7285156-.9355469,1.5605469-2.6523438,1.6367188-3.7441406h.1308594c.2597656.7539062.3632812,1.4560547.3632812,2.2880859,0,2.6259766-1.0390625,4.6542969-2.390625,4.6542969Zm16.5625-.078125c-1.0664062.8320312-3.1992188.8837891-4.6289062.8837891-5.9023438,0-6.265625-.078125-6.265625-3.4833984,0-.46875.078125-2.5224609.078125-2.9384766,0-1.2480469-.1054688-1.9501953-.3125-3.5878906l2.5214844.8056641c.1816406.0517578.3652344.2861328.3652344.4423828,0,.2597656-.078125.3115234-.7285156.7275391-.078125,1.5078125-.1035156,3.4326172-.1035156,3.8486328,0,1.8457031,0,2.0537109.6230469,2.2617188.4414062.15625,2.8867188.1816406,3.484375.1816406,2.2617188,0,2.8085938-.3632812,3.1210938-.9873047.5703125-1.1445312,1.0136719-3.1982422,1.1171875-3.6660156h.1308594c.0507812.3896484.4667969,3.328125.5703125,3.5097656.0527344.1035156.5214844.3378906.625.4423828.1035156.1035156.1816406.1816406.1816406.3115234,0,.3378906-.3632812.9365234-.7792969,1.2480469Zm-4.3945312-5.2001953c-.7539062,0-.9101562-.4160156-1.4296875-1.6640625-.7285156-1.7421875-1.4824219-2.4179688-1.8203125-2.7041016l.0507812-.15625c1.9257812.3378906,4.3164062,1.6123047,4.3164062,3.2763672,0,.9882812-.7265625,1.2480469-1.1171875,1.2480469Zm9.3085938,4.2382812c-.859375,0-1.0410156-.5976562-1.3789062-1.8203125-.4160156-1.5078125-1.5859375-3.3798828-2.2871094-4.0820312l.0253906-.078125c1.9765625.4423828,4.8105469,2.6523438,4.8105469,4.6279297,0,.8320312-.546875,1.3525391-1.1699219,1.3525391Z"/>
          <path class="cls-2" d="m159.066199,41.178864c.9882812,2.3662109,3.25,5.4863281,5.1484375,7.0722656,1.2753906,1.0927734,4.2382812,2.9384766,6.4492188,3.328125v.1826172c-1.7949219.3378906-2.3144531.9619141-3.09375,1.9238281-6.7617188-3.8740234-8.8144531-12.1162109-8.8417969-12.1679688,0,1.4560547-.0253906,3.3798828,0,6.2138672,0,1.3515625.3125,8.3203125.3125,8.4501953,0,1.3525391-1.0917969,1.3779297-1.3789062,1.3779297-.9863281,0-.9863281-.5195312-.9863281-.8837891,0-.4941406.1542969-2.8085938.1816406-3.3544922.0507812-1.6113281.078125-2.4697266.15625-10.0878906-.5722656,1.1699219-1.4824219,2.9121094-3.5117188,5.2519531-2.390625,2.7558594-4.1601562,3.9257812-7.0449219,5.4599609l-.0527344-.1298828c2.8339844-2.4960938,7.28125-7.1240234,9.7246094-12.6367188h-5.7460938c-.7011719,0-1.9238281.0263672-3.0683594.234375l-.5195312-1.0400391c1.3261719.1044922,2.6777344.1816406,4.0039062.1816406h6.2148438c-.078125-4.4716797-.2597656-5.4335938-.6503906-6.8378906l2.9628906.7539062c.1308594.0263672.3398438.078125.3398438.3125,0,.3115234-.2871094.4941406-.8847656.8320312,0,.7021484-.0253906,4.1601562-.0253906,4.9394531h6.6035156l1.1953125-1.4296875c.1054688-.1035156.2597656-.3115234.4160156-.3115234s.3652344.1816406.4941406.2851562l1.5605469,1.4042969c.1308594.1044922.2597656.2080078.2597656.390625,0,.2597656-.2597656.2851562-.4160156.2851562h-9.8027344Z"/>
          <path class="cls-2" d="m173.1326052,55.4796452c-.546875,0-.8574219-.3896484-.8574219-.9619141,0-.4941406.8828125-2.5478516.9863281-2.9902344.1054688-.4414062.078125-.8056641.0527344-1.1181641l.234375-.0253906c.4414062.7275391.9609375,1.7158203.9609375,3.09375,0,.7021484-.2070312,2.0019531-1.3769531,2.0019531Zm9.59375-7.5664062c-.3632812,4.0566406-1.1699219,6.2402344-1.5859375,7.1767578-.5976562,1.2998047-1.5332031,1.8203125-2.8085938,2.1582031-.3378906-1.6123047-1.5859375-2.3144531-2.1308594-2.5742188l.0507812-.1826172c1.4570312.2861328,2.4453125.2861328,2.5234375.2861328.5195312,0,.7265625-.0517578,1.0136719-.6757812.7539062-1.6904297,1.1445312-5.0703125,1.1445312-6.7861328h-5.7988281c.0253906.4160156-.0253906,1.2744141-1.1171875,1.2744141-.5214844,0-.6503906-.2607422-.6503906-.7021484,0-.15625.0507812-.7802734.0507812-.9101562.1054688-1.6386719.1308594-6.1621094.1308594-7.9560547,0-.9101562,0-2.7822266-.2597656-4.3164062l1.9492188.9619141h4.8359375l.625-.7539062c.1816406-.2080078.3125-.3378906.4414062-.3378906.15625,0,.2871094.1298828.5195312.2861328l1.015625.7539062c.1816406.1298828.2851562.3115234.2851562.4160156,0,.1816406-.234375.2597656-.4160156.2597656h-3.5878906v3.015625h1.1171875l.4941406-.6240234c.2089844-.2597656.2871094-.3632812.4160156-.3632812.1308594,0,.2871094.1298828.5214844.2861328l.8320312.6240234c.1289062.1035156.2851562.2333984.2851562.4160156,0,.2333984-.234375.2851562-.4160156.2851562h-3.25v2.9902344h1.1445312l.6230469-.7275391c.1816406-.2080078.2871094-.3125.4160156-.3125.15625,0,.2597656.078125.46875.2607422l.7792969.7275391c.15625.1298828.234375.3125.234375.4160156,0,.15625-.15625.2597656-.390625.2597656h-3.2753906v3.1464844h1.7421875l.6757812-.7539062c.15625-.1826172.2851562-.3125.4160156-.3125s.2851562.1044922.5195312.3378906l1.0136719.9365234c.1054688.1035156.1835938.2080078.1835938.3378906,0,.3125-.5996094.5976562-.78125.6757812Zm-6.578125,6.4482422c-.8574219,0-.8574219-1.0917969-.8574219-1.6376953,0-1.6123047,0-2.1582031-.2871094-2.8603516l.15625-.078125c.1816406.2080078,1.1191406,1.1445312,1.2480469,1.3779297.625.9628906.7285156,1.6386719.7285156,2.0029297,0,.7539062-.5722656,1.1953125-.9882812,1.1953125Zm1.2480469-18.0703125h-2.2871094v3.015625h2.2871094v-3.015625Zm0,3.6396484h-2.2871094v2.9902344h2.2871094v-2.9902344Zm0,3.6142578h-2.2871094v3.1464844h2.2871094v-3.1464844Zm.9101562,9.1269531c-.6757812,0-.7539062-.4423828-.9609375-1.9248047-.078125-.5712891-.2089844-1.2480469-.4941406-1.8974609l.1035156-.078125c1.3769531,1.1962891,2.1582031,1.8984375,2.1582031,2.9121094,0,.4423828-.2597656.9882812-.8066406.9882812Zm1.4570312-1.9248047c-.5214844,0-.625-.4160156-.9101562-1.4560547-.2089844-.6757812-.4160156-.9619141-.5996094-1.1953125l.15625-.15625c1.2226562.5722656,2.0019531,1.1181641,2.0019531,1.9755859,0,.4160156-.2324219.8320312-.6484375.8320312Zm17.2109375,4.7841797c-1.2480469.078125-2.15625,1.1708984-2.46875,1.5341797-2.9121094-2.3662109-5.0703125-6.8378906-5.0703125-12.9746094h-2.7832031c-.2597656,6.3964844-1.5332031,10.3232422-5.3300781,13.0527344l-.1289062-.1035156c3.640625-3.9521484,3.7695312-11.2070312,3.7695312-16.6152344,0-3.2236328-.1816406-4.0820312-.4414062-5.5117188l2.46875,1.0917969h5.3574219l.7539062-.7275391c.15625-.15625.2851562-.234375.4160156-.234375.1289062,0,.234375.0517578.4414062.234375l1.0410156.8837891c.15625.1298828.234375.2597656.234375.4160156,0,.1816406-.4941406.5458984-.8066406.7539062-.0253906.4423828-.0527344.9355469-.0527344,1.6376953,0,.8320312.15625,4.4726562.15625,5.2783203,0,.8066406-.8066406,1.0400391-1.2226562,1.0400391-.8320312,0-.7792969-.5722656-.7539062-1.1962891h-2.6523438c.5996094,5.6689453,4.34375,10.1669922,7.0996094,11.2851562l-.0273438.1552734Zm-4.3925781-18.9023438h-5.7734375c-.0253906.9882812-.1289062,5.7724609-.1289062,6.8378906h5.9023438v-6.8378906Z"/>
          <path class="cls-2" d="m218.1658084,40.2696843c-.6757812.1035156-.9101562.2851562-1.8730469.9355469-1.6386719,1.1181641-3.7441406,2.5478516-5.0175781,3.171875-.15625.4941406-.78125,2.7822266-.9101562,3.2246094-1.8203125,6.265625-4.9667969,8.0341797-6.265625,8.7617188l-.078125-.1552734c4.0039062-4.2382812,5.3808594-10.9726562,5.3808594-12.4804688,0-.7539062-.4414062-1.0664062-1.7929688-1.5605469.6503906-.2861328.9101562-.4160156,1.3261719-.4160156.9609375,0,2.5742188.5986328,2.5742188,1.2998047,0,.15625-.0273438.390625-.0527344.5205078,2.5996094-2.0537109,4.3417969-4.2119141,4.3417969-4.5498047,0-.078125-.0253906-.15625-.3632812-.15625-1.3515625,0-9.2050781.8837891-11.0253906,1.4814453-.2324219.078125-1.1953125.546875-1.4042969.546875-.2597656,0-2.3125-1.0664062-2.3125-2.4960938,0-.4423828.0507812-.8320312.1816406-1.2480469.9609375,1.6113281,2.0800781,1.6113281,2.6777344,1.6113281,1.1445312,0,10.9980469-.9873047,12.1679688-1.2216797.2089844-.0263672,1.0917969-.4160156,1.2753906-.4160156.4160156,0,2.4179688,2.1064453,2.4179688,2.5478516,0,.4423828-.1054688.4423828-1.2480469.5986328Z"/>
          <path class="cls-2" d="m242.6579959,41.725739c-.5996094.2597656-.8320312.4931641-1.4042969,1.6113281-2.4960938,4.8623047-5.2265625,8.1123047-9.2050781,10.5830078-1.3789062.8574219-3.1464844,1.7675781-5.0957031,2.2099609l-.0527344-.1826172c5.6679688-3.1455078,10.9199219-8.8916016,13.3125-14.9501953-1.0664062.1044922-2.8339844.3642578-3.9003906.5205078-.1816406.0253906-.7011719.1035156-.8320312.1035156-.2597656,0-.7265625-.1035156-1.3261719-.4423828-2.4179688,3.1982422-4.3164062,4.6806641-6.8886719,6.0322266l-.1308594-.2080078c4.2636719-3.8994141,6.7871094-8.5800781,6.7871094-9.4121094,0-.2597656-.0527344-.4677734-1.4316406-1.2998047.625-.2080078,1.1972656-.2080078,1.2753906-.2080078,1.0390625,0,2.9375,1.1962891,2.9375,1.8720703,0,.234375-.1035156.3642578-.5976562.8320312-.2597656.234375-.9355469,1.1181641-1.2753906,1.5341797,1.171875.1298828,4.421875-.234375,5.0976562-.4677734.234375-.078125,1.1171875-.7802734,1.3769531-.7802734.2871094,0,2.1582031,1.5595703,2.1582031,2.0537109,0,.1826172-.078125.2597656-.8046875.5986328Z"/>
          <path class="cls-2" d="m270.8142459,43.2853093c-.3886719.0517578-.5976562.2080078-.8828125.4677734-1.6132812,1.5341797-2.5488281,2.3144531-4.6289062,3.6923828l-.15625-.1298828c.9375-1.0917969,2.5488281-3.3017578,3.3027344-5.0439453-.9101562.2861328-5.1992188,1.6376953-5.8496094,1.8457031-.2871094.078125-1.5605469.4941406-1.8203125.5722656-.078125,2.0800781-.1035156,3.6142578-.1035156,4.4199219,0,2.9902344,0,3.8222656,3.171875,3.8222656,1.7675781,0,3.4570312-.3642578,4.3671875-.5458984.3378906-.078125.5195312-.1044922.7285156-.1044922.46875,0,1.5859375.234375,1.8457031.46875.1308594.1298828.234375.3115234.234375.5712891,0,.46875-.2851562.6767578-.8320312.8320312-.625.2080078-2.7558594.3378906-4.6289062.3378906-2.6523438,0-5.5371094,0-6.1621094-2.5478516-.3105469-1.1962891-.234375-5.2255859-.1816406-6.7861328-2.3652344.7539062-2.5742188.8583984-4.4980469,1.7939453-.3378906.1826172-.4941406.234375-.6757812.234375-.5722656,0-2.2109375-1.2226562-2.2109375-2.5742188,0-.4941406.1054688-.9101562.2089844-1.2744141.9609375,1.3261719,1.2226562,1.7167969,2.1835938,1.7167969.9882812,0,2.6777344-.4941406,5.0175781-1.1708984.0273438-1.0400391.1308594-5.5380859-.2324219-6.1875-.1308594-.234375-.5214844-.7802734-2.0019531-1.1181641.8046875-.4941406,1.4296875-.6503906,1.8183594-.6503906,1.0410156,0,2.8339844.5986328,2.8339844,1.3261719,0,.15625-.2324219,1.0400391-.2597656,1.1181641-.3378906,1.1962891-.4667969,3.7177734-.5449219,5.0703125.7792969-.234375,7.0195312-2.0283203,7.3320312-2.2363281.1289062-.1035156.7011719-.5458984.8320312-.6503906.1035156-.0771484.2070312-.1552734.3632812-.1552734.4160156,0,2.6777344,1.6376953,2.6777344,2.2617188,0,.4423828-.0761719.4677734-1.2480469.6240234Z"/>
          <path class="cls-2" d="m295.6716677,54.5177312c-.546875,0-.8320312-.4423828-1.0664062-.8320312-2.0800781-3.4316406-3.5097656-5.1484375-5.8242188-6.8642578-4.6289062,5.8242188-9.0488281,7.4619141-11.4921875,7.9560547l-.0273438-.2080078c6.0332031-2.6513672,12.3769531-10.6083984,13.8066406-15.4443359-.9863281.1298828-5.3027344.9365234-6.7070312,1.4824219-.234375.1035156-1.1972656.6240234-1.4042969.6240234-.390625,0-1.8203125-1.2744141-1.8203125-2.6259766,0-.5205078.1035156-.8583984.234375-1.1181641.9882812,1.5595703,1.4296875,1.5859375,1.9492188,1.5859375.7285156,0,6.3710938-.5458984,7.4375-1.1699219.1816406-.1044922.9882812-.7285156,1.1953125-.7285156.2851562,0,2.2109375,1.6386719,2.2109375,2.0800781,0,.2861328-.1835938.3378906-1.015625.6503906-.1816406.078125-.2070312.1298828-.5449219.7539062-1.1445312,2.2099609-1.7949219,3.484375-3.4589844,5.7197266,3.1210938,1.3789062,7.4375,4.4726562,7.4375,6.9169922,0,.7021484-.2871094,1.2216797-.9101562,1.2216797Z"/>
        </g>
        <g>
          <path class="cls-2" d="m359.1931521,53.0099187c-1.3261719,0-2.1835938-.078125-2.7558594-.1298828v-.234375c2.6523438-.0517578,13.8066406-1.2744141,13.8066406-7.9560547,0-2.7304688-2.5234375-4.7841797-5.3828125-4.7841797-4.7851562,0-9.9316406,4.5498047-10.4257812,5.0439453-.6777344.6757812-.7539062.7802734-1.2226562.7802734-.9101562,0-2.3925781-1.3261719-2.3925781-2.8867188,0-.4931641.1035156-.8574219.2089844-1.1171875.4941406.6757812,1.0136719,1.3779297,1.6894531,1.3779297.546875,0,1.0664062-.2861328,1.8457031-.6767578,3.8222656-1.9755859,6.5-3.3535156,10.2441406-3.3535156,4.1347656,0,7.4375,2.3916016,7.4375,6.1357422,0,4.3945312-4.6035156,7.8007812-13.0527344,7.8007812Z"/>
          <path class="cls-2" d="m388.2341677,55.038239l-.0253906-.2080078c5.5644531-1.9765625,8.1640625-5.6425781,8.1640625-9.5947266,0-4.3945312-3.5351562-6.9941406-8.0605469-6.9941406-.6503906,0-.7792969.0253906-1.0664062.15625,1.4042969.7539062,1.7949219,1.7158203,1.7949219,2.0800781,0,.2851562-.078125.4677734-.8847656,2.1572266-1.6640625,3.5625-4.1074219,8.7890625-5.875,10.2451172-.1816406.1298828-.4941406.2861328-.8320312.2861328-.5976562,0-.8320312-.3388672-1.6132812-1.4306641-.1816406-.2597656-1.2207031-1.2216797-1.4023438-1.4560547-.2871094-.4160156-.7285156-1.3515625-.7285156-2.6523438,0-5.5898438,4.7324219-10.1923828,11.0761719-10.1923828,5.0449219,0,9.6210938,2.9384766,9.6210938,8.1650391,0,5.0439453-4.2128906,8.9179688-10.1679688,9.4384766Zm-2.0527344-16.4853516c-2.8613281.46875-6.8398438,4.1601562-6.8398438,8.9443359,0,1.7685547,1.015625,3.71875,2.0292969,3.71875.7011719,0,1.7148438-1.8466797,2.1582031-2.7304688,2.5996094-5.2265625,3.4570312-6.9160156,3.4570312-8.2685547,0-.6494141-.3105469-1.1953125-.8046875-1.6640625Z"/>
          <path class="cls-2" d="m401.597449,55.6358952c2.0546875-2.2880859,3.9003906-7.5146484,3.6679688-9.828125l2.0800781,1.0136719c.1035156.0517578.2324219.1298828.2324219.3125,0,.1816406-.078125.2080078-.6230469.5195312-.8847656,4.0566406-3.1992188,6.8125-5.2265625,8.0859375l-.1308594-.1035156Zm11.3632812-8.1640625c.1816406.0517578.2597656.1816406.2597656.3115234,0,.2597656-.3125.4160156-.5195312.5205078-.6503906.9873047-1.3789062,2.0800781-1.9511719,2.9121094.3398438,0,1.5605469-.15625,2.0292969-.2080078-.2871094-.6767578-.4414062-.8847656-.6503906-1.1181641l.1035156-.1044922c.703125.2607422,2.5742188.9101562,2.5742188,2.3408203,0,.5712891-.4941406.8320312-.8828125.8320312-.546875,0-.6777344-.3642578-.7539062-.6767578-.0527344-.1552734-.234375-.8574219-.2871094-.9873047-1.2226562.7539062-1.3515625.8574219-2.1835938,1.4296875-.1816406.3378906-.2089844.4423828-.4160156.4423828-.15625,0-.2089844-.1308594-.234375-.2080078l-.7539062-1.8466797c0,.6757812,0,3.0166016.1816406,3.40625.2089844.4160156.78125.4160156,1.8203125.4160156h9.828125c.703125,0,.9882812,0,1.5605469-.9882812.46875-.8320312.7011719-1.8193359.9355469-2.7294922h.1308594c0,.4414062.234375,2.2880859.8046875,2.7041016.3652344.2597656.5722656.4160156.5722656.8837891,0,.5976562-1.0917969,1.7939453-3.9785156,1.7939453h-10.0351562c-2.8613281,0-3.4589844-.5976562-3.4589844-2.5478516,0-1.2998047.0273438-7.1503906.0273438-8.3466797h-2.6523438c.078125.9101562-.9375.9101562-.9882812.9101562-.078125,0-.8066406,0-.8066406-.6757812,0-.1044922.0253906-.234375.0527344-.5458984.0507812-.5205078.1035156-1.8203125.1035156-3.1982422,0-3.1464844,0-4.9404297-.2070312-6.2919922l2.0800781,1.3251953h.8828125c.2597656-.7275391.4941406-2.0537109.4941406-2.8339844,0-.2861328-.0253906-.4160156-.0527344-.6494141l2.5488281.9101562c.1308594.0517578.234375.1035156.234375.2851562,0,.234375-.078125.2607422-.8574219.5986328-.9101562.8056641-1.0410156.9101562-1.7949219,1.6894531h3.71875l.9101562-.9619141c.1289062-.1298828.2324219-.1816406.3632812-.1816406s.2089844.078125.3378906.1816406l1.2226562.9365234c.078125.0517578.1289062.1298828.1289062.2597656,0,.1816406-.2324219.3896484-.8046875.8320312-.0273438.6757812-.0273438,1.6904297,0,3.1464844.0253906.5712891.15625,3.0673828.15625,3.5878906,0,.6503906,0,1.5595703-1.2226562,1.5595703-.6503906,0-.625-.3896484-.5976562-.8837891h-1.5605469c.0253906.8583984-.078125,4.6025391-.078125,5.3564453.4941406.1035156.6230469.1035156,1.1171875.1298828.2871094-1.0664062.546875-2.9638672.546875-3.6396484,0-.3125-.0253906-.5205078-.0527344-.7285156l2.0546875.6503906Zm-7.9824219-9.6210938v3.2763672h2.1835938v-3.2763672h-2.1835938Zm0,3.9003906v3.328125h2.1835938v-3.328125h-2.1835938Zm5.9550781-.6240234v-3.2763672h-2.2363281v3.2763672h2.2363281Zm0,3.9521484v-3.328125h-2.2363281v3.328125h2.2363281Zm2.3125-2.6777344c1.4316406.1298828,2.8613281.1816406,4.3691406.1816406v-3.7695312c-.46875,0-1.7949219,0-3.015625.2333984l-.5214844-1.0400391c.5996094.0517578,1.6386719.15625,3.5371094.1826172-.0527344-2.7304688-.1816406-3.40625-.4941406-4.3427734l2.5742188.7802734c.1308594.0517578.3125.1298828.3125.3115234,0,.15625-.078125.234375-.1308594.2607422-.1035156.1035156-.5976562.5195312-.6757812.6240234,0,.2080078-.0253906,1.5078125-.0253906,2.3662109h2.3144531l.5976562-.7802734c.1289062-.15625.2597656-.3378906.4160156-.3378906.1289062,0,.2070312.078125.4941406.2861328l1.0644531.7792969c.1308594.078125.2617188.234375.2617188.390625,0,.2333984-.2089844.2861328-.390625.2861328h-4.7851562v3.7695312h3.328125l.7285156-.7802734c.1816406-.1816406.2871094-.3115234.390625-.3115234.15625,0,.234375.0517578.4667969.234375l1.1191406.8320312c.1035156.0771484.2597656.2080078.2597656.3896484,0,.234375-.234375.2597656-.390625.2597656h-5.6933594c1.7167969,3.6923828,4.1855469,5.4345703,7.125,6.5263672l-.0273438.1298828c-1.3261719.1298828-2.1054688.8066406-2.4960938,1.4042969-3.0683594-2.1845703-4.3417969-6.1367188-4.8105469-7.5927734.0527344,2.0283203.1308594,5.7470703.15625,6.1884766,0,.4160156.1054688,2.2363281.1054688,2.6005859,0,1.2734375-1.2753906,1.2734375-1.3261719,1.2734375-.4160156,0-.6777344-.1816406-.6777344-.6757812,0-.2080078.0527344-1.0136719.0527344-1.1962891.0253906-1.0136719.078125-5.4335938.1035156-6.34375-1.3769531,2.5214844-2.7558594,3.7177734-4.0820312,4.5761719l-.1035156-.0517578c1.3789062-1.8720703,2.9375-4.9667969,3.5625-6.8388672-1.0664062,0-2.1582031.0517578-3.171875.234375l-.5214844-1.0400391Z"/>
          <path class="cls-2" d="m446.8650271,40.0089421l.9101562-.9101562c.1308594-.1298828.2851562-.2597656.4414062-.2597656.1308594,0,.234375.078125.3378906.15625l1.3007812,1.0917969c.1308594.1298828.3632812.3125.3632812.4677734,0,.1308594-.1289062.2607422-.2070312.3388672-.1035156.1035156-.5722656.4677734-.78125.6240234-.3632812,11.9863281-.4667969,15.5742188-6.8378906,16.0419922-.15625-1.2998047-1.8457031-2.5214844-3.09375-3.0683594l.0527344-.1816406c.7011719.1816406,2.625.6240234,4.2382812.6240234.9355469,0,1.9492188-.1035156,2.6523438-1.7158203.4160156-.9882812,1.0917969-6.8125,1.0917969-10.4521484,0-.5722656-.0273438-1.6386719-.0527344-2.1328125h-7.5136719c-.2089844,2.4179688-.625,5.6943359-2.1855469,8.7890625-1.9238281,3.8476562-5.3027344,6.8378906-9.4902344,7.9042969l-.1035156-.2080078c3.6152344-1.7685547,9.1015625-6.2929688,9.6992188-16.4853516h-5.4355469c-.6757812,0-1.9238281.0263672-3.0664062.234375l-.4941406-1.0400391c2.1308594.1816406,3.6660156.1816406,3.9765625.1816406h5.0449219c.15625-3.4316406-.2597656-5.1738281-.546875-6.3955078l3.1738281,1.0136719c.078125.0263672.5449219.1816406.5449219.4423828,0,.2597656-.1035156.3378906-1.0136719,1.0136719.0253906.8320312.0527344,2.0800781-.0527344,3.9257812h7.046875Z"/>
        </g>
        <path class="cls-3" d="m333.3103396,27.7823796c0,2.8701172-1.5400391,4.9707031-2.4501953,5.9511719-1.2607422,1.3300781-2.4501953,2.3798828-4.1308594,3.5-.2099609.2802734-.2099609.5595703.140625.7001953,2.2402344.4902344,6.0898438,1.4697266,8.4707031,4.4101562,1.1904297,1.4707031,1.9599609,3.640625,1.9599609,6.4404297,0,5.7412109-4.0605469,11.5517578-10.0810547,15.0517578-3.5703125,2.1005859-7.5605469,2.9404297-10.3613281,2.9404297-3.8505859,0-7.0703125-1.5400391-7.0703125-3.5,0-.4199219.2802734-1.1904297.5595703-1.6103516.5605469-.8398438,1.3300781-1.3300781,1.890625-1.3300781.2802734,0,1.1201172.4902344,1.6796875.9794922,2.3105469,2.0302734,4.9013672,2.5205078,7.0712891,2.5205078,1.4697266,0,3.9902344-.5595703,5.8105469-2.0302734,3.2900391-2.5898438,4.5507812-6.7207031,4.5507812-9.5205078,0-2.8701172-.7705078-5.7412109-2.5205078-7.6308594-1.75-1.890625-3.7802734-2.3808594-6.3007812-2.3808594-1.1201172,0-3.7099609.4208984-5.4609375,1.1904297-.3496094.1396484-.6298828-.2099609-.5595703-.5595703,0-.5605469.6298828-1.4707031,1.0498047-1.8203125.9101562-.6298828,1.9599609-1.1904297,3.4306641-1.9609375,5.25-2.6601562,6.7207031-5.4599609,6.7207031-8.8203125,0-3.8505859-3.0800781-6.9306641-6.7910156-6.9306641-2.7998047,0-5.4599609,1.1904297-7.7001953,3.9199219-.7705078.9804688-1.2607422,1.2607422-1.4707031,1.2607422-.4199219,0-.6298828-.2802734-.6298828-.9804688,0-.7695312,1.5400391-3.2207031,3.8505859-5.25,2.3798828-2.1005859,5.3203125-3.2910156,8.6103516-3.2910156,6.6513672,0,9.7314453,5.390625,9.7314453,8.7509766Z"/>
      </g>
    </g>
  </g>
</svg>